<mxfile host="app.diagrams.net" modified="2023-03-30T10:21:21.425Z" agent="Mozilla/5.0 (Windows NT 10.0; Win64; x64) AppleWebKit/537.36 (KHTML, like Gecko) Chrome/111.0.0.0 Safari/537.36" etag="a-P-NxnSMmec3XZH4kR6" version="21.1.2" type="device" pages="4">
  <diagram id="HCMsgdUpdPB-K68dDW4w" name="DFG">
    <mxGraphModel dx="2269" dy="1406" grid="1" gridSize="10" guides="1" tooltips="1" connect="1" arrows="1" fold="1" page="1" pageScale="1" pageWidth="850" pageHeight="1100" math="0" shadow="0">
      <root>
        <mxCell id="0" />
        <mxCell id="1" parent="0" />
        <mxCell id="njArj1gwCoINyCfu0uxF-1" style="edgeStyle=orthogonalEdgeStyle;rounded=0;orthogonalLoop=1;jettySize=auto;html=1;exitX=1;exitY=0.5;exitDx=0;exitDy=0;entryX=0;entryY=0.5;entryDx=0;entryDy=0;fontSize=18;" parent="1" source="njArj1gwCoINyCfu0uxF-3" target="njArj1gwCoINyCfu0uxF-5" edge="1">
          <mxGeometry relative="1" as="geometry" />
        </mxCell>
        <mxCell id="njArj1gwCoINyCfu0uxF-2" style="edgeStyle=orthogonalEdgeStyle;rounded=0;orthogonalLoop=1;jettySize=auto;html=1;exitX=1;exitY=0.5;exitDx=0;exitDy=0;entryX=0;entryY=0.5;entryDx=0;entryDy=0;strokeColor=#000000;fontSize=18;endArrow=classic;endFill=1;" parent="1" source="njArj1gwCoINyCfu0uxF-3" target="njArj1gwCoINyCfu0uxF-43" edge="1">
          <mxGeometry relative="1" as="geometry" />
        </mxCell>
        <mxCell id="njArj1gwCoINyCfu0uxF-3" value="&lt;font style=&quot;font-size: 24px;&quot;&gt;+&lt;/font&gt;" style="ellipse;whiteSpace=wrap;html=1;aspect=fixed;" parent="1" vertex="1">
          <mxGeometry x="120" y="80" width="40" height="40" as="geometry" />
        </mxCell>
        <mxCell id="njArj1gwCoINyCfu0uxF-4" style="edgeStyle=orthogonalEdgeStyle;rounded=0;orthogonalLoop=1;jettySize=auto;html=1;exitX=1;exitY=0.5;exitDx=0;exitDy=0;entryX=0;entryY=0.5;entryDx=0;entryDy=0;fontSize=18;" parent="1" source="njArj1gwCoINyCfu0uxF-5" target="njArj1gwCoINyCfu0uxF-11" edge="1">
          <mxGeometry relative="1" as="geometry" />
        </mxCell>
        <mxCell id="njArj1gwCoINyCfu0uxF-5" value="&lt;font style=&quot;font-size: 24px;&quot;&gt;x&lt;/font&gt;" style="ellipse;whiteSpace=wrap;html=1;aspect=fixed;" parent="1" vertex="1">
          <mxGeometry x="520" y="80" width="40" height="40" as="geometry" />
        </mxCell>
        <mxCell id="njArj1gwCoINyCfu0uxF-6" style="edgeStyle=orthogonalEdgeStyle;rounded=0;orthogonalLoop=1;jettySize=auto;html=1;exitX=0.5;exitY=0;exitDx=0;exitDy=0;entryX=0.5;entryY=1;entryDx=0;entryDy=0;fontSize=18;" parent="1" source="njArj1gwCoINyCfu0uxF-7" target="njArj1gwCoINyCfu0uxF-3" edge="1">
          <mxGeometry relative="1" as="geometry" />
        </mxCell>
        <mxCell id="njArj1gwCoINyCfu0uxF-7" value="&lt;font style=&quot;font-size: 24px;&quot;&gt;+&lt;/font&gt;" style="ellipse;whiteSpace=wrap;html=1;aspect=fixed;" parent="1" vertex="1">
          <mxGeometry x="120" y="200" width="40" height="40" as="geometry" />
        </mxCell>
        <mxCell id="njArj1gwCoINyCfu0uxF-8" style="edgeStyle=orthogonalEdgeStyle;rounded=0;orthogonalLoop=1;jettySize=auto;html=1;exitX=0.5;exitY=0;exitDx=0;exitDy=0;entryX=0.5;entryY=1;entryDx=0;entryDy=0;fontSize=18;" parent="1" source="njArj1gwCoINyCfu0uxF-9" target="njArj1gwCoINyCfu0uxF-11" edge="1">
          <mxGeometry relative="1" as="geometry" />
        </mxCell>
        <mxCell id="njArj1gwCoINyCfu0uxF-9" value="&lt;font style=&quot;font-size: 24px;&quot;&gt;+&lt;/font&gt;" style="ellipse;whiteSpace=wrap;html=1;aspect=fixed;" parent="1" vertex="1">
          <mxGeometry x="652.5" y="200" width="40" height="40" as="geometry" />
        </mxCell>
        <mxCell id="njArj1gwCoINyCfu0uxF-10" style="edgeStyle=orthogonalEdgeStyle;rounded=0;orthogonalLoop=1;jettySize=auto;html=1;exitX=1;exitY=0.5;exitDx=0;exitDy=0;entryX=1;entryY=0.5;entryDx=0;entryDy=0;entryPerimeter=0;fontSize=18;" parent="1" source="njArj1gwCoINyCfu0uxF-11" target="njArj1gwCoINyCfu0uxF-29" edge="1">
          <mxGeometry relative="1" as="geometry" />
        </mxCell>
        <mxCell id="njArj1gwCoINyCfu0uxF-11" value="&lt;font style=&quot;font-size: 24px;&quot;&gt;+&lt;/font&gt;" style="ellipse;whiteSpace=wrap;html=1;aspect=fixed;" parent="1" vertex="1">
          <mxGeometry x="652.5" y="80" width="40" height="40" as="geometry" />
        </mxCell>
        <mxCell id="njArj1gwCoINyCfu0uxF-12" style="edgeStyle=orthogonalEdgeStyle;rounded=0;orthogonalLoop=1;jettySize=auto;html=1;exitX=1;exitY=0.5;exitDx=0;exitDy=0;entryX=0;entryY=0.5;entryDx=0;entryDy=0;fontSize=18;" parent="1" source="njArj1gwCoINyCfu0uxF-13" target="njArj1gwCoINyCfu0uxF-9" edge="1">
          <mxGeometry relative="1" as="geometry" />
        </mxCell>
        <mxCell id="njArj1gwCoINyCfu0uxF-13" value="&lt;font style=&quot;font-size: 24px;&quot;&gt;x&lt;/font&gt;" style="ellipse;whiteSpace=wrap;html=1;aspect=fixed;" parent="1" vertex="1">
          <mxGeometry x="520" y="200" width="40" height="40" as="geometry" />
        </mxCell>
        <mxCell id="njArj1gwCoINyCfu0uxF-14" style="edgeStyle=orthogonalEdgeStyle;rounded=0;orthogonalLoop=1;jettySize=auto;html=1;exitX=1;exitY=0.5;exitDx=0;exitDy=0;entryX=0.5;entryY=1;entryDx=0;entryDy=0;fontSize=18;" parent="1" source="njArj1gwCoINyCfu0uxF-15" target="njArj1gwCoINyCfu0uxF-9" edge="1">
          <mxGeometry relative="1" as="geometry" />
        </mxCell>
        <mxCell id="njArj1gwCoINyCfu0uxF-15" value="&lt;font style=&quot;font-size: 24px;&quot;&gt;x&lt;/font&gt;" style="ellipse;whiteSpace=wrap;html=1;aspect=fixed;" parent="1" vertex="1">
          <mxGeometry x="520" y="320" width="40" height="40" as="geometry" />
        </mxCell>
        <mxCell id="njArj1gwCoINyCfu0uxF-16" style="edgeStyle=orthogonalEdgeStyle;rounded=0;orthogonalLoop=1;jettySize=auto;html=1;exitX=0;exitY=0.5;exitDx=0;exitDy=0;entryX=0.5;entryY=1;entryDx=0;entryDy=0;fontSize=18;" parent="1" source="njArj1gwCoINyCfu0uxF-17" target="njArj1gwCoINyCfu0uxF-7" edge="1">
          <mxGeometry relative="1" as="geometry" />
        </mxCell>
        <mxCell id="njArj1gwCoINyCfu0uxF-17" value="&lt;font style=&quot;font-size: 24px;&quot;&gt;x&lt;/font&gt;" style="ellipse;whiteSpace=wrap;html=1;aspect=fixed;" parent="1" vertex="1">
          <mxGeometry x="277.5" y="320" width="40" height="40" as="geometry" />
        </mxCell>
        <mxCell id="njArj1gwCoINyCfu0uxF-18" style="edgeStyle=orthogonalEdgeStyle;rounded=0;orthogonalLoop=1;jettySize=auto;html=1;exitX=0;exitY=0.5;exitDx=0;exitDy=0;entryX=1;entryY=0.5;entryDx=0;entryDy=0;fontSize=18;" parent="1" source="njArj1gwCoINyCfu0uxF-45" target="njArj1gwCoINyCfu0uxF-7" edge="1">
          <mxGeometry relative="1" as="geometry" />
        </mxCell>
        <mxCell id="njArj1gwCoINyCfu0uxF-19" style="edgeStyle=orthogonalEdgeStyle;rounded=0;orthogonalLoop=1;jettySize=auto;html=1;exitX=1;exitY=0.5;exitDx=0;exitDy=0;exitPerimeter=0;entryX=0.5;entryY=0;entryDx=0;entryDy=0;fontSize=18;" parent="1" source="njArj1gwCoINyCfu0uxF-20" target="njArj1gwCoINyCfu0uxF-45" edge="1">
          <mxGeometry relative="1" as="geometry" />
        </mxCell>
        <mxCell id="njArj1gwCoINyCfu0uxF-20" value="&lt;font style=&quot;font-size: 18px;&quot;&gt;A1&lt;/font&gt;" style="shape=or;whiteSpace=wrap;html=1;fontSize=12;direction=south;" parent="1" vertex="1">
          <mxGeometry x="277.5" y="140" width="40" height="30" as="geometry" />
        </mxCell>
        <mxCell id="njArj1gwCoINyCfu0uxF-21" style="edgeStyle=orthogonalEdgeStyle;rounded=0;orthogonalLoop=1;jettySize=auto;html=1;exitX=1;exitY=0.5;exitDx=0;exitDy=0;exitPerimeter=0;entryX=0.5;entryY=0;entryDx=0;entryDy=0;fontSize=18;" parent="1" source="njArj1gwCoINyCfu0uxF-22" target="njArj1gwCoINyCfu0uxF-17" edge="1">
          <mxGeometry relative="1" as="geometry" />
        </mxCell>
        <mxCell id="njArj1gwCoINyCfu0uxF-22" value="&lt;font style=&quot;font-size: 18px;&quot;&gt;A2&lt;/font&gt;" style="shape=or;whiteSpace=wrap;html=1;fontSize=12;direction=south;" parent="1" vertex="1">
          <mxGeometry x="277.5" y="262" width="40" height="30" as="geometry" />
        </mxCell>
        <mxCell id="njArj1gwCoINyCfu0uxF-23" style="edgeStyle=orthogonalEdgeStyle;rounded=0;orthogonalLoop=1;jettySize=auto;html=1;exitX=1;exitY=0.5;exitDx=0;exitDy=0;exitPerimeter=0;entryX=0.5;entryY=0;entryDx=0;entryDy=0;fontSize=18;" parent="1" source="njArj1gwCoINyCfu0uxF-24" target="njArj1gwCoINyCfu0uxF-15" edge="1">
          <mxGeometry relative="1" as="geometry" />
        </mxCell>
        <mxCell id="njArj1gwCoINyCfu0uxF-24" value="&lt;font style=&quot;font-size: 18px;&quot;&gt;B2&lt;/font&gt;" style="shape=or;whiteSpace=wrap;html=1;fontSize=12;direction=south;" parent="1" vertex="1">
          <mxGeometry x="520" y="262" width="40" height="30" as="geometry" />
        </mxCell>
        <mxCell id="njArj1gwCoINyCfu0uxF-25" style="edgeStyle=orthogonalEdgeStyle;rounded=0;orthogonalLoop=1;jettySize=auto;html=1;exitX=1;exitY=0.5;exitDx=0;exitDy=0;exitPerimeter=0;entryX=0.5;entryY=0;entryDx=0;entryDy=0;fontSize=18;" parent="1" source="njArj1gwCoINyCfu0uxF-26" target="njArj1gwCoINyCfu0uxF-13" edge="1">
          <mxGeometry relative="1" as="geometry" />
        </mxCell>
        <mxCell id="njArj1gwCoINyCfu0uxF-26" value="&lt;font style=&quot;font-size: 18px;&quot;&gt;B1&lt;/font&gt;" style="shape=or;whiteSpace=wrap;html=1;fontSize=12;direction=south;" parent="1" vertex="1">
          <mxGeometry x="520" y="140" width="40" height="30" as="geometry" />
        </mxCell>
        <mxCell id="njArj1gwCoINyCfu0uxF-27" style="edgeStyle=orthogonalEdgeStyle;rounded=0;orthogonalLoop=1;jettySize=auto;html=1;exitX=1;exitY=0.5;exitDx=0;exitDy=0;exitPerimeter=0;entryX=0.5;entryY=0;entryDx=0;entryDy=0;fontSize=18;" parent="1" source="njArj1gwCoINyCfu0uxF-28" target="njArj1gwCoINyCfu0uxF-5" edge="1">
          <mxGeometry relative="1" as="geometry" />
        </mxCell>
        <mxCell id="njArj1gwCoINyCfu0uxF-28" value="&lt;font style=&quot;font-size: 18px;&quot;&gt;B0&lt;/font&gt;" style="shape=or;whiteSpace=wrap;html=1;fontSize=12;direction=south;" parent="1" vertex="1">
          <mxGeometry x="520" y="10" width="40" height="30" as="geometry" />
        </mxCell>
        <mxCell id="njArj1gwCoINyCfu0uxF-29" value="&lt;font style=&quot;font-size: 18px;&quot;&gt;Yn&lt;/font&gt;" style="shape=or;whiteSpace=wrap;html=1;fontSize=12;direction=west;" parent="1" vertex="1">
          <mxGeometry x="732.5" y="80" width="30" height="40" as="geometry" />
        </mxCell>
        <mxCell id="njArj1gwCoINyCfu0uxF-30" style="edgeStyle=orthogonalEdgeStyle;rounded=0;orthogonalLoop=1;jettySize=auto;html=1;exitX=1;exitY=0.5;exitDx=0;exitDy=0;exitPerimeter=0;entryX=0;entryY=0.5;entryDx=0;entryDy=0;fontSize=18;" parent="1" source="njArj1gwCoINyCfu0uxF-31" target="njArj1gwCoINyCfu0uxF-3" edge="1">
          <mxGeometry relative="1" as="geometry" />
        </mxCell>
        <mxCell id="njArj1gwCoINyCfu0uxF-31" value="&lt;font style=&quot;font-size: 18px;&quot;&gt;Xn&lt;/font&gt;" style="shape=or;whiteSpace=wrap;html=1;fontSize=12;direction=east;" parent="1" vertex="1">
          <mxGeometry x="60" y="80" width="30" height="40" as="geometry" />
        </mxCell>
        <mxCell id="njArj1gwCoINyCfu0uxF-32" value="p1" style="text;html=1;strokeColor=none;fillColor=none;align=center;verticalAlign=middle;whiteSpace=wrap;rounded=0;fontSize=18;" parent="1" vertex="1">
          <mxGeometry x="140" y="59" width="60" height="30" as="geometry" />
        </mxCell>
        <mxCell id="njArj1gwCoINyCfu0uxF-33" value="p3" style="text;html=1;strokeColor=none;fillColor=none;align=center;verticalAlign=middle;whiteSpace=wrap;rounded=0;fontSize=18;" parent="1" vertex="1">
          <mxGeometry x="142" y="185" width="60" height="30" as="geometry" />
        </mxCell>
        <mxCell id="njArj1gwCoINyCfu0uxF-34" value="m4" style="text;html=1;strokeColor=none;fillColor=none;align=center;verticalAlign=middle;whiteSpace=wrap;rounded=0;fontSize=18;" parent="1" vertex="1">
          <mxGeometry x="230" y="300" width="60" height="30" as="geometry" />
        </mxCell>
        <mxCell id="njArj1gwCoINyCfu0uxF-35" value="m3" style="text;html=1;strokeColor=none;fillColor=none;align=center;verticalAlign=middle;whiteSpace=wrap;rounded=0;fontSize=18;" parent="1" vertex="1">
          <mxGeometry x="490" y="180" width="60" height="30" as="geometry" />
        </mxCell>
        <mxCell id="njArj1gwCoINyCfu0uxF-36" value="m5" style="text;html=1;strokeColor=none;fillColor=none;align=center;verticalAlign=middle;whiteSpace=wrap;rounded=0;fontSize=18;" parent="1" vertex="1">
          <mxGeometry x="480" y="300" width="60" height="30" as="geometry" />
        </mxCell>
        <mxCell id="njArj1gwCoINyCfu0uxF-37" value="p4" style="text;html=1;strokeColor=none;fillColor=none;align=center;verticalAlign=middle;whiteSpace=wrap;rounded=0;fontSize=18;" parent="1" vertex="1">
          <mxGeometry x="602.5" y="180" width="60" height="30" as="geometry" />
        </mxCell>
        <mxCell id="njArj1gwCoINyCfu0uxF-38" value="p2" style="text;html=1;strokeColor=none;fillColor=none;align=center;verticalAlign=middle;whiteSpace=wrap;rounded=0;fontSize=18;" parent="1" vertex="1">
          <mxGeometry x="612.5" y="50" width="60" height="30" as="geometry" />
        </mxCell>
        <mxCell id="njArj1gwCoINyCfu0uxF-39" value="m1" style="text;html=1;strokeColor=none;fillColor=none;align=center;verticalAlign=middle;whiteSpace=wrap;rounded=0;fontSize=18;" parent="1" vertex="1">
          <mxGeometry x="490" y="60" width="60" height="30" as="geometry" />
        </mxCell>
        <mxCell id="njArj1gwCoINyCfu0uxF-40" style="edgeStyle=orthogonalEdgeStyle;rounded=0;orthogonalLoop=1;jettySize=auto;html=1;exitX=1;exitY=0.5;exitDx=0;exitDy=0;entryX=1;entryY=0.5;entryDx=0;entryDy=0;strokeColor=#000000;fontSize=18;endArrow=classic;endFill=1;" parent="1" source="njArj1gwCoINyCfu0uxF-43" target="njArj1gwCoINyCfu0uxF-45" edge="1">
          <mxGeometry relative="1" as="geometry" />
        </mxCell>
        <mxCell id="njArj1gwCoINyCfu0uxF-41" style="edgeStyle=orthogonalEdgeStyle;rounded=0;orthogonalLoop=1;jettySize=auto;html=1;exitX=1;exitY=0.5;exitDx=0;exitDy=0;entryX=0;entryY=0.5;entryDx=0;entryDy=0;strokeColor=#000000;fontSize=18;endArrow=classic;endFill=1;" parent="1" source="njArj1gwCoINyCfu0uxF-43" target="njArj1gwCoINyCfu0uxF-13" edge="1">
          <mxGeometry relative="1" as="geometry" />
        </mxCell>
        <mxCell id="njArj1gwCoINyCfu0uxF-42" style="edgeStyle=orthogonalEdgeStyle;rounded=0;orthogonalLoop=1;jettySize=auto;html=1;exitX=1;exitY=0.5;exitDx=0;exitDy=0;entryX=0;entryY=0.5;entryDx=0;entryDy=0;strokeColor=#000000;fontSize=18;endArrow=classic;endFill=1;" parent="1" source="njArj1gwCoINyCfu0uxF-43" target="njArj1gwCoINyCfu0uxF-49" edge="1">
          <mxGeometry relative="1" as="geometry" />
        </mxCell>
        <mxCell id="njArj1gwCoINyCfu0uxF-43" value="T0" style="ellipse;whiteSpace=wrap;html=1;aspect=fixed;direction=south;" parent="1" vertex="1">
          <mxGeometry x="370" y="135" width="40" height="40" as="geometry" />
        </mxCell>
        <mxCell id="njArj1gwCoINyCfu0uxF-44" value="d1" style="text;html=1;strokeColor=none;fillColor=none;align=center;verticalAlign=middle;whiteSpace=wrap;rounded=0;fontSize=18;" parent="1" vertex="1">
          <mxGeometry x="410" y="112" width="25" height="30" as="geometry" />
        </mxCell>
        <mxCell id="njArj1gwCoINyCfu0uxF-45" value="&lt;font style=&quot;font-size: 24px;&quot;&gt;x&lt;/font&gt;" style="ellipse;whiteSpace=wrap;html=1;aspect=fixed;" parent="1" vertex="1">
          <mxGeometry x="277.5" y="200" width="40" height="40" as="geometry" />
        </mxCell>
        <mxCell id="njArj1gwCoINyCfu0uxF-46" value="m2" style="text;html=1;strokeColor=none;fillColor=none;align=center;verticalAlign=middle;whiteSpace=wrap;rounded=0;fontSize=18;" parent="1" vertex="1">
          <mxGeometry x="233" y="183" width="60" height="30" as="geometry" />
        </mxCell>
        <mxCell id="njArj1gwCoINyCfu0uxF-47" style="edgeStyle=orthogonalEdgeStyle;rounded=0;orthogonalLoop=1;jettySize=auto;html=1;exitX=1;exitY=0.5;exitDx=0;exitDy=0;entryX=1;entryY=0.5;entryDx=0;entryDy=0;strokeColor=#000000;fontSize=18;endArrow=classic;endFill=1;" parent="1" source="njArj1gwCoINyCfu0uxF-49" target="njArj1gwCoINyCfu0uxF-17" edge="1">
          <mxGeometry relative="1" as="geometry" />
        </mxCell>
        <mxCell id="njArj1gwCoINyCfu0uxF-48" style="edgeStyle=orthogonalEdgeStyle;rounded=0;orthogonalLoop=1;jettySize=auto;html=1;exitX=1;exitY=0.5;exitDx=0;exitDy=0;entryX=0;entryY=0.5;entryDx=0;entryDy=0;strokeColor=#000000;fontSize=18;endArrow=classic;endFill=1;" parent="1" source="njArj1gwCoINyCfu0uxF-49" target="njArj1gwCoINyCfu0uxF-15" edge="1">
          <mxGeometry relative="1" as="geometry" />
        </mxCell>
        <mxCell id="njArj1gwCoINyCfu0uxF-49" value="T0" style="ellipse;whiteSpace=wrap;html=1;aspect=fixed;direction=south;" parent="1" vertex="1">
          <mxGeometry x="370" y="252" width="40" height="40" as="geometry" />
        </mxCell>
        <mxCell id="njArj1gwCoINyCfu0uxF-50" value="d2" style="text;html=1;strokeColor=none;fillColor=none;align=center;verticalAlign=middle;whiteSpace=wrap;rounded=0;fontSize=18;" parent="1" vertex="1">
          <mxGeometry x="410" y="232" width="29" height="30" as="geometry" />
        </mxCell>
      </root>
    </mxGraphModel>
  </diagram>
  <diagram name="Pipeline" id="KwDq4BrfgaoHISmTbFDw">
    <mxGraphModel dx="2269" dy="2423" grid="1" gridSize="10" guides="1" tooltips="1" connect="1" arrows="1" fold="1" page="1" pageScale="1" pageWidth="850" pageHeight="1100" math="0" shadow="0">
      <root>
        <mxCell id="0" />
        <mxCell id="1" parent="0" />
        <mxCell id="SFiuBev3iB4snf8OV5Ck-28" style="edgeStyle=orthogonalEdgeStyle;rounded=0;orthogonalLoop=1;jettySize=auto;html=1;exitX=1;exitY=0.5;exitDx=0;exitDy=0;entryX=0;entryY=0.5;entryDx=0;entryDy=0;fontSize=18;" parent="1" source="SFiuBev3iB4snf8OV5Ck-1" target="SFiuBev3iB4snf8OV5Ck-2" edge="1">
          <mxGeometry relative="1" as="geometry" />
        </mxCell>
        <mxCell id="SFiuBev3iB4snf8OV5Ck-29" style="edgeStyle=orthogonalEdgeStyle;rounded=0;orthogonalLoop=1;jettySize=auto;html=1;exitX=1;exitY=0.5;exitDx=0;exitDy=0;entryX=1;entryY=0.5;entryDx=0;entryDy=0;fontSize=18;entryPerimeter=0;" parent="1" source="SFiuBev3iB4snf8OV5Ck-1" target="SFiuBev3iB4snf8OV5Ck-63" edge="1">
          <mxGeometry relative="1" as="geometry">
            <mxPoint x="300" y="140.00000000000023" as="targetPoint" />
          </mxGeometry>
        </mxCell>
        <mxCell id="SFiuBev3iB4snf8OV5Ck-1" value="&lt;font style=&quot;font-size: 24px;&quot;&gt;+&lt;/font&gt;" style="ellipse;whiteSpace=wrap;html=1;aspect=fixed;" parent="1" vertex="1">
          <mxGeometry x="120" y="80" width="40" height="40" as="geometry" />
        </mxCell>
        <mxCell id="SFiuBev3iB4snf8OV5Ck-31" style="edgeStyle=orthogonalEdgeStyle;rounded=0;orthogonalLoop=1;jettySize=auto;html=1;exitX=1;exitY=0.5;exitDx=0;exitDy=0;entryX=0;entryY=0.5;entryDx=0;entryDy=0;fontSize=18;" parent="1" source="SFiuBev3iB4snf8OV5Ck-2" target="SFiuBev3iB4snf8OV5Ck-14" edge="1">
          <mxGeometry relative="1" as="geometry" />
        </mxCell>
        <mxCell id="SFiuBev3iB4snf8OV5Ck-2" value="&lt;font style=&quot;font-size: 24px;&quot;&gt;x&lt;/font&gt;" style="ellipse;whiteSpace=wrap;html=1;aspect=fixed;" parent="1" vertex="1">
          <mxGeometry x="520" y="80" width="40" height="40" as="geometry" />
        </mxCell>
        <mxCell id="SFiuBev3iB4snf8OV5Ck-36" style="edgeStyle=orthogonalEdgeStyle;rounded=0;orthogonalLoop=1;jettySize=auto;html=1;exitX=0.5;exitY=0;exitDx=0;exitDy=0;entryX=0.5;entryY=1;entryDx=0;entryDy=0;fontSize=18;" parent="1" source="SFiuBev3iB4snf8OV5Ck-12" target="SFiuBev3iB4snf8OV5Ck-1" edge="1">
          <mxGeometry relative="1" as="geometry" />
        </mxCell>
        <mxCell id="SFiuBev3iB4snf8OV5Ck-12" value="&lt;font style=&quot;font-size: 24px;&quot;&gt;+&lt;/font&gt;" style="ellipse;whiteSpace=wrap;html=1;aspect=fixed;" parent="1" vertex="1">
          <mxGeometry x="120" y="200" width="40" height="40" as="geometry" />
        </mxCell>
        <mxCell id="SFiuBev3iB4snf8OV5Ck-50" style="edgeStyle=orthogonalEdgeStyle;rounded=0;orthogonalLoop=1;jettySize=auto;html=1;exitX=0.5;exitY=0;exitDx=0;exitDy=0;entryX=0.5;entryY=1;entryDx=0;entryDy=0;fontSize=18;" parent="1" source="SFiuBev3iB4snf8OV5Ck-13" target="SFiuBev3iB4snf8OV5Ck-14" edge="1">
          <mxGeometry relative="1" as="geometry" />
        </mxCell>
        <mxCell id="SFiuBev3iB4snf8OV5Ck-13" value="&lt;font style=&quot;font-size: 24px;&quot;&gt;+&lt;/font&gt;" style="ellipse;whiteSpace=wrap;html=1;aspect=fixed;" parent="1" vertex="1">
          <mxGeometry x="652.5" y="200" width="40" height="40" as="geometry" />
        </mxCell>
        <mxCell id="SFiuBev3iB4snf8OV5Ck-33" style="edgeStyle=orthogonalEdgeStyle;rounded=0;orthogonalLoop=1;jettySize=auto;html=1;exitX=1;exitY=0.5;exitDx=0;exitDy=0;entryX=1;entryY=0.5;entryDx=0;entryDy=0;entryPerimeter=0;fontSize=18;" parent="1" source="SFiuBev3iB4snf8OV5Ck-14" target="SFiuBev3iB4snf8OV5Ck-32" edge="1">
          <mxGeometry relative="1" as="geometry" />
        </mxCell>
        <mxCell id="SFiuBev3iB4snf8OV5Ck-14" value="&lt;font style=&quot;font-size: 24px;&quot;&gt;+&lt;/font&gt;" style="ellipse;whiteSpace=wrap;html=1;aspect=fixed;" parent="1" vertex="1">
          <mxGeometry x="652.5" y="80" width="40" height="40" as="geometry" />
        </mxCell>
        <mxCell id="SFiuBev3iB4snf8OV5Ck-48" style="edgeStyle=orthogonalEdgeStyle;rounded=0;orthogonalLoop=1;jettySize=auto;html=1;exitX=1;exitY=0.5;exitDx=0;exitDy=0;entryX=0;entryY=0.5;entryDx=0;entryDy=0;fontSize=18;" parent="1" source="SFiuBev3iB4snf8OV5Ck-15" target="SFiuBev3iB4snf8OV5Ck-13" edge="1">
          <mxGeometry relative="1" as="geometry" />
        </mxCell>
        <mxCell id="SFiuBev3iB4snf8OV5Ck-15" value="&lt;font style=&quot;font-size: 24px;&quot;&gt;x&lt;/font&gt;" style="ellipse;whiteSpace=wrap;html=1;aspect=fixed;" parent="1" vertex="1">
          <mxGeometry x="520" y="200" width="40" height="40" as="geometry" />
        </mxCell>
        <mxCell id="SFiuBev3iB4snf8OV5Ck-49" style="edgeStyle=orthogonalEdgeStyle;rounded=0;orthogonalLoop=1;jettySize=auto;html=1;exitX=1;exitY=0.5;exitDx=0;exitDy=0;entryX=0.5;entryY=1;entryDx=0;entryDy=0;fontSize=18;" parent="1" source="SFiuBev3iB4snf8OV5Ck-17" target="SFiuBev3iB4snf8OV5Ck-13" edge="1">
          <mxGeometry relative="1" as="geometry" />
        </mxCell>
        <mxCell id="SFiuBev3iB4snf8OV5Ck-17" value="&lt;font style=&quot;font-size: 24px;&quot;&gt;x&lt;/font&gt;" style="ellipse;whiteSpace=wrap;html=1;aspect=fixed;" parent="1" vertex="1">
          <mxGeometry x="520" y="320" width="40" height="40" as="geometry" />
        </mxCell>
        <mxCell id="SFiuBev3iB4snf8OV5Ck-37" style="edgeStyle=orthogonalEdgeStyle;rounded=0;orthogonalLoop=1;jettySize=auto;html=1;exitX=0;exitY=0.5;exitDx=0;exitDy=0;entryX=0.5;entryY=1;entryDx=0;entryDy=0;fontSize=18;" parent="1" source="SFiuBev3iB4snf8OV5Ck-18" target="SFiuBev3iB4snf8OV5Ck-12" edge="1">
          <mxGeometry relative="1" as="geometry" />
        </mxCell>
        <mxCell id="SFiuBev3iB4snf8OV5Ck-18" value="&lt;font style=&quot;font-size: 24px;&quot;&gt;x&lt;/font&gt;" style="ellipse;whiteSpace=wrap;html=1;aspect=fixed;" parent="1" vertex="1">
          <mxGeometry x="277.5" y="320" width="40" height="40" as="geometry" />
        </mxCell>
        <mxCell id="SFiuBev3iB4snf8OV5Ck-38" style="edgeStyle=orthogonalEdgeStyle;rounded=0;orthogonalLoop=1;jettySize=auto;html=1;exitX=0;exitY=0.5;exitDx=0;exitDy=0;entryX=1;entryY=0.5;entryDx=0;entryDy=0;fontSize=18;" parent="1" source="SFiuBev3iB4snf8OV5Ck-19" target="SFiuBev3iB4snf8OV5Ck-12" edge="1">
          <mxGeometry relative="1" as="geometry" />
        </mxCell>
        <mxCell id="SFiuBev3iB4snf8OV5Ck-39" style="edgeStyle=orthogonalEdgeStyle;rounded=0;orthogonalLoop=1;jettySize=auto;html=1;exitX=1;exitY=0.5;exitDx=0;exitDy=0;exitPerimeter=0;entryX=0.5;entryY=0;entryDx=0;entryDy=0;fontSize=18;" parent="1" source="SFiuBev3iB4snf8OV5Ck-23" target="SFiuBev3iB4snf8OV5Ck-19" edge="1">
          <mxGeometry relative="1" as="geometry" />
        </mxCell>
        <mxCell id="SFiuBev3iB4snf8OV5Ck-23" value="&lt;font style=&quot;font-size: 18px;&quot;&gt;A1&lt;/font&gt;" style="shape=or;whiteSpace=wrap;html=1;fontSize=12;direction=south;" parent="1" vertex="1">
          <mxGeometry x="277.5" y="140" width="40" height="30" as="geometry" />
        </mxCell>
        <mxCell id="SFiuBev3iB4snf8OV5Ck-46" style="edgeStyle=orthogonalEdgeStyle;rounded=0;orthogonalLoop=1;jettySize=auto;html=1;exitX=1;exitY=0.5;exitDx=0;exitDy=0;exitPerimeter=0;entryX=0.5;entryY=0;entryDx=0;entryDy=0;fontSize=18;" parent="1" source="SFiuBev3iB4snf8OV5Ck-24" target="SFiuBev3iB4snf8OV5Ck-18" edge="1">
          <mxGeometry relative="1" as="geometry" />
        </mxCell>
        <mxCell id="SFiuBev3iB4snf8OV5Ck-24" value="&lt;font style=&quot;font-size: 18px;&quot;&gt;A2&lt;/font&gt;" style="shape=or;whiteSpace=wrap;html=1;fontSize=12;direction=south;" parent="1" vertex="1">
          <mxGeometry x="277.5" y="262" width="40" height="30" as="geometry" />
        </mxCell>
        <mxCell id="SFiuBev3iB4snf8OV5Ck-45" style="edgeStyle=orthogonalEdgeStyle;rounded=0;orthogonalLoop=1;jettySize=auto;html=1;exitX=1;exitY=0.5;exitDx=0;exitDy=0;exitPerimeter=0;entryX=0.5;entryY=0;entryDx=0;entryDy=0;fontSize=18;" parent="1" source="SFiuBev3iB4snf8OV5Ck-25" target="SFiuBev3iB4snf8OV5Ck-17" edge="1">
          <mxGeometry relative="1" as="geometry" />
        </mxCell>
        <mxCell id="SFiuBev3iB4snf8OV5Ck-25" value="&lt;font style=&quot;font-size: 18px;&quot;&gt;B2&lt;/font&gt;" style="shape=or;whiteSpace=wrap;html=1;fontSize=12;direction=south;" parent="1" vertex="1">
          <mxGeometry x="520" y="262" width="40" height="30" as="geometry" />
        </mxCell>
        <mxCell id="SFiuBev3iB4snf8OV5Ck-47" style="edgeStyle=orthogonalEdgeStyle;rounded=0;orthogonalLoop=1;jettySize=auto;html=1;exitX=1;exitY=0.5;exitDx=0;exitDy=0;exitPerimeter=0;entryX=0.5;entryY=0;entryDx=0;entryDy=0;fontSize=18;" parent="1" source="SFiuBev3iB4snf8OV5Ck-26" target="SFiuBev3iB4snf8OV5Ck-15" edge="1">
          <mxGeometry relative="1" as="geometry" />
        </mxCell>
        <mxCell id="SFiuBev3iB4snf8OV5Ck-26" value="&lt;font style=&quot;font-size: 18px;&quot;&gt;B1&lt;/font&gt;" style="shape=or;whiteSpace=wrap;html=1;fontSize=12;direction=south;" parent="1" vertex="1">
          <mxGeometry x="520" y="140" width="40" height="30" as="geometry" />
        </mxCell>
        <mxCell id="SFiuBev3iB4snf8OV5Ck-51" style="edgeStyle=orthogonalEdgeStyle;rounded=0;orthogonalLoop=1;jettySize=auto;html=1;exitX=1;exitY=0.5;exitDx=0;exitDy=0;exitPerimeter=0;entryX=0.5;entryY=0;entryDx=0;entryDy=0;fontSize=18;" parent="1" source="SFiuBev3iB4snf8OV5Ck-27" target="SFiuBev3iB4snf8OV5Ck-2" edge="1">
          <mxGeometry relative="1" as="geometry" />
        </mxCell>
        <mxCell id="SFiuBev3iB4snf8OV5Ck-27" value="&lt;font style=&quot;font-size: 18px;&quot;&gt;B0&lt;/font&gt;" style="shape=or;whiteSpace=wrap;html=1;fontSize=12;direction=south;" parent="1" vertex="1">
          <mxGeometry x="520" y="40" width="40" height="30" as="geometry" />
        </mxCell>
        <mxCell id="SFiuBev3iB4snf8OV5Ck-32" value="&lt;font style=&quot;font-size: 18px;&quot;&gt;Yn&lt;/font&gt;" style="shape=or;whiteSpace=wrap;html=1;fontSize=12;direction=west;" parent="1" vertex="1">
          <mxGeometry x="732.5" y="80" width="30" height="40" as="geometry" />
        </mxCell>
        <mxCell id="SFiuBev3iB4snf8OV5Ck-35" style="edgeStyle=orthogonalEdgeStyle;rounded=0;orthogonalLoop=1;jettySize=auto;html=1;exitX=1;exitY=0.5;exitDx=0;exitDy=0;exitPerimeter=0;entryX=0;entryY=0.5;entryDx=0;entryDy=0;fontSize=18;" parent="1" source="SFiuBev3iB4snf8OV5Ck-34" target="SFiuBev3iB4snf8OV5Ck-1" edge="1">
          <mxGeometry relative="1" as="geometry" />
        </mxCell>
        <mxCell id="SFiuBev3iB4snf8OV5Ck-34" value="&lt;font style=&quot;font-size: 18px;&quot;&gt;Xn&lt;/font&gt;" style="shape=or;whiteSpace=wrap;html=1;fontSize=12;direction=east;" parent="1" vertex="1">
          <mxGeometry x="60" y="80" width="30" height="40" as="geometry" />
        </mxCell>
        <mxCell id="SFiuBev3iB4snf8OV5Ck-52" value="p1" style="text;html=1;strokeColor=none;fillColor=none;align=center;verticalAlign=middle;whiteSpace=wrap;rounded=0;fontSize=18;" parent="1" vertex="1">
          <mxGeometry x="140" y="59" width="60" height="30" as="geometry" />
        </mxCell>
        <mxCell id="SFiuBev3iB4snf8OV5Ck-53" value="p3" style="text;html=1;strokeColor=none;fillColor=none;align=center;verticalAlign=middle;whiteSpace=wrap;rounded=0;fontSize=18;" parent="1" vertex="1">
          <mxGeometry x="142" y="185" width="60" height="30" as="geometry" />
        </mxCell>
        <mxCell id="SFiuBev3iB4snf8OV5Ck-54" value="m4" style="text;html=1;strokeColor=none;fillColor=none;align=center;verticalAlign=middle;whiteSpace=wrap;rounded=0;fontSize=18;" parent="1" vertex="1">
          <mxGeometry x="230" y="300" width="60" height="30" as="geometry" />
        </mxCell>
        <mxCell id="SFiuBev3iB4snf8OV5Ck-56" value="m3" style="text;html=1;strokeColor=none;fillColor=none;align=center;verticalAlign=middle;whiteSpace=wrap;rounded=0;fontSize=18;" parent="1" vertex="1">
          <mxGeometry x="490" y="180" width="60" height="30" as="geometry" />
        </mxCell>
        <mxCell id="SFiuBev3iB4snf8OV5Ck-57" value="m5" style="text;html=1;strokeColor=none;fillColor=none;align=center;verticalAlign=middle;whiteSpace=wrap;rounded=0;fontSize=18;" parent="1" vertex="1">
          <mxGeometry x="480" y="300" width="60" height="30" as="geometry" />
        </mxCell>
        <mxCell id="SFiuBev3iB4snf8OV5Ck-58" value="p4" style="text;html=1;strokeColor=none;fillColor=none;align=center;verticalAlign=middle;whiteSpace=wrap;rounded=0;fontSize=18;" parent="1" vertex="1">
          <mxGeometry x="602.5" y="180" width="60" height="30" as="geometry" />
        </mxCell>
        <mxCell id="SFiuBev3iB4snf8OV5Ck-59" value="p2" style="text;html=1;strokeColor=none;fillColor=none;align=center;verticalAlign=middle;whiteSpace=wrap;rounded=0;fontSize=18;" parent="1" vertex="1">
          <mxGeometry x="612.5" y="50" width="60" height="30" as="geometry" />
        </mxCell>
        <mxCell id="SFiuBev3iB4snf8OV5Ck-60" value="m1" style="text;html=1;strokeColor=none;fillColor=none;align=center;verticalAlign=middle;whiteSpace=wrap;rounded=0;fontSize=18;" parent="1" vertex="1">
          <mxGeometry x="490" y="60" width="60" height="30" as="geometry" />
        </mxCell>
        <mxCell id="SFiuBev3iB4snf8OV5Ck-62" value="T0" style="ellipse;whiteSpace=wrap;html=1;aspect=fixed;" parent="1" vertex="1">
          <mxGeometry x="277.5" y="-80" width="40" height="40" as="geometry" />
        </mxCell>
        <mxCell id="SFiuBev3iB4snf8OV5Ck-63" value="" style="shape=or;whiteSpace=wrap;html=1;fontSize=18;direction=north;" parent="1" vertex="1">
          <mxGeometry x="360" y="150" width="35" height="20" as="geometry" />
        </mxCell>
        <mxCell id="SFiuBev3iB4snf8OV5Ck-66" style="edgeStyle=orthogonalEdgeStyle;rounded=0;orthogonalLoop=1;jettySize=auto;html=1;exitX=1;exitY=0.5;exitDx=0;exitDy=0;exitPerimeter=0;entryX=1;entryY=0.5;entryDx=0;entryDy=0;fontSize=18;" parent="1" source="SFiuBev3iB4snf8OV5Ck-64" target="SFiuBev3iB4snf8OV5Ck-19" edge="1">
          <mxGeometry relative="1" as="geometry" />
        </mxCell>
        <mxCell id="SFiuBev3iB4snf8OV5Ck-67" style="edgeStyle=orthogonalEdgeStyle;rounded=0;orthogonalLoop=1;jettySize=auto;html=1;exitX=1;exitY=0.5;exitDx=0;exitDy=0;exitPerimeter=0;entryX=0;entryY=0.5;entryDx=0;entryDy=0;fontSize=18;" parent="1" source="SFiuBev3iB4snf8OV5Ck-64" target="SFiuBev3iB4snf8OV5Ck-15" edge="1">
          <mxGeometry relative="1" as="geometry" />
        </mxCell>
        <mxCell id="SFiuBev3iB4snf8OV5Ck-70" style="edgeStyle=orthogonalEdgeStyle;rounded=0;orthogonalLoop=1;jettySize=auto;html=1;exitX=1;exitY=0.5;exitDx=0;exitDy=0;exitPerimeter=0;entryX=1;entryY=0.5;entryDx=0;entryDy=0;entryPerimeter=0;fontSize=18;" parent="1" source="SFiuBev3iB4snf8OV5Ck-64" target="SFiuBev3iB4snf8OV5Ck-68" edge="1">
          <mxGeometry relative="1" as="geometry" />
        </mxCell>
        <mxCell id="SFiuBev3iB4snf8OV5Ck-64" value="" style="shape=or;whiteSpace=wrap;html=1;fontSize=18;direction=south;" parent="1" vertex="1">
          <mxGeometry x="360" y="180" width="35" height="20" as="geometry" />
        </mxCell>
        <mxCell id="SFiuBev3iB4snf8OV5Ck-65" value="d1" style="text;html=1;strokeColor=none;fillColor=none;align=center;verticalAlign=middle;whiteSpace=wrap;rounded=0;fontSize=18;" parent="1" vertex="1">
          <mxGeometry x="369.5" y="126" width="60" height="30" as="geometry" />
        </mxCell>
        <mxCell id="SFiuBev3iB4snf8OV5Ck-68" value="" style="shape=or;whiteSpace=wrap;html=1;fontSize=18;direction=north;" parent="1" vertex="1">
          <mxGeometry x="360" y="256" width="35" height="20" as="geometry" />
        </mxCell>
        <mxCell id="SFiuBev3iB4snf8OV5Ck-71" style="edgeStyle=orthogonalEdgeStyle;rounded=0;orthogonalLoop=1;jettySize=auto;html=1;exitX=1;exitY=0.5;exitDx=0;exitDy=0;exitPerimeter=0;entryX=0;entryY=0.5;entryDx=0;entryDy=0;fontSize=18;" parent="1" source="SFiuBev3iB4snf8OV5Ck-69" target="SFiuBev3iB4snf8OV5Ck-17" edge="1">
          <mxGeometry relative="1" as="geometry" />
        </mxCell>
        <mxCell id="SFiuBev3iB4snf8OV5Ck-72" style="edgeStyle=orthogonalEdgeStyle;rounded=0;orthogonalLoop=1;jettySize=auto;html=1;exitX=1;exitY=0.5;exitDx=0;exitDy=0;exitPerimeter=0;entryX=1;entryY=0.5;entryDx=0;entryDy=0;fontSize=18;" parent="1" source="SFiuBev3iB4snf8OV5Ck-69" target="SFiuBev3iB4snf8OV5Ck-18" edge="1">
          <mxGeometry relative="1" as="geometry" />
        </mxCell>
        <mxCell id="SFiuBev3iB4snf8OV5Ck-69" value="" style="shape=or;whiteSpace=wrap;html=1;fontSize=18;direction=south;" parent="1" vertex="1">
          <mxGeometry x="360" y="286" width="35" height="20" as="geometry" />
        </mxCell>
        <mxCell id="SFiuBev3iB4snf8OV5Ck-76" value="d2" style="text;html=1;strokeColor=none;fillColor=none;align=center;verticalAlign=middle;whiteSpace=wrap;rounded=0;fontSize=18;" parent="1" vertex="1">
          <mxGeometry x="368.5" y="232" width="60" height="30" as="geometry" />
        </mxCell>
        <mxCell id="SFiuBev3iB4snf8OV5Ck-77" value="" style="endArrow=none;dashed=1;html=1;dashPattern=1 3;strokeWidth=2;rounded=0;fontSize=18;strokeColor=#000000;" parent="1" edge="1">
          <mxGeometry width="50" height="50" relative="1" as="geometry">
            <mxPoint x="602.5" y="75" as="sourcePoint" />
            <mxPoint x="602.5" y="365" as="targetPoint" />
          </mxGeometry>
        </mxCell>
        <mxCell id="SFiuBev3iB4snf8OV5Ck-19" value="&lt;font style=&quot;font-size: 24px;&quot;&gt;x&lt;/font&gt;" style="ellipse;whiteSpace=wrap;html=1;aspect=fixed;" parent="1" vertex="1">
          <mxGeometry x="277.5" y="200" width="40" height="40" as="geometry" />
        </mxCell>
        <mxCell id="SFiuBev3iB4snf8OV5Ck-55" value="m2" style="text;html=1;strokeColor=none;fillColor=none;align=center;verticalAlign=middle;whiteSpace=wrap;rounded=0;fontSize=18;" parent="1" vertex="1">
          <mxGeometry x="233" y="183" width="60" height="30" as="geometry" />
        </mxCell>
        <mxCell id="SFiuBev3iB4snf8OV5Ck-79" value="" style="endArrow=none;html=1;rounded=0;fontSize=18;strokeColor=#FF3333;endFill=0;" parent="1" edge="1">
          <mxGeometry width="50" height="50" relative="1" as="geometry">
            <mxPoint x="277.5" y="370" as="sourcePoint" />
            <mxPoint x="107.5" y="370" as="targetPoint" />
          </mxGeometry>
        </mxCell>
        <mxCell id="SFiuBev3iB4snf8OV5Ck-80" value="" style="endArrow=none;html=1;rounded=0;fontSize=18;strokeColor=#FF3333;endFill=0;" parent="1" edge="1">
          <mxGeometry width="50" height="50" relative="1" as="geometry">
            <mxPoint x="110" y="370" as="sourcePoint" />
            <mxPoint x="110" y="40" as="targetPoint" />
          </mxGeometry>
        </mxCell>
        <mxCell id="SFiuBev3iB4snf8OV5Ck-81" value="" style="endArrow=classic;html=1;rounded=0;fontSize=18;strokeColor=#FF3333;" parent="1" edge="1">
          <mxGeometry width="50" height="50" relative="1" as="geometry">
            <mxPoint x="110" y="40" as="sourcePoint" />
            <mxPoint x="760" y="40" as="targetPoint" />
          </mxGeometry>
        </mxCell>
        <mxCell id="SFiuBev3iB4snf8OV5Ck-82" value="" style="endArrow=none;html=1;rounded=0;fontSize=18;strokeColor=#FF3333;endFill=0;" parent="1" edge="1">
          <mxGeometry width="50" height="50" relative="1" as="geometry">
            <mxPoint x="280" y="179" as="sourcePoint" />
            <mxPoint x="110" y="179.38000000000022" as="targetPoint" />
          </mxGeometry>
        </mxCell>
        <mxCell id="SFiuBev3iB4snf8OV5Ck-84" style="edgeStyle=orthogonalEdgeStyle;rounded=0;orthogonalLoop=1;jettySize=auto;html=1;exitX=1;exitY=0.5;exitDx=0;exitDy=0;entryX=1;entryY=0.5;entryDx=0;entryDy=0;fontSize=18;entryPerimeter=0;" parent="1" source="SFiuBev3iB4snf8OV5Ck-85" target="SFiuBev3iB4snf8OV5Ck-122" edge="1">
          <mxGeometry relative="1" as="geometry">
            <mxPoint x="300" y="540.0000000000002" as="targetPoint" />
          </mxGeometry>
        </mxCell>
        <mxCell id="SFiuBev3iB4snf8OV5Ck-229" style="edgeStyle=orthogonalEdgeStyle;rounded=0;orthogonalLoop=1;jettySize=auto;html=1;exitX=1;exitY=0.5;exitDx=0;exitDy=0;entryX=1;entryY=0.5;entryDx=0;entryDy=0;entryPerimeter=0;strokeColor=#000000;fontSize=18;endArrow=classic;endFill=1;" parent="1" source="SFiuBev3iB4snf8OV5Ck-85" target="SFiuBev3iB4snf8OV5Ck-221" edge="1">
          <mxGeometry relative="1" as="geometry" />
        </mxCell>
        <mxCell id="SFiuBev3iB4snf8OV5Ck-85" value="&lt;font style=&quot;font-size: 24px;&quot;&gt;+&lt;/font&gt;" style="ellipse;whiteSpace=wrap;html=1;aspect=fixed;" parent="1" vertex="1">
          <mxGeometry x="159" y="480" width="40" height="40" as="geometry" />
        </mxCell>
        <mxCell id="SFiuBev3iB4snf8OV5Ck-205" style="edgeStyle=orthogonalEdgeStyle;rounded=0;orthogonalLoop=1;jettySize=auto;html=1;exitX=1;exitY=0.5;exitDx=0;exitDy=0;entryX=1;entryY=0.5;entryDx=0;entryDy=0;entryPerimeter=0;strokeColor=#000000;fontSize=18;" parent="1" source="SFiuBev3iB4snf8OV5Ck-87" target="SFiuBev3iB4snf8OV5Ck-200" edge="1">
          <mxGeometry relative="1" as="geometry" />
        </mxCell>
        <mxCell id="SFiuBev3iB4snf8OV5Ck-87" value="&lt;font style=&quot;font-size: 24px;&quot;&gt;x&lt;/font&gt;" style="ellipse;whiteSpace=wrap;html=1;aspect=fixed;" parent="1" vertex="1">
          <mxGeometry x="600" y="480" width="40" height="40" as="geometry" />
        </mxCell>
        <mxCell id="SFiuBev3iB4snf8OV5Ck-88" style="edgeStyle=orthogonalEdgeStyle;rounded=0;orthogonalLoop=1;jettySize=auto;html=1;exitX=0.5;exitY=0;exitDx=0;exitDy=0;entryX=0.5;entryY=1;entryDx=0;entryDy=0;fontSize=18;" parent="1" source="SFiuBev3iB4snf8OV5Ck-89" target="SFiuBev3iB4snf8OV5Ck-85" edge="1">
          <mxGeometry relative="1" as="geometry" />
        </mxCell>
        <mxCell id="SFiuBev3iB4snf8OV5Ck-89" value="&lt;font style=&quot;font-size: 24px;&quot;&gt;+&lt;/font&gt;" style="ellipse;whiteSpace=wrap;html=1;aspect=fixed;" parent="1" vertex="1">
          <mxGeometry x="159" y="600" width="40" height="40" as="geometry" />
        </mxCell>
        <mxCell id="SFiuBev3iB4snf8OV5Ck-90" style="edgeStyle=orthogonalEdgeStyle;rounded=0;orthogonalLoop=1;jettySize=auto;html=1;exitX=0.5;exitY=0;exitDx=0;exitDy=0;entryX=0.5;entryY=1;entryDx=0;entryDy=0;fontSize=18;" parent="1" source="SFiuBev3iB4snf8OV5Ck-91" target="SFiuBev3iB4snf8OV5Ck-93" edge="1">
          <mxGeometry relative="1" as="geometry" />
        </mxCell>
        <mxCell id="SFiuBev3iB4snf8OV5Ck-91" value="&lt;font style=&quot;font-size: 24px;&quot;&gt;+&lt;/font&gt;" style="ellipse;whiteSpace=wrap;html=1;aspect=fixed;" parent="1" vertex="1">
          <mxGeometry x="777.5" y="600" width="40" height="40" as="geometry" />
        </mxCell>
        <mxCell id="SFiuBev3iB4snf8OV5Ck-92" style="edgeStyle=orthogonalEdgeStyle;rounded=0;orthogonalLoop=1;jettySize=auto;html=1;exitX=1;exitY=0.5;exitDx=0;exitDy=0;entryX=1;entryY=0.5;entryDx=0;entryDy=0;entryPerimeter=0;fontSize=18;" parent="1" source="SFiuBev3iB4snf8OV5Ck-93" target="SFiuBev3iB4snf8OV5Ck-111" edge="1">
          <mxGeometry relative="1" as="geometry" />
        </mxCell>
        <mxCell id="SFiuBev3iB4snf8OV5Ck-93" value="&lt;font style=&quot;font-size: 24px;&quot;&gt;+&lt;/font&gt;" style="ellipse;whiteSpace=wrap;html=1;aspect=fixed;" parent="1" vertex="1">
          <mxGeometry x="777.5" y="480" width="40" height="40" as="geometry" />
        </mxCell>
        <mxCell id="SFiuBev3iB4snf8OV5Ck-206" style="edgeStyle=orthogonalEdgeStyle;rounded=0;orthogonalLoop=1;jettySize=auto;html=1;exitX=1;exitY=0.5;exitDx=0;exitDy=0;entryX=1;entryY=0.5;entryDx=0;entryDy=0;entryPerimeter=0;strokeColor=#000000;fontSize=18;" parent="1" source="SFiuBev3iB4snf8OV5Ck-95" target="SFiuBev3iB4snf8OV5Ck-202" edge="1">
          <mxGeometry relative="1" as="geometry" />
        </mxCell>
        <mxCell id="SFiuBev3iB4snf8OV5Ck-95" value="&lt;font style=&quot;font-size: 24px;&quot;&gt;x&lt;/font&gt;" style="ellipse;whiteSpace=wrap;html=1;aspect=fixed;" parent="1" vertex="1">
          <mxGeometry x="600" y="600" width="40" height="40" as="geometry" />
        </mxCell>
        <mxCell id="SFiuBev3iB4snf8OV5Ck-207" style="edgeStyle=orthogonalEdgeStyle;rounded=0;orthogonalLoop=1;jettySize=auto;html=1;exitX=1;exitY=0.5;exitDx=0;exitDy=0;entryX=1;entryY=0.5;entryDx=0;entryDy=0;entryPerimeter=0;strokeColor=#000000;fontSize=18;" parent="1" source="SFiuBev3iB4snf8OV5Ck-97" target="SFiuBev3iB4snf8OV5Ck-204" edge="1">
          <mxGeometry relative="1" as="geometry" />
        </mxCell>
        <mxCell id="SFiuBev3iB4snf8OV5Ck-97" value="&lt;font style=&quot;font-size: 24px;&quot;&gt;x&lt;/font&gt;" style="ellipse;whiteSpace=wrap;html=1;aspect=fixed;" parent="1" vertex="1">
          <mxGeometry x="600" y="720" width="40" height="40" as="geometry" />
        </mxCell>
        <mxCell id="SFiuBev3iB4snf8OV5Ck-98" style="edgeStyle=orthogonalEdgeStyle;rounded=0;orthogonalLoop=1;jettySize=auto;html=1;exitX=0;exitY=0.5;exitDx=0;exitDy=0;entryX=0.5;entryY=1;entryDx=0;entryDy=0;fontSize=18;" parent="1" source="SFiuBev3iB4snf8OV5Ck-99" target="SFiuBev3iB4snf8OV5Ck-89" edge="1">
          <mxGeometry relative="1" as="geometry" />
        </mxCell>
        <mxCell id="SFiuBev3iB4snf8OV5Ck-99" value="&lt;font style=&quot;font-size: 24px;&quot;&gt;x&lt;/font&gt;" style="ellipse;whiteSpace=wrap;html=1;aspect=fixed;" parent="1" vertex="1">
          <mxGeometry x="277.5" y="720" width="40" height="40" as="geometry" />
        </mxCell>
        <mxCell id="SFiuBev3iB4snf8OV5Ck-100" style="edgeStyle=orthogonalEdgeStyle;rounded=0;orthogonalLoop=1;jettySize=auto;html=1;exitX=0;exitY=0.5;exitDx=0;exitDy=0;entryX=1;entryY=0.5;entryDx=0;entryDy=0;fontSize=18;" parent="1" source="SFiuBev3iB4snf8OV5Ck-134" target="SFiuBev3iB4snf8OV5Ck-89" edge="1">
          <mxGeometry relative="1" as="geometry" />
        </mxCell>
        <mxCell id="SFiuBev3iB4snf8OV5Ck-101" style="edgeStyle=orthogonalEdgeStyle;rounded=0;orthogonalLoop=1;jettySize=auto;html=1;exitX=1;exitY=0.5;exitDx=0;exitDy=0;exitPerimeter=0;entryX=0.5;entryY=0;entryDx=0;entryDy=0;fontSize=18;" parent="1" source="SFiuBev3iB4snf8OV5Ck-102" target="SFiuBev3iB4snf8OV5Ck-134" edge="1">
          <mxGeometry relative="1" as="geometry" />
        </mxCell>
        <mxCell id="SFiuBev3iB4snf8OV5Ck-102" value="&lt;font style=&quot;font-size: 18px;&quot;&gt;A1&lt;/font&gt;" style="shape=or;whiteSpace=wrap;html=1;fontSize=12;direction=south;" parent="1" vertex="1">
          <mxGeometry x="277.5" y="540" width="40" height="30" as="geometry" />
        </mxCell>
        <mxCell id="SFiuBev3iB4snf8OV5Ck-103" style="edgeStyle=orthogonalEdgeStyle;rounded=0;orthogonalLoop=1;jettySize=auto;html=1;exitX=1;exitY=0.5;exitDx=0;exitDy=0;exitPerimeter=0;entryX=0.5;entryY=0;entryDx=0;entryDy=0;fontSize=18;" parent="1" source="SFiuBev3iB4snf8OV5Ck-104" target="SFiuBev3iB4snf8OV5Ck-99" edge="1">
          <mxGeometry relative="1" as="geometry" />
        </mxCell>
        <mxCell id="SFiuBev3iB4snf8OV5Ck-104" value="&lt;font style=&quot;font-size: 18px;&quot;&gt;A2&lt;/font&gt;" style="shape=or;whiteSpace=wrap;html=1;fontSize=12;direction=south;" parent="1" vertex="1">
          <mxGeometry x="277.5" y="662" width="40" height="30" as="geometry" />
        </mxCell>
        <mxCell id="SFiuBev3iB4snf8OV5Ck-105" style="edgeStyle=orthogonalEdgeStyle;rounded=0;orthogonalLoop=1;jettySize=auto;html=1;exitX=1;exitY=0.5;exitDx=0;exitDy=0;exitPerimeter=0;entryX=0.5;entryY=0;entryDx=0;entryDy=0;fontSize=18;" parent="1" source="SFiuBev3iB4snf8OV5Ck-106" target="SFiuBev3iB4snf8OV5Ck-97" edge="1">
          <mxGeometry relative="1" as="geometry" />
        </mxCell>
        <mxCell id="SFiuBev3iB4snf8OV5Ck-106" value="&lt;font style=&quot;font-size: 18px;&quot;&gt;B2&lt;/font&gt;" style="shape=or;whiteSpace=wrap;html=1;fontSize=12;direction=south;" parent="1" vertex="1">
          <mxGeometry x="600" y="662" width="40" height="30" as="geometry" />
        </mxCell>
        <mxCell id="SFiuBev3iB4snf8OV5Ck-107" style="edgeStyle=orthogonalEdgeStyle;rounded=0;orthogonalLoop=1;jettySize=auto;html=1;exitX=1;exitY=0.5;exitDx=0;exitDy=0;exitPerimeter=0;entryX=0.5;entryY=0;entryDx=0;entryDy=0;fontSize=18;" parent="1" source="SFiuBev3iB4snf8OV5Ck-108" target="SFiuBev3iB4snf8OV5Ck-95" edge="1">
          <mxGeometry relative="1" as="geometry" />
        </mxCell>
        <mxCell id="SFiuBev3iB4snf8OV5Ck-108" value="&lt;font style=&quot;font-size: 18px;&quot;&gt;B1&lt;/font&gt;" style="shape=or;whiteSpace=wrap;html=1;fontSize=12;direction=south;" parent="1" vertex="1">
          <mxGeometry x="600" y="540" width="40" height="30" as="geometry" />
        </mxCell>
        <mxCell id="SFiuBev3iB4snf8OV5Ck-109" style="edgeStyle=orthogonalEdgeStyle;rounded=0;orthogonalLoop=1;jettySize=auto;html=1;exitX=1;exitY=0.5;exitDx=0;exitDy=0;exitPerimeter=0;entryX=0.5;entryY=0;entryDx=0;entryDy=0;fontSize=18;" parent="1" source="SFiuBev3iB4snf8OV5Ck-110" target="SFiuBev3iB4snf8OV5Ck-87" edge="1">
          <mxGeometry relative="1" as="geometry" />
        </mxCell>
        <mxCell id="SFiuBev3iB4snf8OV5Ck-110" value="&lt;font style=&quot;font-size: 18px;&quot;&gt;B0&lt;/font&gt;" style="shape=or;whiteSpace=wrap;html=1;fontSize=12;direction=south;" parent="1" vertex="1">
          <mxGeometry x="600" y="431" width="40" height="30" as="geometry" />
        </mxCell>
        <mxCell id="SFiuBev3iB4snf8OV5Ck-111" value="&lt;font style=&quot;font-size: 18px;&quot;&gt;Yn&lt;/font&gt;" style="shape=or;whiteSpace=wrap;html=1;fontSize=12;direction=west;" parent="1" vertex="1">
          <mxGeometry x="852.5" y="480" width="30" height="40" as="geometry" />
        </mxCell>
        <mxCell id="SFiuBev3iB4snf8OV5Ck-112" style="edgeStyle=orthogonalEdgeStyle;rounded=0;orthogonalLoop=1;jettySize=auto;html=1;exitX=1;exitY=0.5;exitDx=0;exitDy=0;exitPerimeter=0;entryX=0;entryY=0.5;entryDx=0;entryDy=0;fontSize=18;" parent="1" source="SFiuBev3iB4snf8OV5Ck-113" target="SFiuBev3iB4snf8OV5Ck-85" edge="1">
          <mxGeometry relative="1" as="geometry" />
        </mxCell>
        <mxCell id="SFiuBev3iB4snf8OV5Ck-113" value="&lt;font style=&quot;font-size: 18px;&quot;&gt;Xn&lt;/font&gt;" style="shape=or;whiteSpace=wrap;html=1;fontSize=12;direction=east;" parent="1" vertex="1">
          <mxGeometry x="80" y="480" width="30" height="40" as="geometry" />
        </mxCell>
        <mxCell id="SFiuBev3iB4snf8OV5Ck-114" value="p1" style="text;html=1;strokeColor=none;fillColor=none;align=center;verticalAlign=middle;whiteSpace=wrap;rounded=0;fontSize=18;" parent="1" vertex="1">
          <mxGeometry x="179" y="459" width="60" height="30" as="geometry" />
        </mxCell>
        <mxCell id="SFiuBev3iB4snf8OV5Ck-115" value="p3" style="text;html=1;strokeColor=none;fillColor=none;align=center;verticalAlign=middle;whiteSpace=wrap;rounded=0;fontSize=18;" parent="1" vertex="1">
          <mxGeometry x="181" y="585" width="60" height="30" as="geometry" />
        </mxCell>
        <mxCell id="SFiuBev3iB4snf8OV5Ck-116" value="m4" style="text;html=1;strokeColor=none;fillColor=none;align=center;verticalAlign=middle;whiteSpace=wrap;rounded=0;fontSize=18;" parent="1" vertex="1">
          <mxGeometry x="230" y="700" width="60" height="30" as="geometry" />
        </mxCell>
        <mxCell id="SFiuBev3iB4snf8OV5Ck-117" value="m3" style="text;html=1;strokeColor=none;fillColor=none;align=center;verticalAlign=middle;whiteSpace=wrap;rounded=0;fontSize=18;" parent="1" vertex="1">
          <mxGeometry x="560" y="580" width="60" height="30" as="geometry" />
        </mxCell>
        <mxCell id="SFiuBev3iB4snf8OV5Ck-118" value="m5" style="text;html=1;strokeColor=none;fillColor=none;align=center;verticalAlign=middle;whiteSpace=wrap;rounded=0;fontSize=18;" parent="1" vertex="1">
          <mxGeometry x="557" y="701" width="60" height="30" as="geometry" />
        </mxCell>
        <mxCell id="SFiuBev3iB4snf8OV5Ck-119" value="p4" style="text;html=1;strokeColor=none;fillColor=none;align=center;verticalAlign=middle;whiteSpace=wrap;rounded=0;fontSize=18;" parent="1" vertex="1">
          <mxGeometry x="742.5" y="580" width="60" height="30" as="geometry" />
        </mxCell>
        <mxCell id="SFiuBev3iB4snf8OV5Ck-120" value="p2" style="text;html=1;strokeColor=none;fillColor=none;align=center;verticalAlign=middle;whiteSpace=wrap;rounded=0;fontSize=18;" parent="1" vertex="1">
          <mxGeometry x="752.5" y="453" width="60" height="30" as="geometry" />
        </mxCell>
        <mxCell id="SFiuBev3iB4snf8OV5Ck-121" value="m1" style="text;html=1;strokeColor=none;fillColor=none;align=center;verticalAlign=middle;whiteSpace=wrap;rounded=0;fontSize=18;" parent="1" vertex="1">
          <mxGeometry x="560" y="460" width="60" height="30" as="geometry" />
        </mxCell>
        <mxCell id="SFiuBev3iB4snf8OV5Ck-122" value="" style="shape=or;whiteSpace=wrap;html=1;fontSize=18;direction=north;" parent="1" vertex="1">
          <mxGeometry x="360" y="550" width="35" height="20" as="geometry" />
        </mxCell>
        <mxCell id="SFiuBev3iB4snf8OV5Ck-123" style="edgeStyle=orthogonalEdgeStyle;rounded=0;orthogonalLoop=1;jettySize=auto;html=1;exitX=1;exitY=0.5;exitDx=0;exitDy=0;exitPerimeter=0;entryX=1;entryY=0.5;entryDx=0;entryDy=0;fontSize=18;" parent="1" source="SFiuBev3iB4snf8OV5Ck-126" target="SFiuBev3iB4snf8OV5Ck-134" edge="1">
          <mxGeometry relative="1" as="geometry" />
        </mxCell>
        <mxCell id="SFiuBev3iB4snf8OV5Ck-125" style="edgeStyle=orthogonalEdgeStyle;rounded=0;orthogonalLoop=1;jettySize=auto;html=1;exitX=1;exitY=0.5;exitDx=0;exitDy=0;exitPerimeter=0;entryX=1;entryY=0.5;entryDx=0;entryDy=0;entryPerimeter=0;fontSize=18;" parent="1" source="SFiuBev3iB4snf8OV5Ck-126" target="SFiuBev3iB4snf8OV5Ck-128" edge="1">
          <mxGeometry relative="1" as="geometry" />
        </mxCell>
        <mxCell id="SFiuBev3iB4snf8OV5Ck-230" style="edgeStyle=orthogonalEdgeStyle;rounded=0;orthogonalLoop=1;jettySize=auto;html=1;exitX=1;exitY=0.5;exitDx=0;exitDy=0;exitPerimeter=0;entryX=1;entryY=0.5;entryDx=0;entryDy=0;entryPerimeter=0;strokeColor=#000000;fontSize=18;endArrow=classic;endFill=1;" parent="1" source="SFiuBev3iB4snf8OV5Ck-126" target="SFiuBev3iB4snf8OV5Ck-223" edge="1">
          <mxGeometry relative="1" as="geometry" />
        </mxCell>
        <mxCell id="SFiuBev3iB4snf8OV5Ck-126" value="" style="shape=or;whiteSpace=wrap;html=1;fontSize=18;direction=south;" parent="1" vertex="1">
          <mxGeometry x="360" y="580" width="35" height="20" as="geometry" />
        </mxCell>
        <mxCell id="SFiuBev3iB4snf8OV5Ck-127" value="d1" style="text;html=1;strokeColor=none;fillColor=none;align=center;verticalAlign=middle;whiteSpace=wrap;rounded=0;fontSize=18;" parent="1" vertex="1">
          <mxGeometry x="369.5" y="526" width="60" height="30" as="geometry" />
        </mxCell>
        <mxCell id="SFiuBev3iB4snf8OV5Ck-128" value="" style="shape=or;whiteSpace=wrap;html=1;fontSize=18;direction=north;" parent="1" vertex="1">
          <mxGeometry x="360" y="656" width="35" height="20" as="geometry" />
        </mxCell>
        <mxCell id="SFiuBev3iB4snf8OV5Ck-130" style="edgeStyle=orthogonalEdgeStyle;rounded=0;orthogonalLoop=1;jettySize=auto;html=1;exitX=1;exitY=0.5;exitDx=0;exitDy=0;exitPerimeter=0;entryX=1;entryY=0.5;entryDx=0;entryDy=0;fontSize=18;" parent="1" source="SFiuBev3iB4snf8OV5Ck-131" target="SFiuBev3iB4snf8OV5Ck-99" edge="1">
          <mxGeometry relative="1" as="geometry" />
        </mxCell>
        <mxCell id="SFiuBev3iB4snf8OV5Ck-232" style="edgeStyle=orthogonalEdgeStyle;rounded=0;orthogonalLoop=1;jettySize=auto;html=1;exitX=1;exitY=0.5;exitDx=0;exitDy=0;exitPerimeter=0;entryX=1;entryY=0.5;entryDx=0;entryDy=0;entryPerimeter=0;strokeColor=#000000;fontSize=18;endArrow=classic;endFill=1;" parent="1" source="SFiuBev3iB4snf8OV5Ck-131" target="SFiuBev3iB4snf8OV5Ck-225" edge="1">
          <mxGeometry relative="1" as="geometry" />
        </mxCell>
        <mxCell id="SFiuBev3iB4snf8OV5Ck-131" value="" style="shape=or;whiteSpace=wrap;html=1;fontSize=18;direction=south;" parent="1" vertex="1">
          <mxGeometry x="360" y="686" width="35" height="20" as="geometry" />
        </mxCell>
        <mxCell id="SFiuBev3iB4snf8OV5Ck-132" value="d2" style="text;html=1;strokeColor=none;fillColor=none;align=center;verticalAlign=middle;whiteSpace=wrap;rounded=0;fontSize=18;" parent="1" vertex="1">
          <mxGeometry x="368.5" y="632" width="60" height="30" as="geometry" />
        </mxCell>
        <mxCell id="SFiuBev3iB4snf8OV5Ck-134" value="&lt;font style=&quot;font-size: 24px;&quot;&gt;x&lt;/font&gt;" style="ellipse;whiteSpace=wrap;html=1;aspect=fixed;" parent="1" vertex="1">
          <mxGeometry x="277.5" y="600" width="40" height="40" as="geometry" />
        </mxCell>
        <mxCell id="SFiuBev3iB4snf8OV5Ck-135" value="m2" style="text;html=1;strokeColor=none;fillColor=none;align=center;verticalAlign=middle;whiteSpace=wrap;rounded=0;fontSize=18;" parent="1" vertex="1">
          <mxGeometry x="233" y="583" width="60" height="30" as="geometry" />
        </mxCell>
        <mxCell id="SFiuBev3iB4snf8OV5Ck-136" value="" style="endArrow=none;html=1;rounded=0;fontSize=18;strokeColor=#FF3333;endFill=0;" parent="1" edge="1">
          <mxGeometry width="50" height="50" relative="1" as="geometry">
            <mxPoint x="330" y="770" as="sourcePoint" />
            <mxPoint x="130" y="770" as="targetPoint" />
          </mxGeometry>
        </mxCell>
        <mxCell id="SFiuBev3iB4snf8OV5Ck-137" value="" style="endArrow=none;html=1;rounded=0;fontSize=18;strokeColor=#FF3333;endFill=0;" parent="1" edge="1">
          <mxGeometry width="50" height="50" relative="1" as="geometry">
            <mxPoint x="130" y="770" as="sourcePoint" />
            <mxPoint x="130" y="440" as="targetPoint" />
          </mxGeometry>
        </mxCell>
        <mxCell id="SFiuBev3iB4snf8OV5Ck-138" value="" style="endArrow=classic;html=1;rounded=0;fontSize=18;strokeColor=#FF3333;" parent="1" edge="1">
          <mxGeometry width="50" height="50" relative="1" as="geometry">
            <mxPoint x="130" y="440" as="sourcePoint" />
            <mxPoint x="490" y="440" as="targetPoint" />
          </mxGeometry>
        </mxCell>
        <mxCell id="SFiuBev3iB4snf8OV5Ck-139" value="" style="endArrow=none;html=1;rounded=0;fontSize=18;strokeColor=#FF3333;endFill=0;" parent="1" edge="1">
          <mxGeometry width="50" height="50" relative="1" as="geometry">
            <mxPoint x="330" y="580" as="sourcePoint" />
            <mxPoint x="130" y="579.7600000000001" as="targetPoint" />
          </mxGeometry>
        </mxCell>
        <mxCell id="SFiuBev3iB4snf8OV5Ck-208" style="edgeStyle=orthogonalEdgeStyle;rounded=0;orthogonalLoop=1;jettySize=auto;html=1;exitX=1;exitY=0.5;exitDx=0;exitDy=0;exitPerimeter=0;entryX=0;entryY=0.5;entryDx=0;entryDy=0;strokeColor=#000000;fontSize=18;" parent="1" source="SFiuBev3iB4snf8OV5Ck-199" target="SFiuBev3iB4snf8OV5Ck-93" edge="1">
          <mxGeometry relative="1" as="geometry" />
        </mxCell>
        <mxCell id="SFiuBev3iB4snf8OV5Ck-199" value="" style="shape=or;whiteSpace=wrap;html=1;fontSize=18;direction=east;" parent="1" vertex="1">
          <mxGeometry x="710" y="482.5" width="20" height="35" as="geometry" />
        </mxCell>
        <mxCell id="SFiuBev3iB4snf8OV5Ck-200" value="" style="shape=or;whiteSpace=wrap;html=1;fontSize=18;direction=west;" parent="1" vertex="1">
          <mxGeometry x="682.5" y="482.5" width="20" height="35" as="geometry" />
        </mxCell>
        <mxCell id="SFiuBev3iB4snf8OV5Ck-209" style="edgeStyle=orthogonalEdgeStyle;rounded=0;orthogonalLoop=1;jettySize=auto;html=1;exitX=1;exitY=0.5;exitDx=0;exitDy=0;exitPerimeter=0;entryX=0;entryY=0.5;entryDx=0;entryDy=0;strokeColor=#000000;fontSize=18;" parent="1" source="SFiuBev3iB4snf8OV5Ck-201" target="SFiuBev3iB4snf8OV5Ck-91" edge="1">
          <mxGeometry relative="1" as="geometry" />
        </mxCell>
        <mxCell id="SFiuBev3iB4snf8OV5Ck-201" value="" style="shape=or;whiteSpace=wrap;html=1;fontSize=18;direction=east;" parent="1" vertex="1">
          <mxGeometry x="710" y="602.5" width="20" height="35" as="geometry" />
        </mxCell>
        <mxCell id="SFiuBev3iB4snf8OV5Ck-202" value="" style="shape=or;whiteSpace=wrap;html=1;fontSize=18;direction=west;" parent="1" vertex="1">
          <mxGeometry x="682.5" y="602.5" width="20" height="35" as="geometry" />
        </mxCell>
        <mxCell id="SFiuBev3iB4snf8OV5Ck-210" style="edgeStyle=orthogonalEdgeStyle;rounded=0;orthogonalLoop=1;jettySize=auto;html=1;exitX=1;exitY=0.5;exitDx=0;exitDy=0;exitPerimeter=0;entryX=0.5;entryY=1;entryDx=0;entryDy=0;strokeColor=#000000;fontSize=18;" parent="1" source="SFiuBev3iB4snf8OV5Ck-203" target="SFiuBev3iB4snf8OV5Ck-91" edge="1">
          <mxGeometry relative="1" as="geometry" />
        </mxCell>
        <mxCell id="SFiuBev3iB4snf8OV5Ck-203" value="" style="shape=or;whiteSpace=wrap;html=1;fontSize=18;direction=east;" parent="1" vertex="1">
          <mxGeometry x="710" y="722.5" width="20" height="35" as="geometry" />
        </mxCell>
        <mxCell id="SFiuBev3iB4snf8OV5Ck-204" value="" style="shape=or;whiteSpace=wrap;html=1;fontSize=18;direction=west;" parent="1" vertex="1">
          <mxGeometry x="682.5" y="722.5" width="20" height="35" as="geometry" />
        </mxCell>
        <mxCell id="SFiuBev3iB4snf8OV5Ck-214" value="d4" style="text;html=1;strokeColor=none;fillColor=none;align=center;verticalAlign=middle;whiteSpace=wrap;rounded=0;fontSize=18;" parent="1" vertex="1">
          <mxGeometry x="500" y="583" width="60" height="30" as="geometry" />
        </mxCell>
        <mxCell id="SFiuBev3iB4snf8OV5Ck-215" value="d5" style="text;html=1;strokeColor=none;fillColor=none;align=center;verticalAlign=middle;whiteSpace=wrap;rounded=0;fontSize=18;" parent="1" vertex="1">
          <mxGeometry x="500" y="706" width="60" height="30" as="geometry" />
        </mxCell>
        <mxCell id="SFiuBev3iB4snf8OV5Ck-216" value="" style="endArrow=none;html=1;rounded=0;strokeColor=#FF3333;fontSize=18;endFill=0;" parent="1" edge="1">
          <mxGeometry width="50" height="50" relative="1" as="geometry">
            <mxPoint x="330" y="540" as="sourcePoint" />
            <mxPoint x="330" y="580" as="targetPoint" />
          </mxGeometry>
        </mxCell>
        <mxCell id="SFiuBev3iB4snf8OV5Ck-217" value="" style="endArrow=none;html=1;rounded=0;strokeColor=#FF3333;fontSize=18;endFill=0;" parent="1" edge="1">
          <mxGeometry width="50" height="50" relative="1" as="geometry">
            <mxPoint x="330" y="660" as="sourcePoint" />
            <mxPoint x="330" y="770" as="targetPoint" />
          </mxGeometry>
        </mxCell>
        <mxCell id="SFiuBev3iB4snf8OV5Ck-219" value="" style="endArrow=none;dashed=1;html=1;dashPattern=1 3;strokeWidth=2;rounded=0;fontSize=18;strokeColor=#000000;" parent="1" edge="1">
          <mxGeometry width="50" height="50" relative="1" as="geometry">
            <mxPoint x="437.5000000000002" y="75" as="sourcePoint" />
            <mxPoint x="437.5000000000002" y="365" as="targetPoint" />
          </mxGeometry>
        </mxCell>
        <mxCell id="SFiuBev3iB4snf8OV5Ck-228" style="edgeStyle=orthogonalEdgeStyle;rounded=0;orthogonalLoop=1;jettySize=auto;html=1;exitX=1;exitY=0.5;exitDx=0;exitDy=0;exitPerimeter=0;entryX=0;entryY=0.5;entryDx=0;entryDy=0;strokeColor=#000000;fontSize=18;endArrow=classic;endFill=1;" parent="1" source="SFiuBev3iB4snf8OV5Ck-220" target="SFiuBev3iB4snf8OV5Ck-87" edge="1">
          <mxGeometry relative="1" as="geometry" />
        </mxCell>
        <mxCell id="SFiuBev3iB4snf8OV5Ck-220" value="" style="shape=or;whiteSpace=wrap;html=1;fontSize=18;direction=east;" parent="1" vertex="1">
          <mxGeometry x="500" y="482.5" width="20" height="35" as="geometry" />
        </mxCell>
        <mxCell id="SFiuBev3iB4snf8OV5Ck-221" value="" style="shape=or;whiteSpace=wrap;html=1;fontSize=18;direction=west;" parent="1" vertex="1">
          <mxGeometry x="472.5" y="482.5" width="20" height="35" as="geometry" />
        </mxCell>
        <mxCell id="SFiuBev3iB4snf8OV5Ck-231" style="edgeStyle=orthogonalEdgeStyle;rounded=0;orthogonalLoop=1;jettySize=auto;html=1;exitX=1;exitY=0.5;exitDx=0;exitDy=0;exitPerimeter=0;entryX=0;entryY=0.5;entryDx=0;entryDy=0;strokeColor=#000000;fontSize=18;endArrow=classic;endFill=1;" parent="1" source="SFiuBev3iB4snf8OV5Ck-222" target="SFiuBev3iB4snf8OV5Ck-95" edge="1">
          <mxGeometry relative="1" as="geometry" />
        </mxCell>
        <mxCell id="SFiuBev3iB4snf8OV5Ck-222" value="" style="shape=or;whiteSpace=wrap;html=1;fontSize=18;direction=east;" parent="1" vertex="1">
          <mxGeometry x="500" y="602.5" width="20" height="35" as="geometry" />
        </mxCell>
        <mxCell id="SFiuBev3iB4snf8OV5Ck-223" value="" style="shape=or;whiteSpace=wrap;html=1;fontSize=18;direction=west;" parent="1" vertex="1">
          <mxGeometry x="472.5" y="602.5" width="20" height="35" as="geometry" />
        </mxCell>
        <mxCell id="SFiuBev3iB4snf8OV5Ck-233" style="edgeStyle=orthogonalEdgeStyle;rounded=0;orthogonalLoop=1;jettySize=auto;html=1;exitX=1;exitY=0.5;exitDx=0;exitDy=0;exitPerimeter=0;entryX=0;entryY=0.5;entryDx=0;entryDy=0;strokeColor=#000000;fontSize=18;endArrow=classic;endFill=1;" parent="1" source="SFiuBev3iB4snf8OV5Ck-224" target="SFiuBev3iB4snf8OV5Ck-97" edge="1">
          <mxGeometry relative="1" as="geometry" />
        </mxCell>
        <mxCell id="SFiuBev3iB4snf8OV5Ck-224" value="" style="shape=or;whiteSpace=wrap;html=1;fontSize=18;direction=east;" parent="1" vertex="1">
          <mxGeometry x="500" y="722.5" width="20" height="35" as="geometry" />
        </mxCell>
        <mxCell id="SFiuBev3iB4snf8OV5Ck-225" value="" style="shape=or;whiteSpace=wrap;html=1;fontSize=18;direction=west;" parent="1" vertex="1">
          <mxGeometry x="472.5" y="722.5" width="20" height="35" as="geometry" />
        </mxCell>
        <mxCell id="SFiuBev3iB4snf8OV5Ck-226" value="d3" style="text;html=1;strokeColor=none;fillColor=none;align=center;verticalAlign=middle;whiteSpace=wrap;rounded=0;fontSize=18;" parent="1" vertex="1">
          <mxGeometry x="496" y="461" width="60" height="30" as="geometry" />
        </mxCell>
        <mxCell id="SFiuBev3iB4snf8OV5Ck-234" value="d7" style="text;html=1;strokeColor=none;fillColor=none;align=center;verticalAlign=middle;whiteSpace=wrap;rounded=0;fontSize=18;" parent="1" vertex="1">
          <mxGeometry x="703" y="574" width="60" height="30" as="geometry" />
        </mxCell>
        <mxCell id="SFiuBev3iB4snf8OV5Ck-235" value="d8" style="text;html=1;strokeColor=none;fillColor=none;align=center;verticalAlign=middle;whiteSpace=wrap;rounded=0;fontSize=18;" parent="1" vertex="1">
          <mxGeometry x="703" y="697" width="60" height="30" as="geometry" />
        </mxCell>
        <mxCell id="SFiuBev3iB4snf8OV5Ck-236" value="d6" style="text;html=1;strokeColor=none;fillColor=none;align=center;verticalAlign=middle;whiteSpace=wrap;rounded=0;fontSize=18;" parent="1" vertex="1">
          <mxGeometry x="699" y="452" width="60" height="30" as="geometry" />
        </mxCell>
        <mxCell id="SFiuBev3iB4snf8OV5Ck-237" style="edgeStyle=orthogonalEdgeStyle;rounded=0;orthogonalLoop=1;jettySize=auto;html=1;exitX=1;exitY=0.5;exitDx=0;exitDy=0;entryX=1;entryY=0.5;entryDx=0;entryDy=0;fontSize=18;entryPerimeter=0;" parent="1" source="SFiuBev3iB4snf8OV5Ck-239" target="SFiuBev3iB4snf8OV5Ck-276" edge="1">
          <mxGeometry relative="1" as="geometry">
            <mxPoint x="300" y="939.0000000000002" as="targetPoint" />
          </mxGeometry>
        </mxCell>
        <mxCell id="SFiuBev3iB4snf8OV5Ck-238" style="edgeStyle=orthogonalEdgeStyle;rounded=0;orthogonalLoop=1;jettySize=auto;html=1;exitX=1;exitY=0.5;exitDx=0;exitDy=0;entryX=1;entryY=0.5;entryDx=0;entryDy=0;entryPerimeter=0;strokeColor=#000000;fontSize=18;endArrow=classic;endFill=1;" parent="1" source="SFiuBev3iB4snf8OV5Ck-239" target="SFiuBev3iB4snf8OV5Ck-308" edge="1">
          <mxGeometry relative="1" as="geometry" />
        </mxCell>
        <mxCell id="SFiuBev3iB4snf8OV5Ck-239" value="&lt;font style=&quot;font-size: 24px;&quot;&gt;+&lt;/font&gt;" style="ellipse;whiteSpace=wrap;html=1;aspect=fixed;" parent="1" vertex="1">
          <mxGeometry x="159" y="879" width="40" height="40" as="geometry" />
        </mxCell>
        <mxCell id="SFiuBev3iB4snf8OV5Ck-321" style="edgeStyle=orthogonalEdgeStyle;rounded=0;orthogonalLoop=1;jettySize=auto;html=1;exitX=1;exitY=0.5;exitDx=0;exitDy=0;entryX=0;entryY=0.5;entryDx=0;entryDy=0;strokeColor=#000000;fontSize=18;endArrow=classic;endFill=1;" parent="1" source="SFiuBev3iB4snf8OV5Ck-241" target="SFiuBev3iB4snf8OV5Ck-247" edge="1">
          <mxGeometry relative="1" as="geometry" />
        </mxCell>
        <mxCell id="SFiuBev3iB4snf8OV5Ck-241" value="&lt;font style=&quot;font-size: 24px;&quot;&gt;x&lt;/font&gt;" style="ellipse;whiteSpace=wrap;html=1;aspect=fixed;" parent="1" vertex="1">
          <mxGeometry x="600" y="879" width="40" height="40" as="geometry" />
        </mxCell>
        <mxCell id="SFiuBev3iB4snf8OV5Ck-242" style="edgeStyle=orthogonalEdgeStyle;rounded=0;orthogonalLoop=1;jettySize=auto;html=1;exitX=0.5;exitY=0;exitDx=0;exitDy=0;entryX=0.5;entryY=1;entryDx=0;entryDy=0;fontSize=18;" parent="1" source="SFiuBev3iB4snf8OV5Ck-243" target="SFiuBev3iB4snf8OV5Ck-239" edge="1">
          <mxGeometry relative="1" as="geometry" />
        </mxCell>
        <mxCell id="SFiuBev3iB4snf8OV5Ck-243" value="&lt;font style=&quot;font-size: 24px;&quot;&gt;+&lt;/font&gt;" style="ellipse;whiteSpace=wrap;html=1;aspect=fixed;" parent="1" vertex="1">
          <mxGeometry x="159" y="999" width="40" height="40" as="geometry" />
        </mxCell>
        <mxCell id="SFiuBev3iB4snf8OV5Ck-244" style="edgeStyle=orthogonalEdgeStyle;rounded=0;orthogonalLoop=1;jettySize=auto;html=1;exitX=0.5;exitY=0;exitDx=0;exitDy=0;entryX=0.5;entryY=1;entryDx=0;entryDy=0;fontSize=18;" parent="1" source="SFiuBev3iB4snf8OV5Ck-245" target="SFiuBev3iB4snf8OV5Ck-247" edge="1">
          <mxGeometry relative="1" as="geometry" />
        </mxCell>
        <mxCell id="SFiuBev3iB4snf8OV5Ck-245" value="&lt;font style=&quot;font-size: 24px;&quot;&gt;+&lt;/font&gt;" style="ellipse;whiteSpace=wrap;html=1;aspect=fixed;" parent="1" vertex="1">
          <mxGeometry x="705" y="999" width="40" height="40" as="geometry" />
        </mxCell>
        <mxCell id="SFiuBev3iB4snf8OV5Ck-246" style="edgeStyle=orthogonalEdgeStyle;rounded=0;orthogonalLoop=1;jettySize=auto;html=1;exitX=1;exitY=0.5;exitDx=0;exitDy=0;entryX=1;entryY=0.5;entryDx=0;entryDy=0;entryPerimeter=0;fontSize=18;" parent="1" source="SFiuBev3iB4snf8OV5Ck-247" target="SFiuBev3iB4snf8OV5Ck-265" edge="1">
          <mxGeometry relative="1" as="geometry" />
        </mxCell>
        <mxCell id="SFiuBev3iB4snf8OV5Ck-247" value="&lt;font style=&quot;font-size: 24px;&quot;&gt;+&lt;/font&gt;" style="ellipse;whiteSpace=wrap;html=1;aspect=fixed;" parent="1" vertex="1">
          <mxGeometry x="705" y="879" width="40" height="40" as="geometry" />
        </mxCell>
        <mxCell id="SFiuBev3iB4snf8OV5Ck-320" style="edgeStyle=orthogonalEdgeStyle;rounded=0;orthogonalLoop=1;jettySize=auto;html=1;exitX=1;exitY=0.5;exitDx=0;exitDy=0;entryX=0;entryY=0.5;entryDx=0;entryDy=0;strokeColor=#000000;fontSize=18;endArrow=classic;endFill=1;" parent="1" source="SFiuBev3iB4snf8OV5Ck-249" target="SFiuBev3iB4snf8OV5Ck-245" edge="1">
          <mxGeometry relative="1" as="geometry" />
        </mxCell>
        <mxCell id="SFiuBev3iB4snf8OV5Ck-249" value="&lt;font style=&quot;font-size: 24px;&quot;&gt;x&lt;/font&gt;" style="ellipse;whiteSpace=wrap;html=1;aspect=fixed;" parent="1" vertex="1">
          <mxGeometry x="600" y="999" width="40" height="40" as="geometry" />
        </mxCell>
        <mxCell id="SFiuBev3iB4snf8OV5Ck-319" style="edgeStyle=orthogonalEdgeStyle;rounded=0;orthogonalLoop=1;jettySize=auto;html=1;exitX=1;exitY=0.5;exitDx=0;exitDy=0;entryX=0.5;entryY=1;entryDx=0;entryDy=0;strokeColor=#000000;fontSize=18;endArrow=classic;endFill=1;" parent="1" source="SFiuBev3iB4snf8OV5Ck-251" target="SFiuBev3iB4snf8OV5Ck-245" edge="1">
          <mxGeometry relative="1" as="geometry" />
        </mxCell>
        <mxCell id="SFiuBev3iB4snf8OV5Ck-251" value="&lt;font style=&quot;font-size: 24px;&quot;&gt;x&lt;/font&gt;" style="ellipse;whiteSpace=wrap;html=1;aspect=fixed;" parent="1" vertex="1">
          <mxGeometry x="600" y="1119" width="40" height="40" as="geometry" />
        </mxCell>
        <mxCell id="SFiuBev3iB4snf8OV5Ck-252" style="edgeStyle=orthogonalEdgeStyle;rounded=0;orthogonalLoop=1;jettySize=auto;html=1;exitX=0;exitY=0.5;exitDx=0;exitDy=0;entryX=0.5;entryY=1;entryDx=0;entryDy=0;fontSize=18;" parent="1" source="SFiuBev3iB4snf8OV5Ck-253" target="SFiuBev3iB4snf8OV5Ck-243" edge="1">
          <mxGeometry relative="1" as="geometry" />
        </mxCell>
        <mxCell id="SFiuBev3iB4snf8OV5Ck-253" value="&lt;font style=&quot;font-size: 24px;&quot;&gt;x&lt;/font&gt;" style="ellipse;whiteSpace=wrap;html=1;aspect=fixed;" parent="1" vertex="1">
          <mxGeometry x="277.5" y="1119" width="40" height="40" as="geometry" />
        </mxCell>
        <mxCell id="SFiuBev3iB4snf8OV5Ck-254" style="edgeStyle=orthogonalEdgeStyle;rounded=0;orthogonalLoop=1;jettySize=auto;html=1;exitX=0;exitY=0.5;exitDx=0;exitDy=0;entryX=1;entryY=0.5;entryDx=0;entryDy=0;fontSize=18;" parent="1" source="SFiuBev3iB4snf8OV5Ck-287" target="SFiuBev3iB4snf8OV5Ck-243" edge="1">
          <mxGeometry relative="1" as="geometry" />
        </mxCell>
        <mxCell id="SFiuBev3iB4snf8OV5Ck-255" style="edgeStyle=orthogonalEdgeStyle;rounded=0;orthogonalLoop=1;jettySize=auto;html=1;exitX=1;exitY=0.5;exitDx=0;exitDy=0;exitPerimeter=0;entryX=0.5;entryY=0;entryDx=0;entryDy=0;fontSize=18;" parent="1" source="SFiuBev3iB4snf8OV5Ck-256" target="SFiuBev3iB4snf8OV5Ck-287" edge="1">
          <mxGeometry relative="1" as="geometry" />
        </mxCell>
        <mxCell id="SFiuBev3iB4snf8OV5Ck-256" value="&lt;font style=&quot;font-size: 18px;&quot;&gt;A1&lt;/font&gt;" style="shape=or;whiteSpace=wrap;html=1;fontSize=12;direction=south;" parent="1" vertex="1">
          <mxGeometry x="277.5" y="939" width="40" height="30" as="geometry" />
        </mxCell>
        <mxCell id="SFiuBev3iB4snf8OV5Ck-257" style="edgeStyle=orthogonalEdgeStyle;rounded=0;orthogonalLoop=1;jettySize=auto;html=1;exitX=1;exitY=0.5;exitDx=0;exitDy=0;exitPerimeter=0;entryX=0.5;entryY=0;entryDx=0;entryDy=0;fontSize=18;" parent="1" source="SFiuBev3iB4snf8OV5Ck-258" target="SFiuBev3iB4snf8OV5Ck-253" edge="1">
          <mxGeometry relative="1" as="geometry" />
        </mxCell>
        <mxCell id="SFiuBev3iB4snf8OV5Ck-258" value="&lt;font style=&quot;font-size: 18px;&quot;&gt;A2&lt;/font&gt;" style="shape=or;whiteSpace=wrap;html=1;fontSize=12;direction=south;" parent="1" vertex="1">
          <mxGeometry x="277.5" y="1061" width="40" height="30" as="geometry" />
        </mxCell>
        <mxCell id="SFiuBev3iB4snf8OV5Ck-259" style="edgeStyle=orthogonalEdgeStyle;rounded=0;orthogonalLoop=1;jettySize=auto;html=1;exitX=1;exitY=0.5;exitDx=0;exitDy=0;exitPerimeter=0;entryX=0.5;entryY=0;entryDx=0;entryDy=0;fontSize=18;" parent="1" source="SFiuBev3iB4snf8OV5Ck-260" target="SFiuBev3iB4snf8OV5Ck-251" edge="1">
          <mxGeometry relative="1" as="geometry" />
        </mxCell>
        <mxCell id="SFiuBev3iB4snf8OV5Ck-260" value="&lt;font style=&quot;font-size: 18px;&quot;&gt;B2&lt;/font&gt;" style="shape=or;whiteSpace=wrap;html=1;fontSize=12;direction=south;" parent="1" vertex="1">
          <mxGeometry x="600" y="1061" width="40" height="30" as="geometry" />
        </mxCell>
        <mxCell id="SFiuBev3iB4snf8OV5Ck-261" style="edgeStyle=orthogonalEdgeStyle;rounded=0;orthogonalLoop=1;jettySize=auto;html=1;exitX=1;exitY=0.5;exitDx=0;exitDy=0;exitPerimeter=0;entryX=0.5;entryY=0;entryDx=0;entryDy=0;fontSize=18;" parent="1" source="SFiuBev3iB4snf8OV5Ck-262" target="SFiuBev3iB4snf8OV5Ck-249" edge="1">
          <mxGeometry relative="1" as="geometry" />
        </mxCell>
        <mxCell id="SFiuBev3iB4snf8OV5Ck-262" value="&lt;font style=&quot;font-size: 18px;&quot;&gt;B1&lt;/font&gt;" style="shape=or;whiteSpace=wrap;html=1;fontSize=12;direction=south;" parent="1" vertex="1">
          <mxGeometry x="600" y="939" width="40" height="30" as="geometry" />
        </mxCell>
        <mxCell id="SFiuBev3iB4snf8OV5Ck-263" style="edgeStyle=orthogonalEdgeStyle;rounded=0;orthogonalLoop=1;jettySize=auto;html=1;exitX=1;exitY=0.5;exitDx=0;exitDy=0;exitPerimeter=0;entryX=0.5;entryY=0;entryDx=0;entryDy=0;fontSize=18;" parent="1" source="SFiuBev3iB4snf8OV5Ck-264" target="SFiuBev3iB4snf8OV5Ck-241" edge="1">
          <mxGeometry relative="1" as="geometry" />
        </mxCell>
        <mxCell id="SFiuBev3iB4snf8OV5Ck-264" value="&lt;font style=&quot;font-size: 18px;&quot;&gt;B0&lt;/font&gt;" style="shape=or;whiteSpace=wrap;html=1;fontSize=12;direction=south;" parent="1" vertex="1">
          <mxGeometry x="600" y="830" width="40" height="30" as="geometry" />
        </mxCell>
        <mxCell id="SFiuBev3iB4snf8OV5Ck-265" value="&lt;font style=&quot;font-size: 18px;&quot;&gt;Yn&lt;/font&gt;" style="shape=or;whiteSpace=wrap;html=1;fontSize=12;direction=west;" parent="1" vertex="1">
          <mxGeometry x="780" y="879" width="30" height="40" as="geometry" />
        </mxCell>
        <mxCell id="SFiuBev3iB4snf8OV5Ck-266" style="edgeStyle=orthogonalEdgeStyle;rounded=0;orthogonalLoop=1;jettySize=auto;html=1;exitX=1;exitY=0.5;exitDx=0;exitDy=0;exitPerimeter=0;entryX=0;entryY=0.5;entryDx=0;entryDy=0;fontSize=18;" parent="1" source="SFiuBev3iB4snf8OV5Ck-267" target="SFiuBev3iB4snf8OV5Ck-239" edge="1">
          <mxGeometry relative="1" as="geometry" />
        </mxCell>
        <mxCell id="SFiuBev3iB4snf8OV5Ck-267" value="&lt;font style=&quot;font-size: 18px;&quot;&gt;Xn&lt;/font&gt;" style="shape=or;whiteSpace=wrap;html=1;fontSize=12;direction=east;" parent="1" vertex="1">
          <mxGeometry x="80" y="879" width="30" height="40" as="geometry" />
        </mxCell>
        <mxCell id="SFiuBev3iB4snf8OV5Ck-268" value="p1" style="text;html=1;strokeColor=none;fillColor=none;align=center;verticalAlign=middle;whiteSpace=wrap;rounded=0;fontSize=18;" parent="1" vertex="1">
          <mxGeometry x="179" y="858" width="60" height="30" as="geometry" />
        </mxCell>
        <mxCell id="SFiuBev3iB4snf8OV5Ck-269" value="p3" style="text;html=1;strokeColor=none;fillColor=none;align=center;verticalAlign=middle;whiteSpace=wrap;rounded=0;fontSize=18;" parent="1" vertex="1">
          <mxGeometry x="181" y="984" width="60" height="30" as="geometry" />
        </mxCell>
        <mxCell id="SFiuBev3iB4snf8OV5Ck-270" value="m4" style="text;html=1;strokeColor=none;fillColor=none;align=center;verticalAlign=middle;whiteSpace=wrap;rounded=0;fontSize=18;" parent="1" vertex="1">
          <mxGeometry x="230" y="1099" width="60" height="30" as="geometry" />
        </mxCell>
        <mxCell id="SFiuBev3iB4snf8OV5Ck-271" value="m3" style="text;html=1;strokeColor=none;fillColor=none;align=center;verticalAlign=middle;whiteSpace=wrap;rounded=0;fontSize=18;" parent="1" vertex="1">
          <mxGeometry x="560" y="979" width="60" height="30" as="geometry" />
        </mxCell>
        <mxCell id="SFiuBev3iB4snf8OV5Ck-272" value="m5" style="text;html=1;strokeColor=none;fillColor=none;align=center;verticalAlign=middle;whiteSpace=wrap;rounded=0;fontSize=18;" parent="1" vertex="1">
          <mxGeometry x="557" y="1100" width="60" height="30" as="geometry" />
        </mxCell>
        <mxCell id="SFiuBev3iB4snf8OV5Ck-273" value="p4" style="text;html=1;strokeColor=none;fillColor=none;align=center;verticalAlign=middle;whiteSpace=wrap;rounded=0;fontSize=18;" parent="1" vertex="1">
          <mxGeometry x="670" y="979" width="60" height="30" as="geometry" />
        </mxCell>
        <mxCell id="SFiuBev3iB4snf8OV5Ck-274" value="p2" style="text;html=1;strokeColor=none;fillColor=none;align=center;verticalAlign=middle;whiteSpace=wrap;rounded=0;fontSize=18;" parent="1" vertex="1">
          <mxGeometry x="680" y="852" width="60" height="30" as="geometry" />
        </mxCell>
        <mxCell id="SFiuBev3iB4snf8OV5Ck-275" value="m1" style="text;html=1;strokeColor=none;fillColor=none;align=center;verticalAlign=middle;whiteSpace=wrap;rounded=0;fontSize=18;" parent="1" vertex="1">
          <mxGeometry x="560" y="859" width="60" height="30" as="geometry" />
        </mxCell>
        <mxCell id="SFiuBev3iB4snf8OV5Ck-276" value="" style="shape=or;whiteSpace=wrap;html=1;fontSize=18;direction=north;" parent="1" vertex="1">
          <mxGeometry x="360" y="949" width="35" height="20" as="geometry" />
        </mxCell>
        <mxCell id="SFiuBev3iB4snf8OV5Ck-277" style="edgeStyle=orthogonalEdgeStyle;rounded=0;orthogonalLoop=1;jettySize=auto;html=1;exitX=1;exitY=0.5;exitDx=0;exitDy=0;exitPerimeter=0;entryX=1;entryY=0.5;entryDx=0;entryDy=0;fontSize=18;" parent="1" source="SFiuBev3iB4snf8OV5Ck-280" target="SFiuBev3iB4snf8OV5Ck-287" edge="1">
          <mxGeometry relative="1" as="geometry" />
        </mxCell>
        <mxCell id="SFiuBev3iB4snf8OV5Ck-278" style="edgeStyle=orthogonalEdgeStyle;rounded=0;orthogonalLoop=1;jettySize=auto;html=1;exitX=1;exitY=0.5;exitDx=0;exitDy=0;exitPerimeter=0;entryX=1;entryY=0.5;entryDx=0;entryDy=0;entryPerimeter=0;fontSize=18;" parent="1" source="SFiuBev3iB4snf8OV5Ck-280" target="SFiuBev3iB4snf8OV5Ck-282" edge="1">
          <mxGeometry relative="1" as="geometry" />
        </mxCell>
        <mxCell id="SFiuBev3iB4snf8OV5Ck-279" style="edgeStyle=orthogonalEdgeStyle;rounded=0;orthogonalLoop=1;jettySize=auto;html=1;exitX=1;exitY=0.5;exitDx=0;exitDy=0;exitPerimeter=0;entryX=1;entryY=0.5;entryDx=0;entryDy=0;entryPerimeter=0;strokeColor=#000000;fontSize=18;endArrow=classic;endFill=1;" parent="1" source="SFiuBev3iB4snf8OV5Ck-280" target="SFiuBev3iB4snf8OV5Ck-311" edge="1">
          <mxGeometry relative="1" as="geometry" />
        </mxCell>
        <mxCell id="SFiuBev3iB4snf8OV5Ck-280" value="" style="shape=or;whiteSpace=wrap;html=1;fontSize=18;direction=south;" parent="1" vertex="1">
          <mxGeometry x="360" y="979" width="35" height="20" as="geometry" />
        </mxCell>
        <mxCell id="SFiuBev3iB4snf8OV5Ck-281" value="d1" style="text;html=1;strokeColor=none;fillColor=none;align=center;verticalAlign=middle;whiteSpace=wrap;rounded=0;fontSize=18;" parent="1" vertex="1">
          <mxGeometry x="369.5" y="925" width="60" height="30" as="geometry" />
        </mxCell>
        <mxCell id="SFiuBev3iB4snf8OV5Ck-282" value="" style="shape=or;whiteSpace=wrap;html=1;fontSize=18;direction=north;" parent="1" vertex="1">
          <mxGeometry x="360" y="1055" width="35" height="20" as="geometry" />
        </mxCell>
        <mxCell id="SFiuBev3iB4snf8OV5Ck-283" style="edgeStyle=orthogonalEdgeStyle;rounded=0;orthogonalLoop=1;jettySize=auto;html=1;exitX=1;exitY=0.5;exitDx=0;exitDy=0;exitPerimeter=0;entryX=1;entryY=0.5;entryDx=0;entryDy=0;fontSize=18;" parent="1" source="SFiuBev3iB4snf8OV5Ck-285" target="SFiuBev3iB4snf8OV5Ck-253" edge="1">
          <mxGeometry relative="1" as="geometry" />
        </mxCell>
        <mxCell id="SFiuBev3iB4snf8OV5Ck-284" style="edgeStyle=orthogonalEdgeStyle;rounded=0;orthogonalLoop=1;jettySize=auto;html=1;exitX=1;exitY=0.5;exitDx=0;exitDy=0;exitPerimeter=0;entryX=1;entryY=0.5;entryDx=0;entryDy=0;entryPerimeter=0;strokeColor=#000000;fontSize=18;endArrow=classic;endFill=1;" parent="1" source="SFiuBev3iB4snf8OV5Ck-285" target="SFiuBev3iB4snf8OV5Ck-314" edge="1">
          <mxGeometry relative="1" as="geometry" />
        </mxCell>
        <mxCell id="SFiuBev3iB4snf8OV5Ck-285" value="" style="shape=or;whiteSpace=wrap;html=1;fontSize=18;direction=south;" parent="1" vertex="1">
          <mxGeometry x="360" y="1085" width="35" height="20" as="geometry" />
        </mxCell>
        <mxCell id="SFiuBev3iB4snf8OV5Ck-286" value="d2" style="text;html=1;strokeColor=none;fillColor=none;align=center;verticalAlign=middle;whiteSpace=wrap;rounded=0;fontSize=18;" parent="1" vertex="1">
          <mxGeometry x="368.5" y="1031" width="60" height="30" as="geometry" />
        </mxCell>
        <mxCell id="SFiuBev3iB4snf8OV5Ck-287" value="&lt;font style=&quot;font-size: 24px;&quot;&gt;x&lt;/font&gt;" style="ellipse;whiteSpace=wrap;html=1;aspect=fixed;" parent="1" vertex="1">
          <mxGeometry x="277.5" y="999" width="40" height="40" as="geometry" />
        </mxCell>
        <mxCell id="SFiuBev3iB4snf8OV5Ck-288" value="m2" style="text;html=1;strokeColor=none;fillColor=none;align=center;verticalAlign=middle;whiteSpace=wrap;rounded=0;fontSize=18;" parent="1" vertex="1">
          <mxGeometry x="233" y="982" width="60" height="30" as="geometry" />
        </mxCell>
        <mxCell id="SFiuBev3iB4snf8OV5Ck-289" value="" style="endArrow=none;html=1;rounded=0;fontSize=18;strokeColor=#FF3333;endFill=0;" parent="1" edge="1">
          <mxGeometry width="50" height="50" relative="1" as="geometry">
            <mxPoint x="330" y="1169" as="sourcePoint" />
            <mxPoint x="130" y="1169" as="targetPoint" />
          </mxGeometry>
        </mxCell>
        <mxCell id="SFiuBev3iB4snf8OV5Ck-290" value="" style="endArrow=none;html=1;rounded=0;fontSize=18;strokeColor=#FF3333;endFill=0;" parent="1" edge="1">
          <mxGeometry width="50" height="50" relative="1" as="geometry">
            <mxPoint x="130" y="1169" as="sourcePoint" />
            <mxPoint x="130" y="839" as="targetPoint" />
          </mxGeometry>
        </mxCell>
        <mxCell id="SFiuBev3iB4snf8OV5Ck-291" value="" style="endArrow=classic;html=1;rounded=0;fontSize=18;strokeColor=#FF3333;" parent="1" edge="1">
          <mxGeometry width="50" height="50" relative="1" as="geometry">
            <mxPoint x="130" y="839" as="sourcePoint" />
            <mxPoint x="490" y="839" as="targetPoint" />
          </mxGeometry>
        </mxCell>
        <mxCell id="SFiuBev3iB4snf8OV5Ck-292" value="" style="endArrow=none;html=1;rounded=0;fontSize=18;strokeColor=#FF3333;endFill=0;" parent="1" edge="1">
          <mxGeometry width="50" height="50" relative="1" as="geometry">
            <mxPoint x="330" y="979" as="sourcePoint" />
            <mxPoint x="130" y="978.7600000000002" as="targetPoint" />
          </mxGeometry>
        </mxCell>
        <mxCell id="SFiuBev3iB4snf8OV5Ck-302" value="d4" style="text;html=1;strokeColor=none;fillColor=none;align=center;verticalAlign=middle;whiteSpace=wrap;rounded=0;fontSize=18;" parent="1" vertex="1">
          <mxGeometry x="500" y="982" width="60" height="30" as="geometry" />
        </mxCell>
        <mxCell id="SFiuBev3iB4snf8OV5Ck-303" value="d5" style="text;html=1;strokeColor=none;fillColor=none;align=center;verticalAlign=middle;whiteSpace=wrap;rounded=0;fontSize=18;" parent="1" vertex="1">
          <mxGeometry x="500" y="1105" width="60" height="30" as="geometry" />
        </mxCell>
        <mxCell id="SFiuBev3iB4snf8OV5Ck-304" value="" style="endArrow=none;html=1;rounded=0;strokeColor=#FF3333;fontSize=18;endFill=0;" parent="1" edge="1">
          <mxGeometry width="50" height="50" relative="1" as="geometry">
            <mxPoint x="330" y="939" as="sourcePoint" />
            <mxPoint x="330" y="979" as="targetPoint" />
          </mxGeometry>
        </mxCell>
        <mxCell id="SFiuBev3iB4snf8OV5Ck-305" value="" style="endArrow=none;html=1;rounded=0;strokeColor=#FF3333;fontSize=18;endFill=0;" parent="1" edge="1">
          <mxGeometry width="50" height="50" relative="1" as="geometry">
            <mxPoint x="330" y="1059" as="sourcePoint" />
            <mxPoint x="330" y="1169" as="targetPoint" />
          </mxGeometry>
        </mxCell>
        <mxCell id="SFiuBev3iB4snf8OV5Ck-306" style="edgeStyle=orthogonalEdgeStyle;rounded=0;orthogonalLoop=1;jettySize=auto;html=1;exitX=1;exitY=0.5;exitDx=0;exitDy=0;exitPerimeter=0;entryX=0;entryY=0.5;entryDx=0;entryDy=0;strokeColor=#000000;fontSize=18;endArrow=classic;endFill=1;" parent="1" source="SFiuBev3iB4snf8OV5Ck-307" target="SFiuBev3iB4snf8OV5Ck-241" edge="1">
          <mxGeometry relative="1" as="geometry" />
        </mxCell>
        <mxCell id="SFiuBev3iB4snf8OV5Ck-307" value="" style="shape=or;whiteSpace=wrap;html=1;fontSize=18;direction=east;" parent="1" vertex="1">
          <mxGeometry x="500" y="881.5" width="20" height="35" as="geometry" />
        </mxCell>
        <mxCell id="SFiuBev3iB4snf8OV5Ck-308" value="" style="shape=or;whiteSpace=wrap;html=1;fontSize=18;direction=west;" parent="1" vertex="1">
          <mxGeometry x="472.5" y="881.5" width="20" height="35" as="geometry" />
        </mxCell>
        <mxCell id="SFiuBev3iB4snf8OV5Ck-309" style="edgeStyle=orthogonalEdgeStyle;rounded=0;orthogonalLoop=1;jettySize=auto;html=1;exitX=1;exitY=0.5;exitDx=0;exitDy=0;exitPerimeter=0;entryX=0;entryY=0.5;entryDx=0;entryDy=0;strokeColor=#000000;fontSize=18;endArrow=classic;endFill=1;" parent="1" source="SFiuBev3iB4snf8OV5Ck-310" target="SFiuBev3iB4snf8OV5Ck-249" edge="1">
          <mxGeometry relative="1" as="geometry" />
        </mxCell>
        <mxCell id="SFiuBev3iB4snf8OV5Ck-310" value="" style="shape=or;whiteSpace=wrap;html=1;fontSize=18;direction=east;" parent="1" vertex="1">
          <mxGeometry x="500" y="1001.5" width="20" height="35" as="geometry" />
        </mxCell>
        <mxCell id="SFiuBev3iB4snf8OV5Ck-311" value="" style="shape=or;whiteSpace=wrap;html=1;fontSize=18;direction=west;" parent="1" vertex="1">
          <mxGeometry x="472.5" y="1001.5" width="20" height="35" as="geometry" />
        </mxCell>
        <mxCell id="SFiuBev3iB4snf8OV5Ck-312" style="edgeStyle=orthogonalEdgeStyle;rounded=0;orthogonalLoop=1;jettySize=auto;html=1;exitX=1;exitY=0.5;exitDx=0;exitDy=0;exitPerimeter=0;entryX=0;entryY=0.5;entryDx=0;entryDy=0;strokeColor=#000000;fontSize=18;endArrow=classic;endFill=1;" parent="1" source="SFiuBev3iB4snf8OV5Ck-313" target="SFiuBev3iB4snf8OV5Ck-251" edge="1">
          <mxGeometry relative="1" as="geometry" />
        </mxCell>
        <mxCell id="SFiuBev3iB4snf8OV5Ck-313" value="" style="shape=or;whiteSpace=wrap;html=1;fontSize=18;direction=east;" parent="1" vertex="1">
          <mxGeometry x="500" y="1121.5" width="20" height="35" as="geometry" />
        </mxCell>
        <mxCell id="SFiuBev3iB4snf8OV5Ck-314" value="" style="shape=or;whiteSpace=wrap;html=1;fontSize=18;direction=west;" parent="1" vertex="1">
          <mxGeometry x="472.5" y="1121.5" width="20" height="35" as="geometry" />
        </mxCell>
        <mxCell id="SFiuBev3iB4snf8OV5Ck-315" value="d3" style="text;html=1;strokeColor=none;fillColor=none;align=center;verticalAlign=middle;whiteSpace=wrap;rounded=0;fontSize=18;" parent="1" vertex="1">
          <mxGeometry x="496" y="860" width="60" height="30" as="geometry" />
        </mxCell>
        <mxCell id="SFiuBev3iB4snf8OV5Ck-323" style="edgeStyle=orthogonalEdgeStyle;rounded=0;orthogonalLoop=1;jettySize=auto;html=1;exitX=1;exitY=0.5;exitDx=0;exitDy=0;entryX=1;entryY=0.5;entryDx=0;entryDy=0;entryPerimeter=0;strokeColor=#000000;fontSize=18;endArrow=classic;endFill=1;" parent="1" source="SFiuBev3iB4snf8OV5Ck-324" target="SFiuBev3iB4snf8OV5Ck-384" edge="1">
          <mxGeometry relative="1" as="geometry" />
        </mxCell>
        <mxCell id="SFiuBev3iB4snf8OV5Ck-324" value="&lt;font style=&quot;font-size: 24px;&quot;&gt;+&lt;/font&gt;" style="ellipse;whiteSpace=wrap;html=1;aspect=fixed;" parent="1" vertex="1">
          <mxGeometry x="159" y="1279" width="40" height="40" as="geometry" />
        </mxCell>
        <mxCell id="SFiuBev3iB4snf8OV5Ck-325" style="edgeStyle=orthogonalEdgeStyle;rounded=0;orthogonalLoop=1;jettySize=auto;html=1;exitX=1;exitY=0.5;exitDx=0;exitDy=0;entryX=0;entryY=0.5;entryDx=0;entryDy=0;strokeColor=#000000;fontSize=18;endArrow=classic;endFill=1;" parent="1" source="SFiuBev3iB4snf8OV5Ck-326" target="SFiuBev3iB4snf8OV5Ck-332" edge="1">
          <mxGeometry relative="1" as="geometry" />
        </mxCell>
        <mxCell id="SFiuBev3iB4snf8OV5Ck-326" value="&lt;font style=&quot;font-size: 24px;&quot;&gt;x&lt;/font&gt;" style="ellipse;whiteSpace=wrap;html=1;aspect=fixed;" parent="1" vertex="1">
          <mxGeometry x="600" y="1279" width="40" height="40" as="geometry" />
        </mxCell>
        <mxCell id="SFiuBev3iB4snf8OV5Ck-327" style="edgeStyle=orthogonalEdgeStyle;rounded=0;orthogonalLoop=1;jettySize=auto;html=1;exitX=0.5;exitY=0;exitDx=0;exitDy=0;entryX=0.5;entryY=1;entryDx=0;entryDy=0;fontSize=18;" parent="1" source="SFiuBev3iB4snf8OV5Ck-328" target="SFiuBev3iB4snf8OV5Ck-324" edge="1">
          <mxGeometry relative="1" as="geometry" />
        </mxCell>
        <mxCell id="SFiuBev3iB4snf8OV5Ck-328" value="&lt;font style=&quot;font-size: 24px;&quot;&gt;+&lt;/font&gt;" style="ellipse;whiteSpace=wrap;html=1;aspect=fixed;" parent="1" vertex="1">
          <mxGeometry x="159" y="1399" width="40" height="40" as="geometry" />
        </mxCell>
        <mxCell id="SFiuBev3iB4snf8OV5Ck-329" style="edgeStyle=orthogonalEdgeStyle;rounded=0;orthogonalLoop=1;jettySize=auto;html=1;exitX=0.5;exitY=0;exitDx=0;exitDy=0;entryX=0.5;entryY=1;entryDx=0;entryDy=0;fontSize=18;" parent="1" source="SFiuBev3iB4snf8OV5Ck-330" target="SFiuBev3iB4snf8OV5Ck-332" edge="1">
          <mxGeometry relative="1" as="geometry" />
        </mxCell>
        <mxCell id="SFiuBev3iB4snf8OV5Ck-330" value="&lt;font style=&quot;font-size: 24px;&quot;&gt;+&lt;/font&gt;" style="ellipse;whiteSpace=wrap;html=1;aspect=fixed;" parent="1" vertex="1">
          <mxGeometry x="705" y="1399" width="40" height="40" as="geometry" />
        </mxCell>
        <mxCell id="SFiuBev3iB4snf8OV5Ck-331" style="edgeStyle=orthogonalEdgeStyle;rounded=0;orthogonalLoop=1;jettySize=auto;html=1;exitX=1;exitY=0.5;exitDx=0;exitDy=0;entryX=1;entryY=0.5;entryDx=0;entryDy=0;entryPerimeter=0;fontSize=18;" parent="1" source="SFiuBev3iB4snf8OV5Ck-332" target="SFiuBev3iB4snf8OV5Ck-350" edge="1">
          <mxGeometry relative="1" as="geometry" />
        </mxCell>
        <mxCell id="SFiuBev3iB4snf8OV5Ck-332" value="&lt;font style=&quot;font-size: 24px;&quot;&gt;+&lt;/font&gt;" style="ellipse;whiteSpace=wrap;html=1;aspect=fixed;" parent="1" vertex="1">
          <mxGeometry x="705" y="1279" width="40" height="40" as="geometry" />
        </mxCell>
        <mxCell id="SFiuBev3iB4snf8OV5Ck-333" style="edgeStyle=orthogonalEdgeStyle;rounded=0;orthogonalLoop=1;jettySize=auto;html=1;exitX=1;exitY=0.5;exitDx=0;exitDy=0;entryX=0;entryY=0.5;entryDx=0;entryDy=0;strokeColor=#000000;fontSize=18;endArrow=classic;endFill=1;" parent="1" source="SFiuBev3iB4snf8OV5Ck-334" target="SFiuBev3iB4snf8OV5Ck-330" edge="1">
          <mxGeometry relative="1" as="geometry" />
        </mxCell>
        <mxCell id="SFiuBev3iB4snf8OV5Ck-334" value="&lt;font style=&quot;font-size: 24px;&quot;&gt;x&lt;/font&gt;" style="ellipse;whiteSpace=wrap;html=1;aspect=fixed;" parent="1" vertex="1">
          <mxGeometry x="600" y="1399" width="40" height="40" as="geometry" />
        </mxCell>
        <mxCell id="SFiuBev3iB4snf8OV5Ck-335" style="edgeStyle=orthogonalEdgeStyle;rounded=0;orthogonalLoop=1;jettySize=auto;html=1;exitX=1;exitY=0.5;exitDx=0;exitDy=0;entryX=0.5;entryY=1;entryDx=0;entryDy=0;strokeColor=#000000;fontSize=18;endArrow=classic;endFill=1;" parent="1" source="SFiuBev3iB4snf8OV5Ck-336" target="SFiuBev3iB4snf8OV5Ck-330" edge="1">
          <mxGeometry relative="1" as="geometry" />
        </mxCell>
        <mxCell id="SFiuBev3iB4snf8OV5Ck-336" value="&lt;font style=&quot;font-size: 24px;&quot;&gt;x&lt;/font&gt;" style="ellipse;whiteSpace=wrap;html=1;aspect=fixed;" parent="1" vertex="1">
          <mxGeometry x="600" y="1519" width="40" height="40" as="geometry" />
        </mxCell>
        <mxCell id="SFiuBev3iB4snf8OV5Ck-337" style="edgeStyle=orthogonalEdgeStyle;rounded=0;orthogonalLoop=1;jettySize=auto;html=1;exitX=0;exitY=0.5;exitDx=0;exitDy=0;entryX=0.5;entryY=1;entryDx=0;entryDy=0;fontSize=18;" parent="1" source="SFiuBev3iB4snf8OV5Ck-338" target="SFiuBev3iB4snf8OV5Ck-328" edge="1">
          <mxGeometry relative="1" as="geometry" />
        </mxCell>
        <mxCell id="SFiuBev3iB4snf8OV5Ck-338" value="&lt;font style=&quot;font-size: 24px;&quot;&gt;x&lt;/font&gt;" style="ellipse;whiteSpace=wrap;html=1;aspect=fixed;" parent="1" vertex="1">
          <mxGeometry x="277.5" y="1519" width="40" height="40" as="geometry" />
        </mxCell>
        <mxCell id="SFiuBev3iB4snf8OV5Ck-339" style="edgeStyle=orthogonalEdgeStyle;rounded=0;orthogonalLoop=1;jettySize=auto;html=1;exitX=0;exitY=0.5;exitDx=0;exitDy=0;entryX=1;entryY=0.5;entryDx=0;entryDy=0;fontSize=18;" parent="1" source="SFiuBev3iB4snf8OV5Ck-372" target="SFiuBev3iB4snf8OV5Ck-328" edge="1">
          <mxGeometry relative="1" as="geometry" />
        </mxCell>
        <mxCell id="SFiuBev3iB4snf8OV5Ck-340" style="edgeStyle=orthogonalEdgeStyle;rounded=0;orthogonalLoop=1;jettySize=auto;html=1;exitX=1;exitY=0.5;exitDx=0;exitDy=0;exitPerimeter=0;entryX=0.5;entryY=0;entryDx=0;entryDy=0;fontSize=18;" parent="1" source="SFiuBev3iB4snf8OV5Ck-341" target="SFiuBev3iB4snf8OV5Ck-372" edge="1">
          <mxGeometry relative="1" as="geometry" />
        </mxCell>
        <mxCell id="SFiuBev3iB4snf8OV5Ck-341" value="&lt;font style=&quot;font-size: 18px;&quot;&gt;A1&lt;/font&gt;" style="shape=or;whiteSpace=wrap;html=1;fontSize=12;direction=south;" parent="1" vertex="1">
          <mxGeometry x="277.5" y="1339" width="40" height="30" as="geometry" />
        </mxCell>
        <mxCell id="SFiuBev3iB4snf8OV5Ck-342" style="edgeStyle=orthogonalEdgeStyle;rounded=0;orthogonalLoop=1;jettySize=auto;html=1;exitX=1;exitY=0.5;exitDx=0;exitDy=0;exitPerimeter=0;entryX=0.5;entryY=0;entryDx=0;entryDy=0;fontSize=18;" parent="1" source="SFiuBev3iB4snf8OV5Ck-343" target="SFiuBev3iB4snf8OV5Ck-338" edge="1">
          <mxGeometry relative="1" as="geometry" />
        </mxCell>
        <mxCell id="SFiuBev3iB4snf8OV5Ck-343" value="&lt;font style=&quot;font-size: 18px;&quot;&gt;A2&lt;/font&gt;" style="shape=or;whiteSpace=wrap;html=1;fontSize=12;direction=south;" parent="1" vertex="1">
          <mxGeometry x="277.5" y="1461" width="40" height="30" as="geometry" />
        </mxCell>
        <mxCell id="SFiuBev3iB4snf8OV5Ck-344" style="edgeStyle=orthogonalEdgeStyle;rounded=0;orthogonalLoop=1;jettySize=auto;html=1;exitX=1;exitY=0.5;exitDx=0;exitDy=0;exitPerimeter=0;entryX=0.5;entryY=0;entryDx=0;entryDy=0;fontSize=18;" parent="1" source="SFiuBev3iB4snf8OV5Ck-345" target="SFiuBev3iB4snf8OV5Ck-336" edge="1">
          <mxGeometry relative="1" as="geometry" />
        </mxCell>
        <mxCell id="SFiuBev3iB4snf8OV5Ck-345" value="&lt;font style=&quot;font-size: 18px;&quot;&gt;B2&lt;/font&gt;" style="shape=or;whiteSpace=wrap;html=1;fontSize=12;direction=south;" parent="1" vertex="1">
          <mxGeometry x="600" y="1461" width="40" height="30" as="geometry" />
        </mxCell>
        <mxCell id="SFiuBev3iB4snf8OV5Ck-346" style="edgeStyle=orthogonalEdgeStyle;rounded=0;orthogonalLoop=1;jettySize=auto;html=1;exitX=1;exitY=0.5;exitDx=0;exitDy=0;exitPerimeter=0;entryX=0.5;entryY=0;entryDx=0;entryDy=0;fontSize=18;" parent="1" source="SFiuBev3iB4snf8OV5Ck-347" target="SFiuBev3iB4snf8OV5Ck-334" edge="1">
          <mxGeometry relative="1" as="geometry" />
        </mxCell>
        <mxCell id="SFiuBev3iB4snf8OV5Ck-347" value="&lt;font style=&quot;font-size: 18px;&quot;&gt;B1&lt;/font&gt;" style="shape=or;whiteSpace=wrap;html=1;fontSize=12;direction=south;" parent="1" vertex="1">
          <mxGeometry x="600" y="1339" width="40" height="30" as="geometry" />
        </mxCell>
        <mxCell id="SFiuBev3iB4snf8OV5Ck-348" style="edgeStyle=orthogonalEdgeStyle;rounded=0;orthogonalLoop=1;jettySize=auto;html=1;exitX=1;exitY=0.5;exitDx=0;exitDy=0;exitPerimeter=0;entryX=0.5;entryY=0;entryDx=0;entryDy=0;fontSize=18;" parent="1" source="SFiuBev3iB4snf8OV5Ck-349" target="SFiuBev3iB4snf8OV5Ck-326" edge="1">
          <mxGeometry relative="1" as="geometry" />
        </mxCell>
        <mxCell id="SFiuBev3iB4snf8OV5Ck-349" value="&lt;font style=&quot;font-size: 18px;&quot;&gt;B0&lt;/font&gt;" style="shape=or;whiteSpace=wrap;html=1;fontSize=12;direction=south;" parent="1" vertex="1">
          <mxGeometry x="600" y="1230" width="40" height="30" as="geometry" />
        </mxCell>
        <mxCell id="SFiuBev3iB4snf8OV5Ck-350" value="&lt;font style=&quot;font-size: 18px;&quot;&gt;Yn&lt;/font&gt;" style="shape=or;whiteSpace=wrap;html=1;fontSize=12;direction=west;" parent="1" vertex="1">
          <mxGeometry x="780" y="1279" width="30" height="40" as="geometry" />
        </mxCell>
        <mxCell id="SFiuBev3iB4snf8OV5Ck-351" style="edgeStyle=orthogonalEdgeStyle;rounded=0;orthogonalLoop=1;jettySize=auto;html=1;exitX=1;exitY=0.5;exitDx=0;exitDy=0;exitPerimeter=0;entryX=0;entryY=0.5;entryDx=0;entryDy=0;fontSize=18;" parent="1" source="SFiuBev3iB4snf8OV5Ck-352" target="SFiuBev3iB4snf8OV5Ck-324" edge="1">
          <mxGeometry relative="1" as="geometry" />
        </mxCell>
        <mxCell id="SFiuBev3iB4snf8OV5Ck-352" value="&lt;font style=&quot;font-size: 18px;&quot;&gt;Xn&lt;/font&gt;" style="shape=or;whiteSpace=wrap;html=1;fontSize=12;direction=east;" parent="1" vertex="1">
          <mxGeometry x="80" y="1279" width="30" height="40" as="geometry" />
        </mxCell>
        <mxCell id="SFiuBev3iB4snf8OV5Ck-353" value="p1" style="text;html=1;strokeColor=none;fillColor=none;align=center;verticalAlign=middle;whiteSpace=wrap;rounded=0;fontSize=18;" parent="1" vertex="1">
          <mxGeometry x="179" y="1258" width="60" height="30" as="geometry" />
        </mxCell>
        <mxCell id="SFiuBev3iB4snf8OV5Ck-354" value="p3" style="text;html=1;strokeColor=none;fillColor=none;align=center;verticalAlign=middle;whiteSpace=wrap;rounded=0;fontSize=18;" parent="1" vertex="1">
          <mxGeometry x="181" y="1384" width="60" height="30" as="geometry" />
        </mxCell>
        <mxCell id="SFiuBev3iB4snf8OV5Ck-355" value="m4" style="text;html=1;strokeColor=none;fillColor=none;align=center;verticalAlign=middle;whiteSpace=wrap;rounded=0;fontSize=18;" parent="1" vertex="1">
          <mxGeometry x="230" y="1499" width="60" height="30" as="geometry" />
        </mxCell>
        <mxCell id="SFiuBev3iB4snf8OV5Ck-356" value="m3" style="text;html=1;strokeColor=none;fillColor=none;align=center;verticalAlign=middle;whiteSpace=wrap;rounded=0;fontSize=18;" parent="1" vertex="1">
          <mxGeometry x="560" y="1379" width="60" height="30" as="geometry" />
        </mxCell>
        <mxCell id="SFiuBev3iB4snf8OV5Ck-357" value="m5" style="text;html=1;strokeColor=none;fillColor=none;align=center;verticalAlign=middle;whiteSpace=wrap;rounded=0;fontSize=18;" parent="1" vertex="1">
          <mxGeometry x="557" y="1500" width="60" height="30" as="geometry" />
        </mxCell>
        <mxCell id="SFiuBev3iB4snf8OV5Ck-358" value="p4" style="text;html=1;strokeColor=none;fillColor=none;align=center;verticalAlign=middle;whiteSpace=wrap;rounded=0;fontSize=18;" parent="1" vertex="1">
          <mxGeometry x="670" y="1379" width="60" height="30" as="geometry" />
        </mxCell>
        <mxCell id="SFiuBev3iB4snf8OV5Ck-359" value="p2" style="text;html=1;strokeColor=none;fillColor=none;align=center;verticalAlign=middle;whiteSpace=wrap;rounded=0;fontSize=18;" parent="1" vertex="1">
          <mxGeometry x="680" y="1252" width="60" height="30" as="geometry" />
        </mxCell>
        <mxCell id="SFiuBev3iB4snf8OV5Ck-360" value="m1" style="text;html=1;strokeColor=none;fillColor=none;align=center;verticalAlign=middle;whiteSpace=wrap;rounded=0;fontSize=18;" parent="1" vertex="1">
          <mxGeometry x="560" y="1259" width="60" height="30" as="geometry" />
        </mxCell>
        <mxCell id="SFiuBev3iB4snf8OV5Ck-371" value="d2" style="text;html=1;strokeColor=none;fillColor=none;align=center;verticalAlign=middle;whiteSpace=wrap;rounded=0;fontSize=18;" parent="1" vertex="1">
          <mxGeometry x="463.5" y="1330" width="41.5" height="30" as="geometry" />
        </mxCell>
        <mxCell id="SFiuBev3iB4snf8OV5Ck-372" value="&lt;font style=&quot;font-size: 24px;&quot;&gt;x&lt;/font&gt;" style="ellipse;whiteSpace=wrap;html=1;aspect=fixed;" parent="1" vertex="1">
          <mxGeometry x="277.5" y="1399" width="40" height="40" as="geometry" />
        </mxCell>
        <mxCell id="SFiuBev3iB4snf8OV5Ck-373" value="m2" style="text;html=1;strokeColor=none;fillColor=none;align=center;verticalAlign=middle;whiteSpace=wrap;rounded=0;fontSize=18;" parent="1" vertex="1">
          <mxGeometry x="233" y="1382" width="60" height="30" as="geometry" />
        </mxCell>
        <mxCell id="SFiuBev3iB4snf8OV5Ck-374" value="" style="endArrow=none;html=1;rounded=0;fontSize=18;strokeColor=#FF3333;endFill=0;" parent="1" edge="1">
          <mxGeometry width="50" height="50" relative="1" as="geometry">
            <mxPoint x="330" y="1569" as="sourcePoint" />
            <mxPoint x="130" y="1569" as="targetPoint" />
          </mxGeometry>
        </mxCell>
        <mxCell id="SFiuBev3iB4snf8OV5Ck-375" value="" style="endArrow=none;html=1;rounded=0;fontSize=18;strokeColor=#FF3333;endFill=0;" parent="1" edge="1">
          <mxGeometry width="50" height="50" relative="1" as="geometry">
            <mxPoint x="130" y="1569" as="sourcePoint" />
            <mxPoint x="130" y="1258" as="targetPoint" />
          </mxGeometry>
        </mxCell>
        <mxCell id="SFiuBev3iB4snf8OV5Ck-376" value="" style="endArrow=classic;html=1;rounded=0;fontSize=18;strokeColor=#FF3333;" parent="1" edge="1">
          <mxGeometry width="50" height="50" relative="1" as="geometry">
            <mxPoint x="130" y="1258" as="sourcePoint" />
            <mxPoint x="350" y="1259" as="targetPoint" />
          </mxGeometry>
        </mxCell>
        <mxCell id="SFiuBev3iB4snf8OV5Ck-377" value="" style="endArrow=none;html=1;rounded=0;fontSize=18;strokeColor=#FFCC99;endFill=0;" parent="1" edge="1">
          <mxGeometry width="50" height="50" relative="1" as="geometry">
            <mxPoint x="330" y="1379" as="sourcePoint" />
            <mxPoint x="130" y="1378.7600000000002" as="targetPoint" />
          </mxGeometry>
        </mxCell>
        <mxCell id="SFiuBev3iB4snf8OV5Ck-379" value="d5" style="text;html=1;strokeColor=none;fillColor=none;align=center;verticalAlign=middle;whiteSpace=wrap;rounded=0;fontSize=18;" parent="1" vertex="1">
          <mxGeometry x="448.5" y="1439" width="60" height="30" as="geometry" />
        </mxCell>
        <mxCell id="SFiuBev3iB4snf8OV5Ck-380" value="" style="endArrow=none;html=1;rounded=0;strokeColor=#FFCC99;fontSize=18;endFill=0;" parent="1" edge="1">
          <mxGeometry width="50" height="50" relative="1" as="geometry">
            <mxPoint x="330" y="1339" as="sourcePoint" />
            <mxPoint x="330" y="1379" as="targetPoint" />
          </mxGeometry>
        </mxCell>
        <mxCell id="SFiuBev3iB4snf8OV5Ck-381" value="" style="endArrow=none;html=1;rounded=0;strokeColor=#FF3333;fontSize=18;endFill=0;" parent="1" edge="1">
          <mxGeometry width="50" height="50" relative="1" as="geometry">
            <mxPoint x="330" y="1459" as="sourcePoint" />
            <mxPoint x="330" y="1569" as="targetPoint" />
          </mxGeometry>
        </mxCell>
        <mxCell id="SFiuBev3iB4snf8OV5Ck-400" style="edgeStyle=orthogonalEdgeStyle;rounded=0;orthogonalLoop=1;jettySize=auto;html=1;exitX=1;exitY=0.5;exitDx=0;exitDy=0;exitPerimeter=0;entryX=0;entryY=0.5;entryDx=0;entryDy=0;strokeColor=#000000;fontSize=18;endArrow=classic;endFill=1;" parent="1" source="SFiuBev3iB4snf8OV5Ck-383" target="SFiuBev3iB4snf8OV5Ck-326" edge="1">
          <mxGeometry relative="1" as="geometry" />
        </mxCell>
        <mxCell id="SFiuBev3iB4snf8OV5Ck-411" style="edgeStyle=orthogonalEdgeStyle;rounded=0;orthogonalLoop=1;jettySize=auto;html=1;exitX=1;exitY=0.5;exitDx=0;exitDy=0;exitPerimeter=0;entryX=1;entryY=0.5;entryDx=0;entryDy=0;strokeColor=#000000;fontSize=18;endArrow=classic;endFill=1;" parent="1" source="SFiuBev3iB4snf8OV5Ck-383" target="SFiuBev3iB4snf8OV5Ck-372" edge="1">
          <mxGeometry relative="1" as="geometry" />
        </mxCell>
        <mxCell id="SFiuBev3iB4snf8OV5Ck-428" style="edgeStyle=orthogonalEdgeStyle;rounded=0;orthogonalLoop=1;jettySize=auto;html=1;exitX=1;exitY=0.5;exitDx=0;exitDy=0;exitPerimeter=0;entryX=1;entryY=0.5;entryDx=0;entryDy=0;entryPerimeter=0;strokeColor=#000000;fontSize=18;endArrow=classic;endFill=1;" parent="1" source="SFiuBev3iB4snf8OV5Ck-383" target="SFiuBev3iB4snf8OV5Ck-419" edge="1">
          <mxGeometry relative="1" as="geometry" />
        </mxCell>
        <mxCell id="SFiuBev3iB4snf8OV5Ck-383" value="" style="shape=or;whiteSpace=wrap;html=1;fontSize=18;direction=east;" parent="1" vertex="1">
          <mxGeometry x="357.5" y="1281.5" width="20" height="35" as="geometry" />
        </mxCell>
        <mxCell id="SFiuBev3iB4snf8OV5Ck-384" value="" style="shape=or;whiteSpace=wrap;html=1;fontSize=18;direction=west;" parent="1" vertex="1">
          <mxGeometry x="330" y="1281.5" width="20" height="35" as="geometry" />
        </mxCell>
        <mxCell id="SFiuBev3iB4snf8OV5Ck-391" value="d1" style="text;html=1;strokeColor=none;fillColor=none;align=center;verticalAlign=middle;whiteSpace=wrap;rounded=0;fontSize=18;" parent="1" vertex="1">
          <mxGeometry x="353.5" y="1260" width="60" height="30" as="geometry" />
        </mxCell>
        <mxCell id="SFiuBev3iB4snf8OV5Ck-402" value="Cutlines" style="text;html=1;strokeColor=none;fillColor=none;align=center;verticalAlign=middle;whiteSpace=wrap;rounded=0;fontSize=18;" parent="1" vertex="1">
          <mxGeometry x="65" width="60" height="30" as="geometry" />
        </mxCell>
        <mxCell id="SFiuBev3iB4snf8OV5Ck-403" value="Pipelining" style="text;html=1;strokeColor=none;fillColor=none;align=center;verticalAlign=middle;whiteSpace=wrap;rounded=0;fontSize=18;" parent="1" vertex="1">
          <mxGeometry x="60" y="390" width="60" height="30" as="geometry" />
        </mxCell>
        <mxCell id="SFiuBev3iB4snf8OV5Ck-404" value="Pipelining optimized" style="text;html=1;strokeColor=none;fillColor=none;align=center;verticalAlign=middle;whiteSpace=wrap;rounded=0;fontSize=18;" parent="1" vertex="1">
          <mxGeometry x="50" y="800" width="170" height="30" as="geometry" />
        </mxCell>
        <mxCell id="SFiuBev3iB4snf8OV5Ck-405" value="Retiming" style="text;html=1;strokeColor=none;fillColor=none;align=center;verticalAlign=middle;whiteSpace=wrap;rounded=0;fontSize=18;" parent="1" vertex="1">
          <mxGeometry x="50" y="1210" width="170" height="30" as="geometry" />
        </mxCell>
        <mxCell id="SFiuBev3iB4snf8OV5Ck-419" value="" style="shape=or;whiteSpace=wrap;html=1;fontSize=18;direction=north;" parent="1" vertex="1">
          <mxGeometry x="428.5" y="1340" width="35" height="20" as="geometry" />
        </mxCell>
        <mxCell id="SFiuBev3iB4snf8OV5Ck-424" style="edgeStyle=orthogonalEdgeStyle;rounded=0;orthogonalLoop=1;jettySize=auto;html=1;exitX=1;exitY=0.5;exitDx=0;exitDy=0;exitPerimeter=0;entryX=0;entryY=0.5;entryDx=0;entryDy=0;strokeColor=#000000;fontSize=18;endArrow=classic;endFill=1;" parent="1" source="SFiuBev3iB4snf8OV5Ck-420" target="SFiuBev3iB4snf8OV5Ck-334" edge="1">
          <mxGeometry relative="1" as="geometry" />
        </mxCell>
        <mxCell id="SFiuBev3iB4snf8OV5Ck-426" style="edgeStyle=orthogonalEdgeStyle;rounded=0;orthogonalLoop=1;jettySize=auto;html=1;exitX=1;exitY=0.5;exitDx=0;exitDy=0;exitPerimeter=0;entryX=1;entryY=0.5;entryDx=0;entryDy=0;entryPerimeter=0;strokeColor=#000000;fontSize=18;endArrow=classic;endFill=1;startArrow=none;" parent="1" source="z6XoOkhh64CYO0EV13tD-4" target="SFiuBev3iB4snf8OV5Ck-421" edge="1">
          <mxGeometry relative="1" as="geometry" />
        </mxCell>
        <mxCell id="SFiuBev3iB4snf8OV5Ck-429" style="edgeStyle=orthogonalEdgeStyle;rounded=0;orthogonalLoop=1;jettySize=auto;html=1;exitX=1;exitY=0.5;exitDx=0;exitDy=0;exitPerimeter=0;entryX=1;entryY=0.5;entryDx=0;entryDy=0;strokeColor=#000000;fontSize=18;endArrow=classic;endFill=1;startArrow=none;" parent="1" source="z6XoOkhh64CYO0EV13tD-4" target="SFiuBev3iB4snf8OV5Ck-338" edge="1">
          <mxGeometry relative="1" as="geometry">
            <Array as="points">
              <mxPoint x="446" y="1419" />
              <mxPoint x="410" y="1419" />
              <mxPoint x="410" y="1539" />
            </Array>
            <mxPoint x="448" y="1419" as="sourcePoint" />
          </mxGeometry>
        </mxCell>
        <mxCell id="SFiuBev3iB4snf8OV5Ck-420" value="" style="shape=or;whiteSpace=wrap;html=1;fontSize=18;direction=south;" parent="1" vertex="1">
          <mxGeometry x="428.5" y="1370" width="35" height="20" as="geometry" />
        </mxCell>
        <mxCell id="SFiuBev3iB4snf8OV5Ck-421" value="" style="shape=or;whiteSpace=wrap;html=1;fontSize=18;direction=north;" parent="1" vertex="1">
          <mxGeometry x="428.5" y="1455" width="35" height="20" as="geometry" />
        </mxCell>
        <mxCell id="SFiuBev3iB4snf8OV5Ck-423" style="edgeStyle=orthogonalEdgeStyle;rounded=0;orthogonalLoop=1;jettySize=auto;html=1;exitX=1;exitY=0.5;exitDx=0;exitDy=0;exitPerimeter=0;entryX=0;entryY=0.5;entryDx=0;entryDy=0;strokeColor=#000000;fontSize=18;endArrow=classic;endFill=1;" parent="1" source="SFiuBev3iB4snf8OV5Ck-422" target="SFiuBev3iB4snf8OV5Ck-336" edge="1">
          <mxGeometry relative="1" as="geometry" />
        </mxCell>
        <mxCell id="SFiuBev3iB4snf8OV5Ck-422" value="" style="shape=or;whiteSpace=wrap;html=1;fontSize=18;direction=south;" parent="1" vertex="1">
          <mxGeometry x="428.5" y="1485" width="35" height="20" as="geometry" />
        </mxCell>
        <mxCell id="z6XoOkhh64CYO0EV13tD-4" value="" style="ellipse;whiteSpace=wrap;html=1;aspect=fixed;" parent="1" vertex="1">
          <mxGeometry x="443.75" y="1416.75" width="4.5" height="4.5" as="geometry" />
        </mxCell>
      </root>
    </mxGraphModel>
  </diagram>
  <diagram id="Iu27wxcMFhOp68p3I6Ue" name="Schedule">
    <mxGraphModel dx="529" dy="309" grid="1" gridSize="10" guides="1" tooltips="1" connect="1" arrows="1" fold="1" page="1" pageScale="1" pageWidth="850" pageHeight="1100" math="0" shadow="0">
      <root>
        <mxCell id="0" />
        <mxCell id="1" parent="0" />
        <mxCell id="X00ZaxmRfJnHzRFSlBGA-11" value="" style="rounded=0;whiteSpace=wrap;html=1;fillColor=#000000;fillStyle=hatch;" parent="1" vertex="1">
          <mxGeometry x="199.69" y="520" width="240" height="30" as="geometry" />
        </mxCell>
        <mxCell id="X00ZaxmRfJnHzRFSlBGA-12" value="" style="rounded=0;whiteSpace=wrap;html=1;fillColor=#000000;fillStyle=hatch;" parent="1" vertex="1">
          <mxGeometry x="200.31" y="560" width="240" height="30" as="geometry" />
        </mxCell>
        <mxCell id="X00ZaxmRfJnHzRFSlBGA-13" value="" style="rounded=0;whiteSpace=wrap;html=1;fillColor=#000000;fillStyle=hatch;" parent="1" vertex="1">
          <mxGeometry x="200.31" y="600" width="240" height="30" as="geometry" />
        </mxCell>
        <mxCell id="X00ZaxmRfJnHzRFSlBGA-14" value="" style="rounded=0;whiteSpace=wrap;html=1;fillColor=#000000;fillStyle=hatch;" parent="1" vertex="1">
          <mxGeometry x="200.31" y="640" width="240" height="30" as="geometry" />
        </mxCell>
        <mxCell id="m2qjnk-wkHwTrVjLnDva-1" value="X" style="rounded=0;whiteSpace=wrap;html=1;" parent="1" vertex="1">
          <mxGeometry x="40" y="40" width="40" height="30" as="geometry" />
        </mxCell>
        <mxCell id="m2qjnk-wkHwTrVjLnDva-2" value="X" style="rounded=0;whiteSpace=wrap;html=1;" parent="1" vertex="1">
          <mxGeometry x="40" y="80" width="40" height="30" as="geometry" />
        </mxCell>
        <mxCell id="m2qjnk-wkHwTrVjLnDva-3" value="X" style="rounded=0;whiteSpace=wrap;html=1;" parent="1" vertex="1">
          <mxGeometry x="40" y="120" width="40" height="30" as="geometry" />
        </mxCell>
        <mxCell id="m2qjnk-wkHwTrVjLnDva-4" value="X" style="rounded=0;whiteSpace=wrap;html=1;" parent="1" vertex="1">
          <mxGeometry x="40" y="160" width="40" height="30" as="geometry" />
        </mxCell>
        <mxCell id="m2qjnk-wkHwTrVjLnDva-5" value="X" style="rounded=0;whiteSpace=wrap;html=1;" parent="1" vertex="1">
          <mxGeometry x="40" y="200" width="40" height="30" as="geometry" />
        </mxCell>
        <mxCell id="m2qjnk-wkHwTrVjLnDva-6" value="&lt;font style=&quot;font-size: 20px;&quot;&gt;+&lt;/font&gt;" style="rounded=0;whiteSpace=wrap;html=1;" parent="1" vertex="1">
          <mxGeometry x="40" y="240" width="40" height="30" as="geometry" />
        </mxCell>
        <mxCell id="m2qjnk-wkHwTrVjLnDva-7" value="&lt;font style=&quot;font-size: 20px;&quot;&gt;+&lt;/font&gt;" style="rounded=0;whiteSpace=wrap;html=1;" parent="1" vertex="1">
          <mxGeometry x="40" y="280" width="40" height="30" as="geometry" />
        </mxCell>
        <mxCell id="m2qjnk-wkHwTrVjLnDva-8" value="&lt;font style=&quot;font-size: 20px;&quot;&gt;+&lt;/font&gt;" style="rounded=0;whiteSpace=wrap;html=1;" parent="1" vertex="1">
          <mxGeometry x="40" y="320" width="40" height="30" as="geometry" />
        </mxCell>
        <mxCell id="m2qjnk-wkHwTrVjLnDva-9" value="&lt;font style=&quot;font-size: 20px;&quot;&gt;+&lt;/font&gt;" style="rounded=0;whiteSpace=wrap;html=1;" parent="1" vertex="1">
          <mxGeometry x="40" y="360" width="40" height="30" as="geometry" />
        </mxCell>
        <mxCell id="m2qjnk-wkHwTrVjLnDva-10" value="m2&lt;br&gt;[n]" style="rounded=0;whiteSpace=wrap;html=1;" parent="1" vertex="1">
          <mxGeometry x="120" y="80" width="80" height="30" as="geometry" />
        </mxCell>
        <mxCell id="m2qjnk-wkHwTrVjLnDva-11" value="p3&lt;br&gt;[n]" style="rounded=0;whiteSpace=wrap;html=1;" parent="1" vertex="1">
          <mxGeometry x="200" y="320" width="40" height="30" as="geometry" />
        </mxCell>
        <mxCell id="m2qjnk-wkHwTrVjLnDva-13" value="p1[n]" style="rounded=0;whiteSpace=wrap;html=1;" parent="1" vertex="1">
          <mxGeometry x="240" y="240" width="40" height="30" as="geometry" />
        </mxCell>
        <mxCell id="m2qjnk-wkHwTrVjLnDva-14" value="m1&lt;br&gt;[n-1]" style="rounded=0;whiteSpace=wrap;html=1;" parent="1" vertex="1">
          <mxGeometry x="120" y="40" width="80" height="30" as="geometry" />
        </mxCell>
        <mxCell id="m2qjnk-wkHwTrVjLnDva-15" value="p2&lt;br&gt;[n-1]" style="rounded=0;whiteSpace=wrap;html=1;" parent="1" vertex="1">
          <mxGeometry x="240" y="280" width="40" height="30" as="geometry" />
        </mxCell>
        <mxCell id="m2qjnk-wkHwTrVjLnDva-16" value="m5&lt;br&gt;[n-1]" style="rounded=0;whiteSpace=wrap;html=1;" parent="1" vertex="1">
          <mxGeometry x="120" y="200" width="80" height="30" as="geometry" />
        </mxCell>
        <mxCell id="m2qjnk-wkHwTrVjLnDva-17" value="p4&lt;br&gt;[n-1]" style="rounded=0;whiteSpace=wrap;html=1;" parent="1" vertex="1">
          <mxGeometry x="200" y="360" width="40" height="30" as="geometry" />
        </mxCell>
        <mxCell id="m2qjnk-wkHwTrVjLnDva-18" value="" style="rounded=0;whiteSpace=wrap;html=1;fillColor=#000000;fillStyle=hatch;" parent="1" vertex="1">
          <mxGeometry x="240" y="360" width="200" height="30" as="geometry" />
        </mxCell>
        <mxCell id="m2qjnk-wkHwTrVjLnDva-19" value="m4&lt;br&gt;[n]" style="rounded=0;whiteSpace=wrap;html=1;" parent="1" vertex="1">
          <mxGeometry x="120" y="120" width="80" height="30" as="geometry" />
        </mxCell>
        <mxCell id="m2qjnk-wkHwTrVjLnDva-20" value="m3&lt;br&gt;[n-1]" style="rounded=0;whiteSpace=wrap;html=1;" parent="1" vertex="1">
          <mxGeometry x="120" y="160" width="80" height="30" as="geometry" />
        </mxCell>
        <mxCell id="m2qjnk-wkHwTrVjLnDva-21" value="" style="rounded=0;whiteSpace=wrap;html=1;fillColor=#000000;fillStyle=hatch;" parent="1" vertex="1">
          <mxGeometry x="200" y="80" width="240" height="30" as="geometry" />
        </mxCell>
        <mxCell id="m2qjnk-wkHwTrVjLnDva-22" value="" style="rounded=0;whiteSpace=wrap;html=1;fillColor=#000000;fillStyle=hatch;" parent="1" vertex="1">
          <mxGeometry x="200" y="120" width="240" height="30" as="geometry" />
        </mxCell>
        <mxCell id="m2qjnk-wkHwTrVjLnDva-23" value="" style="rounded=0;whiteSpace=wrap;html=1;fillColor=#000000;fillStyle=hatch;" parent="1" vertex="1">
          <mxGeometry x="200" y="160" width="240" height="30" as="geometry" />
        </mxCell>
        <mxCell id="m2qjnk-wkHwTrVjLnDva-24" value="" style="rounded=0;whiteSpace=wrap;html=1;fillColor=#000000;fillStyle=hatch;" parent="1" vertex="1">
          <mxGeometry x="200" y="200" width="240" height="30" as="geometry" />
        </mxCell>
        <mxCell id="m2qjnk-wkHwTrVjLnDva-25" value="" style="rounded=0;whiteSpace=wrap;html=1;fillColor=#000000;fillStyle=hatch;" parent="1" vertex="1">
          <mxGeometry x="120" y="240" width="120" height="30" as="geometry" />
        </mxCell>
        <mxCell id="m2qjnk-wkHwTrVjLnDva-26" value="" style="rounded=0;whiteSpace=wrap;html=1;fillColor=#000000;fillStyle=hatch;" parent="1" vertex="1">
          <mxGeometry x="280" y="240" width="120" height="30" as="geometry" />
        </mxCell>
        <mxCell id="m2qjnk-wkHwTrVjLnDva-27" value="" style="rounded=0;whiteSpace=wrap;html=1;fillColor=#000000;fillStyle=hatch;" parent="1" vertex="1">
          <mxGeometry x="120" y="280" width="120" height="30" as="geometry" />
        </mxCell>
        <mxCell id="m2qjnk-wkHwTrVjLnDva-28" value="" style="rounded=0;whiteSpace=wrap;html=1;fillColor=#000000;fillStyle=hatch;" parent="1" vertex="1">
          <mxGeometry x="240" y="320" width="200" height="30" as="geometry" />
        </mxCell>
        <mxCell id="m2qjnk-wkHwTrVjLnDva-29" value="" style="rounded=0;whiteSpace=wrap;html=1;fillColor=#000000;fillStyle=hatch;" parent="1" vertex="1">
          <mxGeometry x="120" y="320" width="80" height="30" as="geometry" />
        </mxCell>
        <mxCell id="m2qjnk-wkHwTrVjLnDva-30" value="" style="rounded=0;whiteSpace=wrap;html=1;fillColor=#000000;fillStyle=hatch;" parent="1" vertex="1">
          <mxGeometry x="200" y="40" width="240" height="30" as="geometry" />
        </mxCell>
        <mxCell id="m2qjnk-wkHwTrVjLnDva-31" value="" style="rounded=0;whiteSpace=wrap;html=1;fillColor=#000000;fillStyle=hatch;" parent="1" vertex="1">
          <mxGeometry x="120" y="360" width="80" height="30" as="geometry" />
        </mxCell>
        <mxCell id="m2qjnk-wkHwTrVjLnDva-94" value="&lt;b&gt;&lt;font style=&quot;font-size: 30px;&quot;&gt;NON overlapping schedule T0min = 4 (critical path)&lt;/font&gt;&lt;/b&gt;" style="text;html=1;align=center;verticalAlign=middle;resizable=0;points=[];autosize=1;strokeColor=none;fillColor=none;" parent="1" vertex="1">
          <mxGeometry x="39.28" y="980.0000000000001" width="750" height="50" as="geometry" />
        </mxCell>
        <mxCell id="xIeV2Ho9NICHfseNneRn-1" value="" style="rounded=0;whiteSpace=wrap;html=1;fillColor=#000000;fillStyle=hatch;" parent="1" vertex="1">
          <mxGeometry x="280" y="280" width="120" height="30" as="geometry" />
        </mxCell>
        <mxCell id="FXtMKMSVmdbNlt9Emh2a-80" value="R1" style="rounded=0;whiteSpace=wrap;html=1;" parent="1" vertex="1">
          <mxGeometry x="39.28" y="1320" width="40" height="30" as="geometry" />
        </mxCell>
        <mxCell id="FXtMKMSVmdbNlt9Emh2a-81" value="R2" style="rounded=0;whiteSpace=wrap;html=1;" parent="1" vertex="1">
          <mxGeometry x="39.28" y="1360" width="40" height="30" as="geometry" />
        </mxCell>
        <mxCell id="FXtMKMSVmdbNlt9Emh2a-96" value="R3" style="rounded=0;whiteSpace=wrap;html=1;" parent="1" vertex="1">
          <mxGeometry x="39.28" y="1400" width="40" height="30" as="geometry" />
        </mxCell>
        <mxCell id="FXtMKMSVmdbNlt9Emh2a-97" value="R4" style="rounded=0;whiteSpace=wrap;html=1;" parent="1" vertex="1">
          <mxGeometry x="39.28" y="1440" width="40" height="30" as="geometry" />
        </mxCell>
        <mxCell id="FXtMKMSVmdbNlt9Emh2a-104" value="D1" style="rounded=0;whiteSpace=wrap;html=1;" parent="1" vertex="1">
          <mxGeometry x="39.28" y="1480" width="40" height="30" as="geometry" />
        </mxCell>
        <mxCell id="FXtMKMSVmdbNlt9Emh2a-105" value="D2" style="rounded=0;whiteSpace=wrap;html=1;" parent="1" vertex="1">
          <mxGeometry x="39.28" y="1520" width="40" height="30" as="geometry" />
        </mxCell>
        <mxCell id="FXtMKMSVmdbNlt9Emh2a-110" value="a1_out" style="rounded=0;whiteSpace=wrap;html=1;" parent="1" vertex="1">
          <mxGeometry x="279.28" y="1480" width="160.72" height="30" as="geometry" />
        </mxCell>
        <mxCell id="FXtMKMSVmdbNlt9Emh2a-111" value="p1[n-1]" style="rounded=0;whiteSpace=wrap;html=1;" parent="1" vertex="1">
          <mxGeometry x="119.28" y="1480" width="160" height="30" as="geometry" />
        </mxCell>
        <mxCell id="FXtMKMSVmdbNlt9Emh2a-112" value="D3" style="rounded=0;whiteSpace=wrap;html=1;" parent="1" vertex="1">
          <mxGeometry x="39.28" y="1560" width="40" height="30" as="geometry" />
        </mxCell>
        <mxCell id="FXtMKMSVmdbNlt9Emh2a-113" value="p1[n-1]" style="rounded=0;whiteSpace=wrap;html=1;" parent="1" vertex="1">
          <mxGeometry x="279.28" y="1520" width="160.72" height="30" as="geometry" />
        </mxCell>
        <mxCell id="FXtMKMSVmdbNlt9Emh2a-114" value="p1[n-2]" style="rounded=0;whiteSpace=wrap;html=1;" parent="1" vertex="1">
          <mxGeometry x="119.28" y="1520" width="160" height="30" as="geometry" />
        </mxCell>
        <mxCell id="FXtMKMSVmdbNlt9Emh2a-121" value="" style="rounded=0;whiteSpace=wrap;html=1;fillColor=#000000;fillStyle=hatch;" parent="1" vertex="1">
          <mxGeometry x="119.28" y="1440" width="80" height="30" as="geometry" />
        </mxCell>
        <mxCell id="FXtMKMSVmdbNlt9Emh2a-122" value="" style="rounded=0;whiteSpace=wrap;html=1;fillColor=#000000;fillStyle=hatch;" parent="1" vertex="1">
          <mxGeometry x="119.28" y="1400" width="80" height="30" as="geometry" />
        </mxCell>
        <mxCell id="FXtMKMSVmdbNlt9Emh2a-123" value="" style="rounded=0;whiteSpace=wrap;html=1;fillColor=#000000;fillStyle=hatch;" parent="1" vertex="1">
          <mxGeometry x="119.28" y="1360" width="80" height="30" as="geometry" />
        </mxCell>
        <mxCell id="FXtMKMSVmdbNlt9Emh2a-124" value="" style="rounded=0;whiteSpace=wrap;html=1;fillColor=#000000;fillStyle=hatch;" parent="1" vertex="1">
          <mxGeometry x="119.28" y="1320" width="80.72" height="30" as="geometry" />
        </mxCell>
        <mxCell id="FXtMKMSVmdbNlt9Emh2a-201" value="m2&lt;br&gt;[n+1]" style="rounded=0;whiteSpace=wrap;html=1;" parent="1" vertex="1">
          <mxGeometry x="279.69" y="80" width="80" height="30" as="geometry" />
        </mxCell>
        <mxCell id="FXtMKMSVmdbNlt9Emh2a-202" value="p3&lt;br&gt;[n+1]" style="rounded=0;whiteSpace=wrap;html=1;" parent="1" vertex="1">
          <mxGeometry x="359.69" y="320" width="40" height="30" as="geometry" />
        </mxCell>
        <mxCell id="FXtMKMSVmdbNlt9Emh2a-203" value="p1&lt;br&gt;[n+1]" style="rounded=0;whiteSpace=wrap;html=1;" parent="1" vertex="1">
          <mxGeometry x="399.69" y="240" width="40" height="30" as="geometry" />
        </mxCell>
        <mxCell id="FXtMKMSVmdbNlt9Emh2a-204" value="m1&lt;br&gt;[n]" style="rounded=0;whiteSpace=wrap;html=1;" parent="1" vertex="1">
          <mxGeometry x="279.69" y="40" width="80" height="30" as="geometry" />
        </mxCell>
        <mxCell id="FXtMKMSVmdbNlt9Emh2a-205" value="p2&lt;br&gt;[n]" style="rounded=0;whiteSpace=wrap;html=1;" parent="1" vertex="1">
          <mxGeometry x="399.69" y="280" width="40" height="30" as="geometry" />
        </mxCell>
        <mxCell id="FXtMKMSVmdbNlt9Emh2a-206" value="m5&lt;br&gt;[n]" style="rounded=0;whiteSpace=wrap;html=1;" parent="1" vertex="1">
          <mxGeometry x="279.69" y="200" width="80" height="30" as="geometry" />
        </mxCell>
        <mxCell id="FXtMKMSVmdbNlt9Emh2a-207" value="p4&lt;br&gt;[n]" style="rounded=0;whiteSpace=wrap;html=1;" parent="1" vertex="1">
          <mxGeometry x="359.69" y="360" width="40" height="30" as="geometry" />
        </mxCell>
        <mxCell id="FXtMKMSVmdbNlt9Emh2a-208" value="m4&lt;br&gt;[n+1]" style="rounded=0;whiteSpace=wrap;html=1;" parent="1" vertex="1">
          <mxGeometry x="279.69" y="120" width="80" height="30" as="geometry" />
        </mxCell>
        <mxCell id="FXtMKMSVmdbNlt9Emh2a-209" value="m3&lt;br&gt;[n]" style="rounded=0;whiteSpace=wrap;html=1;" parent="1" vertex="1">
          <mxGeometry x="279.69" y="160" width="80" height="30" as="geometry" />
        </mxCell>
        <mxCell id="FXtMKMSVmdbNlt9Emh2a-210" value="X" style="rounded=0;whiteSpace=wrap;html=1;" parent="1" vertex="1">
          <mxGeometry x="40" y="480" width="40" height="30" as="geometry" />
        </mxCell>
        <mxCell id="FXtMKMSVmdbNlt9Emh2a-211" value="X" style="rounded=0;whiteSpace=wrap;html=1;" parent="1" vertex="1">
          <mxGeometry x="40" y="520" width="40" height="30" as="geometry" />
        </mxCell>
        <mxCell id="FXtMKMSVmdbNlt9Emh2a-212" value="X" style="rounded=0;whiteSpace=wrap;html=1;" parent="1" vertex="1">
          <mxGeometry x="40" y="560" width="40" height="30" as="geometry" />
        </mxCell>
        <mxCell id="FXtMKMSVmdbNlt9Emh2a-215" value="&lt;font style=&quot;font-size: 20px;&quot;&gt;+&lt;/font&gt;" style="rounded=0;whiteSpace=wrap;html=1;" parent="1" vertex="1">
          <mxGeometry x="39.69" y="680" width="40" height="30" as="geometry" />
        </mxCell>
        <mxCell id="FXtMKMSVmdbNlt9Emh2a-216" value="&lt;font style=&quot;font-size: 20px;&quot;&gt;+&lt;/font&gt;" style="rounded=0;whiteSpace=wrap;html=1;" parent="1" vertex="1">
          <mxGeometry x="39.69" y="720" width="40" height="30" as="geometry" />
        </mxCell>
        <mxCell id="FXtMKMSVmdbNlt9Emh2a-219" value="m2&lt;br&gt;[n]" style="rounded=0;whiteSpace=wrap;html=1;" parent="1" vertex="1">
          <mxGeometry x="120" y="520" width="80" height="30" as="geometry" />
        </mxCell>
        <mxCell id="FXtMKMSVmdbNlt9Emh2a-220" value="p3&lt;br&gt;[n]" style="rounded=0;whiteSpace=wrap;html=1;" parent="1" vertex="1">
          <mxGeometry x="199.69" y="680" width="40" height="30" as="geometry" />
        </mxCell>
        <mxCell id="FXtMKMSVmdbNlt9Emh2a-221" value="p1&lt;br&gt;[n]" style="rounded=0;whiteSpace=wrap;html=1;" parent="1" vertex="1">
          <mxGeometry x="239.69" y="680" width="40" height="30" as="geometry" />
        </mxCell>
        <mxCell id="FXtMKMSVmdbNlt9Emh2a-222" value="m1&lt;br&gt;[n-1]" style="rounded=0;whiteSpace=wrap;html=1;" parent="1" vertex="1">
          <mxGeometry x="120" y="480" width="80" height="30" as="geometry" />
        </mxCell>
        <mxCell id="FXtMKMSVmdbNlt9Emh2a-223" value="p2&lt;br&gt;[n-1]" style="rounded=0;whiteSpace=wrap;html=1;" parent="1" vertex="1">
          <mxGeometry x="239.69" y="720" width="40" height="30" as="geometry" />
        </mxCell>
        <mxCell id="FXtMKMSVmdbNlt9Emh2a-225" value="p4&lt;br&gt;[n-1]" style="rounded=0;whiteSpace=wrap;html=1;" parent="1" vertex="1">
          <mxGeometry x="199.69" y="720" width="40" height="30" as="geometry" />
        </mxCell>
        <mxCell id="FXtMKMSVmdbNlt9Emh2a-227" value="m4&lt;br&gt;[n]" style="rounded=0;whiteSpace=wrap;html=1;" parent="1" vertex="1">
          <mxGeometry x="120" y="560" width="80" height="30" as="geometry" />
        </mxCell>
        <mxCell id="FXtMKMSVmdbNlt9Emh2a-233" value="" style="rounded=0;whiteSpace=wrap;html=1;fillColor=#000000;fillStyle=hatch;" parent="1" vertex="1">
          <mxGeometry x="119.69" y="680" width="80.31" height="30" as="geometry" />
        </mxCell>
        <mxCell id="FXtMKMSVmdbNlt9Emh2a-234" value="" style="rounded=0;whiteSpace=wrap;html=1;fillColor=#000000;fillStyle=hatch;" parent="1" vertex="1">
          <mxGeometry x="279.69" y="680" width="120" height="30" as="geometry" />
        </mxCell>
        <mxCell id="FXtMKMSVmdbNlt9Emh2a-235" value="" style="rounded=0;whiteSpace=wrap;html=1;fillColor=#000000;fillStyle=hatch;" parent="1" vertex="1">
          <mxGeometry x="119.69" y="720" width="80.31" height="30" as="geometry" />
        </mxCell>
        <mxCell id="FXtMKMSVmdbNlt9Emh2a-238" value="" style="rounded=0;whiteSpace=wrap;html=1;fillColor=#000000;fillStyle=hatch;" parent="1" vertex="1">
          <mxGeometry x="200" y="480" width="240" height="30" as="geometry" />
        </mxCell>
        <mxCell id="FXtMKMSVmdbNlt9Emh2a-249" value="" style="rounded=0;whiteSpace=wrap;html=1;fillColor=#000000;fillStyle=hatch;" parent="1" vertex="1">
          <mxGeometry x="279.69" y="720" width="120" height="30" as="geometry" />
        </mxCell>
        <mxCell id="FXtMKMSVmdbNlt9Emh2a-250" value="m2&lt;br&gt;[n+1]" style="rounded=0;whiteSpace=wrap;html=1;" parent="1" vertex="1">
          <mxGeometry x="279.69" y="520" width="80" height="30" as="geometry" />
        </mxCell>
        <mxCell id="FXtMKMSVmdbNlt9Emh2a-251" value="p3&lt;br&gt;[n+1]" style="rounded=0;whiteSpace=wrap;html=1;" parent="1" vertex="1">
          <mxGeometry x="360" y="680" width="40" height="30" as="geometry" />
        </mxCell>
        <mxCell id="FXtMKMSVmdbNlt9Emh2a-252" value="p1&lt;br&gt;[n+1]" style="rounded=0;whiteSpace=wrap;html=1;" parent="1" vertex="1">
          <mxGeometry x="399.38" y="680" width="40" height="30" as="geometry" />
        </mxCell>
        <mxCell id="FXtMKMSVmdbNlt9Emh2a-253" value="m1&lt;br&gt;[n]" style="rounded=0;whiteSpace=wrap;html=1;" parent="1" vertex="1">
          <mxGeometry x="279.69" y="480" width="80" height="30" as="geometry" />
        </mxCell>
        <mxCell id="FXtMKMSVmdbNlt9Emh2a-254" value="p2&lt;br&gt;[n]" style="rounded=0;whiteSpace=wrap;html=1;" parent="1" vertex="1">
          <mxGeometry x="399.38" y="720" width="40" height="30" as="geometry" />
        </mxCell>
        <mxCell id="FXtMKMSVmdbNlt9Emh2a-256" value="p4&lt;br&gt;[n]" style="rounded=0;whiteSpace=wrap;html=1;" parent="1" vertex="1">
          <mxGeometry x="360" y="720" width="40" height="30" as="geometry" />
        </mxCell>
        <mxCell id="FXtMKMSVmdbNlt9Emh2a-257" value="m4&lt;br&gt;[n+1]" style="rounded=0;whiteSpace=wrap;html=1;" parent="1" vertex="1">
          <mxGeometry x="279.69" y="560" width="80" height="30" as="geometry" />
        </mxCell>
        <mxCell id="FXtMKMSVmdbNlt9Emh2a-259" value="" style="endArrow=classic;html=1;rounded=0;" parent="1" edge="1">
          <mxGeometry width="50" height="50" relative="1" as="geometry">
            <mxPoint x="120" y="400" as="sourcePoint" />
            <mxPoint x="440" y="400" as="targetPoint" />
          </mxGeometry>
        </mxCell>
        <mxCell id="FXtMKMSVmdbNlt9Emh2a-260" value="0" style="text;html=1;align=center;verticalAlign=middle;resizable=0;points=[];autosize=1;strokeColor=none;fillColor=none;" parent="1" vertex="1">
          <mxGeometry x="106" y="400" width="30" height="30" as="geometry" />
        </mxCell>
        <mxCell id="FXtMKMSVmdbNlt9Emh2a-261" value="1" style="text;html=1;align=center;verticalAlign=middle;resizable=0;points=[];autosize=1;strokeColor=none;fillColor=none;" parent="1" vertex="1">
          <mxGeometry x="145" y="400" width="30" height="30" as="geometry" />
        </mxCell>
        <mxCell id="FXtMKMSVmdbNlt9Emh2a-262" value="2" style="text;html=1;align=center;verticalAlign=middle;resizable=0;points=[];autosize=1;strokeColor=none;fillColor=none;" parent="1" vertex="1">
          <mxGeometry x="185" y="400" width="30" height="30" as="geometry" />
        </mxCell>
        <mxCell id="FXtMKMSVmdbNlt9Emh2a-263" value="3" style="text;html=1;align=center;verticalAlign=middle;resizable=0;points=[];autosize=1;strokeColor=none;fillColor=none;" parent="1" vertex="1">
          <mxGeometry x="225" y="400" width="30" height="30" as="geometry" />
        </mxCell>
        <mxCell id="FXtMKMSVmdbNlt9Emh2a-264" value="4" style="text;html=1;align=center;verticalAlign=middle;resizable=0;points=[];autosize=1;strokeColor=none;fillColor=none;" parent="1" vertex="1">
          <mxGeometry x="264" y="400" width="30" height="30" as="geometry" />
        </mxCell>
        <mxCell id="FXtMKMSVmdbNlt9Emh2a-265" value="5" style="text;html=1;align=center;verticalAlign=middle;resizable=0;points=[];autosize=1;strokeColor=none;fillColor=none;" parent="1" vertex="1">
          <mxGeometry x="305" y="400" width="30" height="30" as="geometry" />
        </mxCell>
        <mxCell id="FXtMKMSVmdbNlt9Emh2a-266" value="6" style="text;html=1;align=center;verticalAlign=middle;resizable=0;points=[];autosize=1;strokeColor=none;fillColor=none;" parent="1" vertex="1">
          <mxGeometry x="343" y="400" width="30" height="30" as="geometry" />
        </mxCell>
        <mxCell id="FXtMKMSVmdbNlt9Emh2a-267" value="7" style="text;html=1;align=center;verticalAlign=middle;resizable=0;points=[];autosize=1;strokeColor=none;fillColor=none;" parent="1" vertex="1">
          <mxGeometry x="385" y="400" width="30" height="30" as="geometry" />
        </mxCell>
        <mxCell id="FXtMKMSVmdbNlt9Emh2a-268" value="8" style="text;html=1;align=center;verticalAlign=middle;resizable=0;points=[];autosize=1;strokeColor=none;fillColor=none;" parent="1" vertex="1">
          <mxGeometry x="423" y="400" width="30" height="30" as="geometry" />
        </mxCell>
        <mxCell id="FXtMKMSVmdbNlt9Emh2a-281" value="" style="endArrow=classic;html=1;rounded=0;" parent="1" edge="1">
          <mxGeometry width="50" height="50" relative="1" as="geometry">
            <mxPoint x="120" y="760" as="sourcePoint" />
            <mxPoint x="440" y="760" as="targetPoint" />
          </mxGeometry>
        </mxCell>
        <mxCell id="FXtMKMSVmdbNlt9Emh2a-282" value="0" style="text;html=1;align=center;verticalAlign=middle;resizable=0;points=[];autosize=1;strokeColor=none;fillColor=none;" parent="1" vertex="1">
          <mxGeometry x="106" y="760" width="30" height="30" as="geometry" />
        </mxCell>
        <mxCell id="FXtMKMSVmdbNlt9Emh2a-283" value="1" style="text;html=1;align=center;verticalAlign=middle;resizable=0;points=[];autosize=1;strokeColor=none;fillColor=none;" parent="1" vertex="1">
          <mxGeometry x="145" y="760" width="30" height="30" as="geometry" />
        </mxCell>
        <mxCell id="FXtMKMSVmdbNlt9Emh2a-284" value="2" style="text;html=1;align=center;verticalAlign=middle;resizable=0;points=[];autosize=1;strokeColor=none;fillColor=none;" parent="1" vertex="1">
          <mxGeometry x="185" y="760" width="30" height="30" as="geometry" />
        </mxCell>
        <mxCell id="FXtMKMSVmdbNlt9Emh2a-285" value="3" style="text;html=1;align=center;verticalAlign=middle;resizable=0;points=[];autosize=1;strokeColor=none;fillColor=none;" parent="1" vertex="1">
          <mxGeometry x="225" y="760" width="30" height="30" as="geometry" />
        </mxCell>
        <mxCell id="FXtMKMSVmdbNlt9Emh2a-286" value="4" style="text;html=1;align=center;verticalAlign=middle;resizable=0;points=[];autosize=1;strokeColor=none;fillColor=none;" parent="1" vertex="1">
          <mxGeometry x="264" y="760" width="30" height="30" as="geometry" />
        </mxCell>
        <mxCell id="FXtMKMSVmdbNlt9Emh2a-287" value="5" style="text;html=1;align=center;verticalAlign=middle;resizable=0;points=[];autosize=1;strokeColor=none;fillColor=none;" parent="1" vertex="1">
          <mxGeometry x="305" y="760" width="30" height="30" as="geometry" />
        </mxCell>
        <mxCell id="FXtMKMSVmdbNlt9Emh2a-288" value="6" style="text;html=1;align=center;verticalAlign=middle;resizable=0;points=[];autosize=1;strokeColor=none;fillColor=none;" parent="1" vertex="1">
          <mxGeometry x="343" y="760" width="30" height="30" as="geometry" />
        </mxCell>
        <mxCell id="FXtMKMSVmdbNlt9Emh2a-289" value="7" style="text;html=1;align=center;verticalAlign=middle;resizable=0;points=[];autosize=1;strokeColor=none;fillColor=none;" parent="1" vertex="1">
          <mxGeometry x="385" y="760" width="30" height="30" as="geometry" />
        </mxCell>
        <mxCell id="FXtMKMSVmdbNlt9Emh2a-290" value="8" style="text;html=1;align=center;verticalAlign=middle;resizable=0;points=[];autosize=1;strokeColor=none;fillColor=none;" parent="1" vertex="1">
          <mxGeometry x="423" y="760" width="30" height="30" as="geometry" />
        </mxCell>
        <mxCell id="X00ZaxmRfJnHzRFSlBGA-1" value="X" style="rounded=0;whiteSpace=wrap;html=1;" parent="1" vertex="1">
          <mxGeometry x="39.69" y="600" width="40" height="30" as="geometry" />
        </mxCell>
        <mxCell id="X00ZaxmRfJnHzRFSlBGA-2" value="X" style="rounded=0;whiteSpace=wrap;html=1;" parent="1" vertex="1">
          <mxGeometry x="39.69" y="640" width="40" height="30" as="geometry" />
        </mxCell>
        <mxCell id="X00ZaxmRfJnHzRFSlBGA-7" value="m5&lt;br&gt;[n]" style="rounded=0;whiteSpace=wrap;html=1;" parent="1" vertex="1">
          <mxGeometry x="279.45" y="640" width="80" height="30" as="geometry" />
        </mxCell>
        <mxCell id="X00ZaxmRfJnHzRFSlBGA-8" value="m3&lt;br&gt;[n]" style="rounded=0;whiteSpace=wrap;html=1;" parent="1" vertex="1">
          <mxGeometry x="279.91999999999996" y="600" width="80" height="30" as="geometry" />
        </mxCell>
        <mxCell id="X00ZaxmRfJnHzRFSlBGA-9" value="m5&lt;br&gt;[n-1]" style="rounded=0;whiteSpace=wrap;html=1;" parent="1" vertex="1">
          <mxGeometry x="120.31" y="640" width="80" height="30" as="geometry" />
        </mxCell>
        <mxCell id="X00ZaxmRfJnHzRFSlBGA-10" value="m3&lt;br&gt;[n-1]" style="rounded=0;whiteSpace=wrap;html=1;" parent="1" vertex="1">
          <mxGeometry x="120" y="600" width="80" height="30" as="geometry" />
        </mxCell>
        <mxCell id="X00ZaxmRfJnHzRFSlBGA-15" value="" style="rounded=0;whiteSpace=wrap;html=1;fillColor=#000000;fillStyle=hatch;" parent="1" vertex="1">
          <mxGeometry x="199.27999999999994" y="1080" width="240" height="30" as="geometry" />
        </mxCell>
        <mxCell id="X00ZaxmRfJnHzRFSlBGA-16" value="" style="rounded=0;whiteSpace=wrap;html=1;fillColor=#000000;fillStyle=hatch;" parent="1" vertex="1">
          <mxGeometry x="199.89999999999995" y="1120" width="240" height="30" as="geometry" />
        </mxCell>
        <mxCell id="X00ZaxmRfJnHzRFSlBGA-17" value="" style="rounded=0;whiteSpace=wrap;html=1;fillColor=#000000;fillStyle=hatch;" parent="1" vertex="1">
          <mxGeometry x="199.89999999999995" y="1160" width="240" height="30" as="geometry" />
        </mxCell>
        <mxCell id="X00ZaxmRfJnHzRFSlBGA-18" value="" style="rounded=0;whiteSpace=wrap;html=1;fillColor=#000000;fillStyle=hatch;" parent="1" vertex="1">
          <mxGeometry x="199.89999999999995" y="1200" width="240" height="30" as="geometry" />
        </mxCell>
        <mxCell id="X00ZaxmRfJnHzRFSlBGA-19" value="M1 X" style="rounded=0;whiteSpace=wrap;html=1;" parent="1" vertex="1">
          <mxGeometry x="39.58999999999995" y="1040" width="40" height="30" as="geometry" />
        </mxCell>
        <mxCell id="X00ZaxmRfJnHzRFSlBGA-20" value="M2 X" style="rounded=0;whiteSpace=wrap;html=1;" parent="1" vertex="1">
          <mxGeometry x="39.58999999999995" y="1080" width="40" height="30" as="geometry" />
        </mxCell>
        <mxCell id="X00ZaxmRfJnHzRFSlBGA-21" value="M3 X" style="rounded=0;whiteSpace=wrap;html=1;" parent="1" vertex="1">
          <mxGeometry x="39.58999999999995" y="1120" width="40" height="30" as="geometry" />
        </mxCell>
        <mxCell id="X00ZaxmRfJnHzRFSlBGA-24" value="m2&lt;br&gt;[n]" style="rounded=0;whiteSpace=wrap;html=1;" parent="1" vertex="1">
          <mxGeometry x="119.58999999999995" y="1080" width="80" height="30" as="geometry" />
        </mxCell>
        <mxCell id="X00ZaxmRfJnHzRFSlBGA-25" value="p3&lt;br&gt;[n]" style="rounded=0;whiteSpace=wrap;html=1;" parent="1" vertex="1">
          <mxGeometry x="199.27999999999994" y="1240" width="40" height="30" as="geometry" />
        </mxCell>
        <mxCell id="X00ZaxmRfJnHzRFSlBGA-26" value="p1&lt;br&gt;[n]" style="rounded=0;whiteSpace=wrap;html=1;" parent="1" vertex="1">
          <mxGeometry x="239.27999999999994" y="1240" width="40" height="30" as="geometry" />
        </mxCell>
        <mxCell id="X00ZaxmRfJnHzRFSlBGA-27" value="m1&lt;br&gt;[n-1]" style="rounded=0;whiteSpace=wrap;html=1;" parent="1" vertex="1">
          <mxGeometry x="159.68999999999994" y="1040" width="80" height="30" as="geometry" />
        </mxCell>
        <mxCell id="X00ZaxmRfJnHzRFSlBGA-28" value="p2&lt;br&gt;[n-1]" style="rounded=0;whiteSpace=wrap;html=1;" parent="1" vertex="1">
          <mxGeometry x="239.27999999999994" y="1280" width="40" height="30" as="geometry" />
        </mxCell>
        <mxCell id="X00ZaxmRfJnHzRFSlBGA-29" value="p4&lt;br&gt;[n-1]" style="rounded=0;whiteSpace=wrap;html=1;" parent="1" vertex="1">
          <mxGeometry x="199.27999999999994" y="1280" width="40" height="30" as="geometry" />
        </mxCell>
        <mxCell id="X00ZaxmRfJnHzRFSlBGA-30" value="m4&lt;br&gt;[n]" style="rounded=0;whiteSpace=wrap;html=1;" parent="1" vertex="1">
          <mxGeometry x="119.27999999999994" y="1160" width="80" height="30" as="geometry" />
        </mxCell>
        <mxCell id="X00ZaxmRfJnHzRFSlBGA-31" value="" style="rounded=0;whiteSpace=wrap;html=1;fillColor=#000000;fillStyle=hatch;" parent="1" vertex="1">
          <mxGeometry x="119.28" y="1240" width="80.31" height="30" as="geometry" />
        </mxCell>
        <mxCell id="X00ZaxmRfJnHzRFSlBGA-32" value="" style="rounded=0;whiteSpace=wrap;html=1;fillColor=#000000;fillStyle=hatch;" parent="1" vertex="1">
          <mxGeometry x="279.28" y="1240" width="80.72" height="30" as="geometry" />
        </mxCell>
        <mxCell id="X00ZaxmRfJnHzRFSlBGA-33" value="" style="rounded=0;whiteSpace=wrap;html=1;fillColor=#000000;fillStyle=hatch;" parent="1" vertex="1">
          <mxGeometry x="119.28" y="1280" width="80.31" height="30" as="geometry" />
        </mxCell>
        <mxCell id="X00ZaxmRfJnHzRFSlBGA-35" value="" style="rounded=0;whiteSpace=wrap;html=1;fillColor=#000000;fillStyle=hatch;" parent="1" vertex="1">
          <mxGeometry x="279.28" y="1280" width="80.72" height="30" as="geometry" />
        </mxCell>
        <mxCell id="X00ZaxmRfJnHzRFSlBGA-36" value="m2&lt;br&gt;[n+1]" style="rounded=0;whiteSpace=wrap;html=1;" parent="1" vertex="1">
          <mxGeometry x="279.2799999999999" y="1080" width="80" height="30" as="geometry" />
        </mxCell>
        <mxCell id="X00ZaxmRfJnHzRFSlBGA-39" value="m1&lt;br&gt;[n]" style="rounded=0;whiteSpace=wrap;html=1;" parent="1" vertex="1">
          <mxGeometry x="319.6899999999999" y="1040" width="80" height="30" as="geometry" />
        </mxCell>
        <mxCell id="X00ZaxmRfJnHzRFSlBGA-42" value="m4&lt;br&gt;[n+1]" style="rounded=0;whiteSpace=wrap;html=1;" parent="1" vertex="1">
          <mxGeometry x="279.2799999999999" y="1120" width="80" height="30" as="geometry" />
        </mxCell>
        <mxCell id="X00ZaxmRfJnHzRFSlBGA-43" value="" style="endArrow=classic;html=1;rounded=0;" parent="1" edge="1">
          <mxGeometry width="50" height="50" relative="1" as="geometry">
            <mxPoint x="120.31000000000017" y="1600" as="sourcePoint" />
            <mxPoint x="440.30999999999995" y="1600" as="targetPoint" />
          </mxGeometry>
        </mxCell>
        <mxCell id="X00ZaxmRfJnHzRFSlBGA-44" value="0" style="text;html=1;align=center;verticalAlign=middle;resizable=0;points=[];autosize=1;strokeColor=none;fillColor=none;" parent="1" vertex="1">
          <mxGeometry x="106.30999999999995" y="1600" width="30" height="30" as="geometry" />
        </mxCell>
        <mxCell id="X00ZaxmRfJnHzRFSlBGA-45" value="1" style="text;html=1;align=center;verticalAlign=middle;resizable=0;points=[];autosize=1;strokeColor=none;fillColor=none;" parent="1" vertex="1">
          <mxGeometry x="145.30999999999995" y="1600" width="30" height="30" as="geometry" />
        </mxCell>
        <mxCell id="X00ZaxmRfJnHzRFSlBGA-46" value="2" style="text;html=1;align=center;verticalAlign=middle;resizable=0;points=[];autosize=1;strokeColor=none;fillColor=none;" parent="1" vertex="1">
          <mxGeometry x="185.30999999999995" y="1600" width="30" height="30" as="geometry" />
        </mxCell>
        <mxCell id="X00ZaxmRfJnHzRFSlBGA-47" value="3" style="text;html=1;align=center;verticalAlign=middle;resizable=0;points=[];autosize=1;strokeColor=none;fillColor=none;" parent="1" vertex="1">
          <mxGeometry x="225.30999999999995" y="1600" width="30" height="30" as="geometry" />
        </mxCell>
        <mxCell id="X00ZaxmRfJnHzRFSlBGA-48" value="4" style="text;html=1;align=center;verticalAlign=middle;resizable=0;points=[];autosize=1;strokeColor=none;fillColor=none;" parent="1" vertex="1">
          <mxGeometry x="264.30999999999995" y="1600" width="30" height="30" as="geometry" />
        </mxCell>
        <mxCell id="X00ZaxmRfJnHzRFSlBGA-49" value="5" style="text;html=1;align=center;verticalAlign=middle;resizable=0;points=[];autosize=1;strokeColor=none;fillColor=none;" parent="1" vertex="1">
          <mxGeometry x="305.30999999999995" y="1600" width="30" height="30" as="geometry" />
        </mxCell>
        <mxCell id="X00ZaxmRfJnHzRFSlBGA-50" value="6" style="text;html=1;align=center;verticalAlign=middle;resizable=0;points=[];autosize=1;strokeColor=none;fillColor=none;" parent="1" vertex="1">
          <mxGeometry x="343.30999999999995" y="1600" width="30" height="30" as="geometry" />
        </mxCell>
        <mxCell id="X00ZaxmRfJnHzRFSlBGA-51" value="7" style="text;html=1;align=center;verticalAlign=middle;resizable=0;points=[];autosize=1;strokeColor=none;fillColor=none;" parent="1" vertex="1">
          <mxGeometry x="385.30999999999995" y="1600" width="30" height="30" as="geometry" />
        </mxCell>
        <mxCell id="X00ZaxmRfJnHzRFSlBGA-52" value="8" style="text;html=1;align=center;verticalAlign=middle;resizable=0;points=[];autosize=1;strokeColor=none;fillColor=none;" parent="1" vertex="1">
          <mxGeometry x="423.30999999999995" y="1600" width="30" height="30" as="geometry" />
        </mxCell>
        <mxCell id="X00ZaxmRfJnHzRFSlBGA-53" value="M4 X" style="rounded=0;whiteSpace=wrap;html=1;" parent="1" vertex="1">
          <mxGeometry x="39.28" y="1160" width="40" height="30" as="geometry" />
        </mxCell>
        <mxCell id="X00ZaxmRfJnHzRFSlBGA-54" value="M5 X" style="rounded=0;whiteSpace=wrap;html=1;" parent="1" vertex="1">
          <mxGeometry x="39.28" y="1200" width="40" height="30" as="geometry" />
        </mxCell>
        <mxCell id="X00ZaxmRfJnHzRFSlBGA-55" value="m5&lt;br&gt;[n]" style="rounded=0;whiteSpace=wrap;html=1;" parent="1" vertex="1">
          <mxGeometry x="279.0399999999999" y="1200" width="80" height="30" as="geometry" />
        </mxCell>
        <mxCell id="X00ZaxmRfJnHzRFSlBGA-56" value="m3&lt;br&gt;[n]" style="rounded=0;whiteSpace=wrap;html=1;" parent="1" vertex="1">
          <mxGeometry x="279.5099999999999" y="1160" width="80" height="30" as="geometry" />
        </mxCell>
        <mxCell id="X00ZaxmRfJnHzRFSlBGA-57" value="m5&lt;br&gt;[n-1]" style="rounded=0;whiteSpace=wrap;html=1;" parent="1" vertex="1">
          <mxGeometry x="119.89999999999989" y="1200" width="80" height="30" as="geometry" />
        </mxCell>
        <mxCell id="X00ZaxmRfJnHzRFSlBGA-58" value="m3&lt;br&gt;[n-1]" style="rounded=0;whiteSpace=wrap;html=1;" parent="1" vertex="1">
          <mxGeometry x="119.27999999999994" y="1120" width="80" height="30" as="geometry" />
        </mxCell>
        <mxCell id="X00ZaxmRfJnHzRFSlBGA-59" value="p1[n-2]" style="rounded=0;whiteSpace=wrap;html=1;" parent="1" vertex="1">
          <mxGeometry x="279.59" y="1560" width="160.72" height="30" as="geometry" />
        </mxCell>
        <mxCell id="X00ZaxmRfJnHzRFSlBGA-60" value="p1[n-3]" style="rounded=0;whiteSpace=wrap;html=1;" parent="1" vertex="1">
          <mxGeometry x="119.59" y="1560" width="160" height="30" as="geometry" />
        </mxCell>
        <mxCell id="X00ZaxmRfJnHzRFSlBGA-61" value="A1 +" style="rounded=0;whiteSpace=wrap;html=1;" parent="1" vertex="1">
          <mxGeometry x="39.28" y="1240" width="40" height="30" as="geometry" />
        </mxCell>
        <mxCell id="X00ZaxmRfJnHzRFSlBGA-62" value="A2 +" style="rounded=0;whiteSpace=wrap;html=1;" parent="1" vertex="1">
          <mxGeometry x="39.28" y="1280" width="40" height="30" as="geometry" />
        </mxCell>
        <mxCell id="X00ZaxmRfJnHzRFSlBGA-66" value="m5&lt;br&gt;[n-1]" style="rounded=0;whiteSpace=wrap;html=1;" parent="1" vertex="1">
          <mxGeometry x="200" y="1320" width="39.38" height="30" as="geometry" />
        </mxCell>
        <mxCell id="X00ZaxmRfJnHzRFSlBGA-67" value="m3&lt;br&gt;[n-1]" style="rounded=0;whiteSpace=wrap;html=1;" parent="1" vertex="1">
          <mxGeometry x="199.28" y="1440" width="39.69" height="30" as="geometry" />
        </mxCell>
        <mxCell id="X00ZaxmRfJnHzRFSlBGA-68" value="m1&lt;br&gt;[n-1]" style="rounded=0;whiteSpace=wrap;html=1;" parent="1" vertex="1">
          <mxGeometry x="239.51" y="1320" width="40" height="30" as="geometry" />
        </mxCell>
        <mxCell id="X00ZaxmRfJnHzRFSlBGA-69" value="m2&lt;br&gt;[n]" style="rounded=0;whiteSpace=wrap;html=1;" parent="1" vertex="1">
          <mxGeometry x="199.28" y="1360" width="39.69" height="30" as="geometry" />
        </mxCell>
        <mxCell id="X00ZaxmRfJnHzRFSlBGA-70" value="m4&lt;br&gt;[n]" style="rounded=0;whiteSpace=wrap;html=1;" parent="1" vertex="1">
          <mxGeometry x="199.28" y="1400" width="39.69" height="30" as="geometry" />
        </mxCell>
        <mxCell id="X00ZaxmRfJnHzRFSlBGA-71" value="p3&lt;br&gt;[n]" style="rounded=0;whiteSpace=wrap;html=1;" parent="1" vertex="1">
          <mxGeometry x="238.96999999999994" y="1360" width="40" height="30" as="geometry" />
        </mxCell>
        <mxCell id="X00ZaxmRfJnHzRFSlBGA-72" value="p4&lt;br&gt;[n-1]" style="rounded=0;whiteSpace=wrap;html=1;" parent="1" vertex="1">
          <mxGeometry x="238.96999999999994" y="1400" width="40" height="30" as="geometry" />
        </mxCell>
        <mxCell id="X00ZaxmRfJnHzRFSlBGA-73" value="" style="rounded=0;whiteSpace=wrap;html=1;fillColor=#000000;fillStyle=hatch;" parent="1" vertex="1">
          <mxGeometry x="280" y="1320" width="80" height="30" as="geometry" />
        </mxCell>
        <mxCell id="X00ZaxmRfJnHzRFSlBGA-74" value="" style="rounded=0;whiteSpace=wrap;html=1;fillColor=#000000;fillStyle=hatch;" parent="1" vertex="1">
          <mxGeometry x="279.04" y="1360" width="80.96" height="30" as="geometry" />
        </mxCell>
        <mxCell id="X00ZaxmRfJnHzRFSlBGA-75" value="" style="rounded=0;whiteSpace=wrap;html=1;fillColor=#000000;fillStyle=hatch;" parent="1" vertex="1">
          <mxGeometry x="279.04" y="1400" width="80.96" height="30" as="geometry" />
        </mxCell>
        <mxCell id="X00ZaxmRfJnHzRFSlBGA-76" value="" style="rounded=0;whiteSpace=wrap;html=1;fillColor=#000000;fillStyle=hatch;" parent="1" vertex="1">
          <mxGeometry x="238.73" y="1440" width="121.27" height="30" as="geometry" />
        </mxCell>
        <mxCell id="X00ZaxmRfJnHzRFSlBGA-80" value="" style="rounded=0;whiteSpace=wrap;html=1;fillColor=#000000;fillStyle=hatch;" parent="1" vertex="1">
          <mxGeometry x="240" y="1040" width="80" height="30" as="geometry" />
        </mxCell>
        <mxCell id="X00ZaxmRfJnHzRFSlBGA-81" value="" style="rounded=0;whiteSpace=wrap;html=1;fillColor=#000000;fillStyle=hatch;" parent="1" vertex="1">
          <mxGeometry x="400" y="1040" width="40" height="30" as="geometry" />
        </mxCell>
        <mxCell id="X00ZaxmRfJnHzRFSlBGA-82" value="" style="rounded=0;whiteSpace=wrap;html=1;fillColor=#000000;fillStyle=hatch;" parent="1" vertex="1">
          <mxGeometry x="119.27999999999997" y="1040" width="40" height="30" as="geometry" />
        </mxCell>
        <mxCell id="X00ZaxmRfJnHzRFSlBGA-87" value="p3&lt;br&gt;[n]" style="rounded=0;whiteSpace=wrap;html=1;" parent="1" vertex="1">
          <mxGeometry x="199.27999999999994" y="1240" width="40" height="30" as="geometry" />
        </mxCell>
        <mxCell id="X00ZaxmRfJnHzRFSlBGA-88" value="p1&lt;br&gt;[n]" style="rounded=0;whiteSpace=wrap;html=1;" parent="1" vertex="1">
          <mxGeometry x="400.0799999999999" y="1240" width="40" height="30" as="geometry" />
        </mxCell>
        <mxCell id="X00ZaxmRfJnHzRFSlBGA-89" value="p2&lt;br&gt;[n-1]" style="rounded=0;whiteSpace=wrap;html=1;" parent="1" vertex="1">
          <mxGeometry x="400.0799999999999" y="1280" width="40" height="30" as="geometry" />
        </mxCell>
        <mxCell id="X00ZaxmRfJnHzRFSlBGA-90" value="p4&lt;br&gt;[n-1]" style="rounded=0;whiteSpace=wrap;html=1;" parent="1" vertex="1">
          <mxGeometry x="360.0799999999999" y="1280" width="40" height="30" as="geometry" />
        </mxCell>
        <mxCell id="X00ZaxmRfJnHzRFSlBGA-91" value="m5&lt;br&gt;[n-1]" style="rounded=0;whiteSpace=wrap;html=1;" parent="1" vertex="1">
          <mxGeometry x="360.08" y="1320" width="39.92" height="30" as="geometry" />
        </mxCell>
        <mxCell id="X00ZaxmRfJnHzRFSlBGA-92" value="m3&lt;br&gt;[n-1]" style="rounded=0;whiteSpace=wrap;html=1;" parent="1" vertex="1">
          <mxGeometry x="360.08000000000004" y="1440" width="39.69" height="30" as="geometry" />
        </mxCell>
        <mxCell id="X00ZaxmRfJnHzRFSlBGA-93" value="m1&lt;br&gt;[n-1]" style="rounded=0;whiteSpace=wrap;html=1;" parent="1" vertex="1">
          <mxGeometry x="400.31000000000006" y="1320" width="40" height="30" as="geometry" />
        </mxCell>
        <mxCell id="X00ZaxmRfJnHzRFSlBGA-94" value="m2&lt;br&gt;[n]" style="rounded=0;whiteSpace=wrap;html=1;" parent="1" vertex="1">
          <mxGeometry x="360.08000000000004" y="1360" width="39.69" height="30" as="geometry" />
        </mxCell>
        <mxCell id="X00ZaxmRfJnHzRFSlBGA-95" value="m4&lt;br&gt;[n]" style="rounded=0;whiteSpace=wrap;html=1;" parent="1" vertex="1">
          <mxGeometry x="360.08000000000004" y="1400" width="39.69" height="30" as="geometry" />
        </mxCell>
        <mxCell id="X00ZaxmRfJnHzRFSlBGA-96" value="p3&lt;br&gt;[n]" style="rounded=0;whiteSpace=wrap;html=1;" parent="1" vertex="1">
          <mxGeometry x="399.77" y="1360" width="40" height="30" as="geometry" />
        </mxCell>
        <mxCell id="X00ZaxmRfJnHzRFSlBGA-97" value="p4&lt;br&gt;[n-1]" style="rounded=0;whiteSpace=wrap;html=1;" parent="1" vertex="1">
          <mxGeometry x="399.77" y="1400" width="40" height="30" as="geometry" />
        </mxCell>
        <mxCell id="X00ZaxmRfJnHzRFSlBGA-102" value="p3&lt;br&gt;[n]" style="rounded=0;whiteSpace=wrap;html=1;" parent="1" vertex="1">
          <mxGeometry x="360.0799999999999" y="1240" width="40" height="30" as="geometry" />
        </mxCell>
        <mxCell id="X00ZaxmRfJnHzRFSlBGA-103" value="" style="rounded=0;whiteSpace=wrap;html=1;fillColor=#000000;fillStyle=hatch;" parent="1" vertex="1">
          <mxGeometry x="400" y="1440" width="39.28" height="30" as="geometry" />
        </mxCell>
      </root>
    </mxGraphModel>
  </diagram>
  <diagram id="NCVCJ9WtsEdlyaHZPEpM" name="Unrolling">
    <mxGraphModel dx="2182" dy="793" grid="1" gridSize="10" guides="1" tooltips="1" connect="1" arrows="1" fold="1" page="1" pageScale="1" pageWidth="850" pageHeight="1100" math="0" shadow="0">
      <root>
        <mxCell id="0" />
        <mxCell id="1" parent="0" />
        <mxCell id="bT8yowvqNWeTCR8ogXKZ-1" style="edgeStyle=orthogonalEdgeStyle;rounded=0;orthogonalLoop=1;jettySize=auto;html=1;exitX=1;exitY=0.5;exitDx=0;exitDy=0;entryX=0;entryY=0.5;entryDx=0;entryDy=0;fontSize=18;" edge="1" parent="1" source="bT8yowvqNWeTCR8ogXKZ-3" target="bT8yowvqNWeTCR8ogXKZ-5">
          <mxGeometry relative="1" as="geometry" />
        </mxCell>
        <mxCell id="bT8yowvqNWeTCR8ogXKZ-61" style="edgeStyle=orthogonalEdgeStyle;rounded=0;orthogonalLoop=1;jettySize=auto;html=1;exitX=1;exitY=0.5;exitDx=0;exitDy=0;entryX=0;entryY=0.5;entryDx=0;entryDy=0;strokeColor=#000000;fontSize=18;endArrow=classic;endFill=1;" edge="1" parent="1" source="bT8yowvqNWeTCR8ogXKZ-3" target="bT8yowvqNWeTCR8ogXKZ-40">
          <mxGeometry relative="1" as="geometry" />
        </mxCell>
        <mxCell id="J5gAfPCd5y724lsthkOf-96" style="edgeStyle=orthogonalEdgeStyle;rounded=0;orthogonalLoop=1;jettySize=auto;html=1;exitX=1;exitY=0.5;exitDx=0;exitDy=0;entryX=1;entryY=0.5;entryDx=0;entryDy=0;strokeColor=#99CCFF;fontSize=18;endArrow=classic;endFill=1;" edge="1" parent="1" source="bT8yowvqNWeTCR8ogXKZ-3" target="J5gAfPCd5y724lsthkOf-75">
          <mxGeometry relative="1" as="geometry">
            <mxPoint x="390" y="530" as="targetPoint" />
            <Array as="points">
              <mxPoint x="220" y="100" />
              <mxPoint x="220" y="410" />
              <mxPoint x="390" y="410" />
              <mxPoint x="390" y="620" />
            </Array>
          </mxGeometry>
        </mxCell>
        <mxCell id="J5gAfPCd5y724lsthkOf-98" style="edgeStyle=orthogonalEdgeStyle;rounded=0;orthogonalLoop=1;jettySize=auto;html=1;exitX=1;exitY=0.5;exitDx=0;exitDy=0;entryX=0;entryY=0.5;entryDx=0;entryDy=0;strokeColor=#99CCFF;fontSize=18;endArrow=classic;endFill=1;" edge="1" parent="1" source="bT8yowvqNWeTCR8ogXKZ-3" target="J5gAfPCd5y724lsthkOf-43">
          <mxGeometry relative="1" as="geometry">
            <Array as="points">
              <mxPoint x="220" y="100" />
              <mxPoint x="220" y="410" />
              <mxPoint x="390" y="410" />
              <mxPoint x="390" y="620" />
            </Array>
          </mxGeometry>
        </mxCell>
        <mxCell id="bT8yowvqNWeTCR8ogXKZ-3" value="&lt;font style=&quot;font-size: 24px;&quot;&gt;+&lt;/font&gt;" style="ellipse;whiteSpace=wrap;html=1;aspect=fixed;" vertex="1" parent="1">
          <mxGeometry x="120" y="80" width="40" height="40" as="geometry" />
        </mxCell>
        <mxCell id="bT8yowvqNWeTCR8ogXKZ-4" style="edgeStyle=orthogonalEdgeStyle;rounded=0;orthogonalLoop=1;jettySize=auto;html=1;exitX=1;exitY=0.5;exitDx=0;exitDy=0;entryX=0;entryY=0.5;entryDx=0;entryDy=0;fontSize=18;" edge="1" parent="1" source="bT8yowvqNWeTCR8ogXKZ-5" target="bT8yowvqNWeTCR8ogXKZ-11">
          <mxGeometry relative="1" as="geometry" />
        </mxCell>
        <mxCell id="bT8yowvqNWeTCR8ogXKZ-5" value="&lt;font style=&quot;font-size: 24px;&quot;&gt;x&lt;/font&gt;" style="ellipse;whiteSpace=wrap;html=1;aspect=fixed;" vertex="1" parent="1">
          <mxGeometry x="520" y="80" width="40" height="40" as="geometry" />
        </mxCell>
        <mxCell id="bT8yowvqNWeTCR8ogXKZ-6" style="edgeStyle=orthogonalEdgeStyle;rounded=0;orthogonalLoop=1;jettySize=auto;html=1;exitX=0.5;exitY=0;exitDx=0;exitDy=0;entryX=0.5;entryY=1;entryDx=0;entryDy=0;fontSize=18;" edge="1" parent="1" source="bT8yowvqNWeTCR8ogXKZ-7" target="bT8yowvqNWeTCR8ogXKZ-3">
          <mxGeometry relative="1" as="geometry" />
        </mxCell>
        <mxCell id="bT8yowvqNWeTCR8ogXKZ-7" value="&lt;font style=&quot;font-size: 24px;&quot;&gt;+&lt;/font&gt;" style="ellipse;whiteSpace=wrap;html=1;aspect=fixed;" vertex="1" parent="1">
          <mxGeometry x="120" y="200" width="40" height="40" as="geometry" />
        </mxCell>
        <mxCell id="bT8yowvqNWeTCR8ogXKZ-8" style="edgeStyle=orthogonalEdgeStyle;rounded=0;orthogonalLoop=1;jettySize=auto;html=1;exitX=0.5;exitY=0;exitDx=0;exitDy=0;entryX=0.5;entryY=1;entryDx=0;entryDy=0;fontSize=18;" edge="1" parent="1" source="bT8yowvqNWeTCR8ogXKZ-9" target="bT8yowvqNWeTCR8ogXKZ-11">
          <mxGeometry relative="1" as="geometry" />
        </mxCell>
        <mxCell id="bT8yowvqNWeTCR8ogXKZ-9" value="&lt;font style=&quot;font-size: 24px;&quot;&gt;+&lt;/font&gt;" style="ellipse;whiteSpace=wrap;html=1;aspect=fixed;" vertex="1" parent="1">
          <mxGeometry x="652.5" y="200" width="40" height="40" as="geometry" />
        </mxCell>
        <mxCell id="bT8yowvqNWeTCR8ogXKZ-10" style="edgeStyle=orthogonalEdgeStyle;rounded=0;orthogonalLoop=1;jettySize=auto;html=1;exitX=1;exitY=0.5;exitDx=0;exitDy=0;entryX=1;entryY=0.5;entryDx=0;entryDy=0;entryPerimeter=0;fontSize=18;" edge="1" parent="1" source="bT8yowvqNWeTCR8ogXKZ-11" target="bT8yowvqNWeTCR8ogXKZ-29">
          <mxGeometry relative="1" as="geometry" />
        </mxCell>
        <mxCell id="bT8yowvqNWeTCR8ogXKZ-11" value="&lt;font style=&quot;font-size: 24px;&quot;&gt;+&lt;/font&gt;" style="ellipse;whiteSpace=wrap;html=1;aspect=fixed;" vertex="1" parent="1">
          <mxGeometry x="652.5" y="80" width="40" height="40" as="geometry" />
        </mxCell>
        <mxCell id="bT8yowvqNWeTCR8ogXKZ-12" style="edgeStyle=orthogonalEdgeStyle;rounded=0;orthogonalLoop=1;jettySize=auto;html=1;exitX=1;exitY=0.5;exitDx=0;exitDy=0;entryX=0;entryY=0.5;entryDx=0;entryDy=0;fontSize=18;" edge="1" parent="1" source="bT8yowvqNWeTCR8ogXKZ-13" target="bT8yowvqNWeTCR8ogXKZ-9">
          <mxGeometry relative="1" as="geometry" />
        </mxCell>
        <mxCell id="bT8yowvqNWeTCR8ogXKZ-13" value="&lt;font style=&quot;font-size: 24px;&quot;&gt;x&lt;/font&gt;" style="ellipse;whiteSpace=wrap;html=1;aspect=fixed;" vertex="1" parent="1">
          <mxGeometry x="520" y="200" width="40" height="40" as="geometry" />
        </mxCell>
        <mxCell id="bT8yowvqNWeTCR8ogXKZ-14" style="edgeStyle=orthogonalEdgeStyle;rounded=0;orthogonalLoop=1;jettySize=auto;html=1;exitX=1;exitY=0.5;exitDx=0;exitDy=0;entryX=0.5;entryY=1;entryDx=0;entryDy=0;fontSize=18;" edge="1" parent="1" source="bT8yowvqNWeTCR8ogXKZ-15" target="bT8yowvqNWeTCR8ogXKZ-9">
          <mxGeometry relative="1" as="geometry" />
        </mxCell>
        <mxCell id="bT8yowvqNWeTCR8ogXKZ-15" value="&lt;font style=&quot;font-size: 24px;&quot;&gt;x&lt;/font&gt;" style="ellipse;whiteSpace=wrap;html=1;aspect=fixed;" vertex="1" parent="1">
          <mxGeometry x="520" y="320" width="40" height="40" as="geometry" />
        </mxCell>
        <mxCell id="bT8yowvqNWeTCR8ogXKZ-16" style="edgeStyle=orthogonalEdgeStyle;rounded=0;orthogonalLoop=1;jettySize=auto;html=1;exitX=0;exitY=0.5;exitDx=0;exitDy=0;entryX=0.5;entryY=1;entryDx=0;entryDy=0;fontSize=18;" edge="1" parent="1" source="bT8yowvqNWeTCR8ogXKZ-17" target="bT8yowvqNWeTCR8ogXKZ-7">
          <mxGeometry relative="1" as="geometry" />
        </mxCell>
        <mxCell id="bT8yowvqNWeTCR8ogXKZ-17" value="&lt;font style=&quot;font-size: 24px;&quot;&gt;x&lt;/font&gt;" style="ellipse;whiteSpace=wrap;html=1;aspect=fixed;" vertex="1" parent="1">
          <mxGeometry x="277.5" y="320" width="40" height="40" as="geometry" />
        </mxCell>
        <mxCell id="bT8yowvqNWeTCR8ogXKZ-18" style="edgeStyle=orthogonalEdgeStyle;rounded=0;orthogonalLoop=1;jettySize=auto;html=1;exitX=0;exitY=0.5;exitDx=0;exitDy=0;entryX=1;entryY=0.5;entryDx=0;entryDy=0;fontSize=18;" edge="1" parent="1" source="bT8yowvqNWeTCR8ogXKZ-53" target="bT8yowvqNWeTCR8ogXKZ-7">
          <mxGeometry relative="1" as="geometry" />
        </mxCell>
        <mxCell id="bT8yowvqNWeTCR8ogXKZ-19" style="edgeStyle=orthogonalEdgeStyle;rounded=0;orthogonalLoop=1;jettySize=auto;html=1;exitX=1;exitY=0.5;exitDx=0;exitDy=0;exitPerimeter=0;entryX=0.5;entryY=0;entryDx=0;entryDy=0;fontSize=18;" edge="1" parent="1" source="bT8yowvqNWeTCR8ogXKZ-20" target="bT8yowvqNWeTCR8ogXKZ-53">
          <mxGeometry relative="1" as="geometry" />
        </mxCell>
        <mxCell id="bT8yowvqNWeTCR8ogXKZ-20" value="&lt;font style=&quot;font-size: 18px;&quot;&gt;A1&lt;/font&gt;" style="shape=or;whiteSpace=wrap;html=1;fontSize=12;direction=south;" vertex="1" parent="1">
          <mxGeometry x="277.5" y="140" width="40" height="30" as="geometry" />
        </mxCell>
        <mxCell id="bT8yowvqNWeTCR8ogXKZ-21" style="edgeStyle=orthogonalEdgeStyle;rounded=0;orthogonalLoop=1;jettySize=auto;html=1;exitX=1;exitY=0.5;exitDx=0;exitDy=0;exitPerimeter=0;entryX=0.5;entryY=0;entryDx=0;entryDy=0;fontSize=18;" edge="1" parent="1" source="bT8yowvqNWeTCR8ogXKZ-22" target="bT8yowvqNWeTCR8ogXKZ-17">
          <mxGeometry relative="1" as="geometry" />
        </mxCell>
        <mxCell id="bT8yowvqNWeTCR8ogXKZ-22" value="&lt;font style=&quot;font-size: 18px;&quot;&gt;A2&lt;/font&gt;" style="shape=or;whiteSpace=wrap;html=1;fontSize=12;direction=south;" vertex="1" parent="1">
          <mxGeometry x="277.5" y="262" width="40" height="30" as="geometry" />
        </mxCell>
        <mxCell id="bT8yowvqNWeTCR8ogXKZ-23" style="edgeStyle=orthogonalEdgeStyle;rounded=0;orthogonalLoop=1;jettySize=auto;html=1;exitX=1;exitY=0.5;exitDx=0;exitDy=0;exitPerimeter=0;entryX=0.5;entryY=0;entryDx=0;entryDy=0;fontSize=18;" edge="1" parent="1" source="bT8yowvqNWeTCR8ogXKZ-24" target="bT8yowvqNWeTCR8ogXKZ-15">
          <mxGeometry relative="1" as="geometry" />
        </mxCell>
        <mxCell id="bT8yowvqNWeTCR8ogXKZ-24" value="&lt;font style=&quot;font-size: 18px;&quot;&gt;B2&lt;/font&gt;" style="shape=or;whiteSpace=wrap;html=1;fontSize=12;direction=south;" vertex="1" parent="1">
          <mxGeometry x="520" y="262" width="40" height="30" as="geometry" />
        </mxCell>
        <mxCell id="bT8yowvqNWeTCR8ogXKZ-25" style="edgeStyle=orthogonalEdgeStyle;rounded=0;orthogonalLoop=1;jettySize=auto;html=1;exitX=1;exitY=0.5;exitDx=0;exitDy=0;exitPerimeter=0;entryX=0.5;entryY=0;entryDx=0;entryDy=0;fontSize=18;" edge="1" parent="1" source="bT8yowvqNWeTCR8ogXKZ-26" target="bT8yowvqNWeTCR8ogXKZ-13">
          <mxGeometry relative="1" as="geometry" />
        </mxCell>
        <mxCell id="bT8yowvqNWeTCR8ogXKZ-26" value="&lt;font style=&quot;font-size: 18px;&quot;&gt;B1&lt;/font&gt;" style="shape=or;whiteSpace=wrap;html=1;fontSize=12;direction=south;" vertex="1" parent="1">
          <mxGeometry x="520" y="140" width="40" height="30" as="geometry" />
        </mxCell>
        <mxCell id="bT8yowvqNWeTCR8ogXKZ-27" style="edgeStyle=orthogonalEdgeStyle;rounded=0;orthogonalLoop=1;jettySize=auto;html=1;exitX=1;exitY=0.5;exitDx=0;exitDy=0;exitPerimeter=0;entryX=0.5;entryY=0;entryDx=0;entryDy=0;fontSize=18;" edge="1" parent="1" source="bT8yowvqNWeTCR8ogXKZ-28" target="bT8yowvqNWeTCR8ogXKZ-5">
          <mxGeometry relative="1" as="geometry" />
        </mxCell>
        <mxCell id="bT8yowvqNWeTCR8ogXKZ-28" value="&lt;font style=&quot;font-size: 18px;&quot;&gt;B0&lt;/font&gt;" style="shape=or;whiteSpace=wrap;html=1;fontSize=12;direction=south;" vertex="1" parent="1">
          <mxGeometry x="520" y="10" width="40" height="30" as="geometry" />
        </mxCell>
        <mxCell id="bT8yowvqNWeTCR8ogXKZ-29" value="" style="shape=or;whiteSpace=wrap;html=1;fontSize=12;direction=west;" vertex="1" parent="1">
          <mxGeometry x="732.5" y="80" width="30" height="40" as="geometry" />
        </mxCell>
        <mxCell id="bT8yowvqNWeTCR8ogXKZ-30" style="edgeStyle=orthogonalEdgeStyle;rounded=0;orthogonalLoop=1;jettySize=auto;html=1;exitX=1;exitY=0.5;exitDx=0;exitDy=0;exitPerimeter=0;entryX=0;entryY=0.5;entryDx=0;entryDy=0;fontSize=18;" edge="1" parent="1" source="bT8yowvqNWeTCR8ogXKZ-31" target="bT8yowvqNWeTCR8ogXKZ-3">
          <mxGeometry relative="1" as="geometry" />
        </mxCell>
        <mxCell id="bT8yowvqNWeTCR8ogXKZ-31" value="" style="shape=or;whiteSpace=wrap;html=1;fontSize=12;direction=east;" vertex="1" parent="1">
          <mxGeometry x="40" y="80" width="30" height="40" as="geometry" />
        </mxCell>
        <mxCell id="bT8yowvqNWeTCR8ogXKZ-32" value="p1[2n]" style="text;html=1;strokeColor=none;fillColor=none;align=center;verticalAlign=middle;whiteSpace=wrap;rounded=0;fontSize=18;" vertex="1" parent="1">
          <mxGeometry x="156" y="51" width="60" height="30" as="geometry" />
        </mxCell>
        <mxCell id="bT8yowvqNWeTCR8ogXKZ-33" value="p3[2n]" style="text;html=1;strokeColor=none;fillColor=none;align=center;verticalAlign=middle;whiteSpace=wrap;rounded=0;fontSize=18;" vertex="1" parent="1">
          <mxGeometry x="152" y="170" width="60" height="30" as="geometry" />
        </mxCell>
        <mxCell id="bT8yowvqNWeTCR8ogXKZ-34" value="m4[2n]" style="text;html=1;strokeColor=none;fillColor=none;align=center;verticalAlign=middle;whiteSpace=wrap;rounded=0;fontSize=18;" vertex="1" parent="1">
          <mxGeometry x="229" y="290" width="60" height="30" as="geometry" />
        </mxCell>
        <mxCell id="bT8yowvqNWeTCR8ogXKZ-35" value="m3[2n]" style="text;html=1;strokeColor=none;fillColor=none;align=center;verticalAlign=middle;whiteSpace=wrap;rounded=0;fontSize=18;" vertex="1" parent="1">
          <mxGeometry x="466" y="172" width="60" height="30" as="geometry" />
        </mxCell>
        <mxCell id="bT8yowvqNWeTCR8ogXKZ-36" value="m5[2n]" style="text;html=1;strokeColor=none;fillColor=none;align=center;verticalAlign=middle;whiteSpace=wrap;rounded=0;fontSize=18;" vertex="1" parent="1">
          <mxGeometry x="464" y="294" width="60" height="30" as="geometry" />
        </mxCell>
        <mxCell id="bT8yowvqNWeTCR8ogXKZ-37" value="p4[2n]" style="text;html=1;strokeColor=none;fillColor=none;align=center;verticalAlign=middle;whiteSpace=wrap;rounded=0;fontSize=18;" vertex="1" parent="1">
          <mxGeometry x="602.5" y="180" width="60" height="30" as="geometry" />
        </mxCell>
        <mxCell id="bT8yowvqNWeTCR8ogXKZ-38" value="p2[2n]" style="text;html=1;strokeColor=none;fillColor=none;align=center;verticalAlign=middle;whiteSpace=wrap;rounded=0;fontSize=18;" vertex="1" parent="1">
          <mxGeometry x="612.5" y="50" width="60" height="30" as="geometry" />
        </mxCell>
        <mxCell id="bT8yowvqNWeTCR8ogXKZ-39" value="m1[2n]" style="text;html=1;strokeColor=none;fillColor=none;align=center;verticalAlign=middle;whiteSpace=wrap;rounded=0;fontSize=18;" vertex="1" parent="1">
          <mxGeometry x="466" y="53" width="60" height="30" as="geometry" />
        </mxCell>
        <mxCell id="bT8yowvqNWeTCR8ogXKZ-62" style="edgeStyle=orthogonalEdgeStyle;rounded=0;orthogonalLoop=1;jettySize=auto;html=1;exitX=1;exitY=0.5;exitDx=0;exitDy=0;entryX=1;entryY=0.5;entryDx=0;entryDy=0;strokeColor=#000000;fontSize=18;endArrow=classic;endFill=1;" edge="1" parent="1" source="bT8yowvqNWeTCR8ogXKZ-40" target="bT8yowvqNWeTCR8ogXKZ-53">
          <mxGeometry relative="1" as="geometry" />
        </mxCell>
        <mxCell id="bT8yowvqNWeTCR8ogXKZ-63" style="edgeStyle=orthogonalEdgeStyle;rounded=0;orthogonalLoop=1;jettySize=auto;html=1;exitX=1;exitY=0.5;exitDx=0;exitDy=0;entryX=0;entryY=0.5;entryDx=0;entryDy=0;strokeColor=#000000;fontSize=18;endArrow=classic;endFill=1;" edge="1" parent="1" source="bT8yowvqNWeTCR8ogXKZ-40" target="bT8yowvqNWeTCR8ogXKZ-13">
          <mxGeometry relative="1" as="geometry" />
        </mxCell>
        <mxCell id="bT8yowvqNWeTCR8ogXKZ-65" style="edgeStyle=orthogonalEdgeStyle;rounded=0;orthogonalLoop=1;jettySize=auto;html=1;exitX=1;exitY=0.5;exitDx=0;exitDy=0;entryX=0;entryY=0.5;entryDx=0;entryDy=0;strokeColor=#000000;fontSize=18;endArrow=classic;endFill=1;" edge="1" parent="1" source="bT8yowvqNWeTCR8ogXKZ-40" target="bT8yowvqNWeTCR8ogXKZ-64">
          <mxGeometry relative="1" as="geometry" />
        </mxCell>
        <mxCell id="J5gAfPCd5y724lsthkOf-99" style="edgeStyle=orthogonalEdgeStyle;rounded=0;orthogonalLoop=1;jettySize=auto;html=1;exitX=1;exitY=0.5;exitDx=0;exitDy=0;entryX=1;entryY=0.5;entryDx=0;entryDy=0;strokeColor=#99CCFF;fontSize=18;endArrow=classic;endFill=1;" edge="1" parent="1" source="bT8yowvqNWeTCR8ogXKZ-40" target="J5gAfPCd5y724lsthkOf-47">
          <mxGeometry relative="1" as="geometry">
            <Array as="points">
              <mxPoint x="390" y="200" />
              <mxPoint x="360" y="200" />
              <mxPoint x="360" y="740" />
            </Array>
          </mxGeometry>
        </mxCell>
        <mxCell id="J5gAfPCd5y724lsthkOf-100" style="edgeStyle=orthogonalEdgeStyle;rounded=0;orthogonalLoop=1;jettySize=auto;html=1;exitX=1;exitY=0.5;exitDx=0;exitDy=0;entryX=0;entryY=0.5;entryDx=0;entryDy=0;strokeColor=#66B2FF;fontSize=18;endArrow=classic;endFill=1;" edge="1" parent="1" source="bT8yowvqNWeTCR8ogXKZ-40" target="J5gAfPCd5y724lsthkOf-45">
          <mxGeometry relative="1" as="geometry">
            <Array as="points">
              <mxPoint x="390" y="200" />
              <mxPoint x="360" y="200" />
              <mxPoint x="360" y="740" />
            </Array>
          </mxGeometry>
        </mxCell>
        <mxCell id="bT8yowvqNWeTCR8ogXKZ-40" value="T0" style="ellipse;whiteSpace=wrap;html=1;aspect=fixed;direction=south;" vertex="1" parent="1">
          <mxGeometry x="370" y="135" width="40" height="40" as="geometry" />
        </mxCell>
        <mxCell id="bT8yowvqNWeTCR8ogXKZ-46" value="d1[2n-1]" style="text;html=1;strokeColor=none;fillColor=none;align=center;verticalAlign=middle;whiteSpace=wrap;rounded=0;fontSize=18;" vertex="1" parent="1">
          <mxGeometry x="410" y="112" width="70" height="30" as="geometry" />
        </mxCell>
        <mxCell id="bT8yowvqNWeTCR8ogXKZ-53" value="&lt;font style=&quot;font-size: 24px;&quot;&gt;x&lt;/font&gt;" style="ellipse;whiteSpace=wrap;html=1;aspect=fixed;" vertex="1" parent="1">
          <mxGeometry x="277.5" y="200" width="40" height="40" as="geometry" />
        </mxCell>
        <mxCell id="bT8yowvqNWeTCR8ogXKZ-54" value="m2[2n]" style="text;html=1;strokeColor=none;fillColor=none;align=center;verticalAlign=middle;whiteSpace=wrap;rounded=0;fontSize=18;" vertex="1" parent="1">
          <mxGeometry x="228" y="173" width="60" height="30" as="geometry" />
        </mxCell>
        <mxCell id="bT8yowvqNWeTCR8ogXKZ-66" style="edgeStyle=orthogonalEdgeStyle;rounded=0;orthogonalLoop=1;jettySize=auto;html=1;exitX=1;exitY=0.5;exitDx=0;exitDy=0;entryX=1;entryY=0.5;entryDx=0;entryDy=0;strokeColor=#000000;fontSize=18;endArrow=classic;endFill=1;" edge="1" parent="1" source="bT8yowvqNWeTCR8ogXKZ-64" target="bT8yowvqNWeTCR8ogXKZ-17">
          <mxGeometry relative="1" as="geometry" />
        </mxCell>
        <mxCell id="bT8yowvqNWeTCR8ogXKZ-67" style="edgeStyle=orthogonalEdgeStyle;rounded=0;orthogonalLoop=1;jettySize=auto;html=1;exitX=1;exitY=0.5;exitDx=0;exitDy=0;entryX=0;entryY=0.5;entryDx=0;entryDy=0;strokeColor=#000000;fontSize=18;endArrow=classic;endFill=1;" edge="1" parent="1" source="bT8yowvqNWeTCR8ogXKZ-64" target="bT8yowvqNWeTCR8ogXKZ-15">
          <mxGeometry relative="1" as="geometry" />
        </mxCell>
        <mxCell id="bT8yowvqNWeTCR8ogXKZ-64" value="T0" style="ellipse;whiteSpace=wrap;html=1;aspect=fixed;direction=south;" vertex="1" parent="1">
          <mxGeometry x="370" y="252" width="40" height="40" as="geometry" />
        </mxCell>
        <mxCell id="bT8yowvqNWeTCR8ogXKZ-68" value="d2[2n-2]" style="text;html=1;strokeColor=none;fillColor=none;align=center;verticalAlign=middle;whiteSpace=wrap;rounded=0;fontSize=18;" vertex="1" parent="1">
          <mxGeometry x="410" y="232" width="70" height="30" as="geometry" />
        </mxCell>
        <mxCell id="J5gAfPCd5y724lsthkOf-29" style="edgeStyle=orthogonalEdgeStyle;rounded=0;orthogonalLoop=1;jettySize=auto;html=1;exitX=1;exitY=0.5;exitDx=0;exitDy=0;exitPerimeter=0;strokeColor=#000000;fontSize=18;endArrow=classic;endFill=1;" edge="1" parent="1" source="J5gAfPCd5y724lsthkOf-1">
          <mxGeometry relative="1" as="geometry">
            <mxPoint x="-350" y="459" as="targetPoint" />
          </mxGeometry>
        </mxCell>
        <mxCell id="J5gAfPCd5y724lsthkOf-1" value="" style="shape=or;whiteSpace=wrap;html=1;fontSize=12;direction=east;" vertex="1" parent="1">
          <mxGeometry x="-410" y="439" width="30" height="40" as="geometry" />
        </mxCell>
        <mxCell id="J5gAfPCd5y724lsthkOf-3" value="Xn[2n + 1]" style="text;html=1;strokeColor=none;fillColor=none;align=center;verticalAlign=middle;whiteSpace=wrap;rounded=0;fontSize=18;" vertex="1" parent="1">
          <mxGeometry x="-410" y="479" width="90" height="30" as="geometry" />
        </mxCell>
        <mxCell id="J5gAfPCd5y724lsthkOf-4" value="Xn[2n]" style="text;html=1;strokeColor=none;fillColor=none;align=center;verticalAlign=middle;whiteSpace=wrap;rounded=0;fontSize=18;" vertex="1" parent="1">
          <mxGeometry x="10" y="40" width="90" height="30" as="geometry" />
        </mxCell>
        <mxCell id="J5gAfPCd5y724lsthkOf-30" style="edgeStyle=orthogonalEdgeStyle;rounded=0;orthogonalLoop=1;jettySize=auto;html=1;exitX=1;exitY=0.5;exitDx=0;exitDy=0;exitPerimeter=0;strokeColor=#000000;fontSize=18;endArrow=classic;endFill=1;" edge="1" parent="1" source="J5gAfPCd5y724lsthkOf-22">
          <mxGeometry relative="1" as="geometry">
            <mxPoint x="-340" y="539" as="targetPoint" />
          </mxGeometry>
        </mxCell>
        <mxCell id="J5gAfPCd5y724lsthkOf-22" value="" style="shape=or;whiteSpace=wrap;html=1;fontSize=12;direction=east;" vertex="1" parent="1">
          <mxGeometry x="-410" y="519" width="30" height="40" as="geometry" />
        </mxCell>
        <mxCell id="J5gAfPCd5y724lsthkOf-23" value="Xn[2n + 2]" style="text;html=1;strokeColor=none;fillColor=none;align=center;verticalAlign=middle;whiteSpace=wrap;rounded=0;fontSize=18;" vertex="1" parent="1">
          <mxGeometry x="-410" y="559" width="90" height="30" as="geometry" />
        </mxCell>
        <mxCell id="J5gAfPCd5y724lsthkOf-25" value="Xn[2n]" style="text;html=1;strokeColor=none;fillColor=none;align=center;verticalAlign=middle;whiteSpace=wrap;rounded=0;fontSize=18;" vertex="1" parent="1">
          <mxGeometry x="-410" y="400" width="90" height="30" as="geometry" />
        </mxCell>
        <mxCell id="J5gAfPCd5y724lsthkOf-31" style="edgeStyle=orthogonalEdgeStyle;rounded=0;orthogonalLoop=1;jettySize=auto;html=1;exitX=1;exitY=0.5;exitDx=0;exitDy=0;entryX=0;entryY=0.5;entryDx=0;entryDy=0;fontSize=18;" edge="1" parent="1" source="J5gAfPCd5y724lsthkOf-33" target="J5gAfPCd5y724lsthkOf-35">
          <mxGeometry relative="1" as="geometry" />
        </mxCell>
        <mxCell id="J5gAfPCd5y724lsthkOf-33" value="&lt;font style=&quot;font-size: 24px;&quot;&gt;+&lt;/font&gt;" style="ellipse;whiteSpace=wrap;html=1;aspect=fixed;" vertex="1" parent="1">
          <mxGeometry x="120" y="480" width="40" height="40" as="geometry" />
        </mxCell>
        <mxCell id="J5gAfPCd5y724lsthkOf-34" style="edgeStyle=orthogonalEdgeStyle;rounded=0;orthogonalLoop=1;jettySize=auto;html=1;exitX=1;exitY=0.5;exitDx=0;exitDy=0;entryX=0;entryY=0.5;entryDx=0;entryDy=0;fontSize=18;" edge="1" parent="1" source="J5gAfPCd5y724lsthkOf-35" target="J5gAfPCd5y724lsthkOf-41">
          <mxGeometry relative="1" as="geometry" />
        </mxCell>
        <mxCell id="J5gAfPCd5y724lsthkOf-35" value="&lt;font style=&quot;font-size: 24px;&quot;&gt;x&lt;/font&gt;" style="ellipse;whiteSpace=wrap;html=1;aspect=fixed;" vertex="1" parent="1">
          <mxGeometry x="520" y="480" width="40" height="40" as="geometry" />
        </mxCell>
        <mxCell id="J5gAfPCd5y724lsthkOf-36" style="edgeStyle=orthogonalEdgeStyle;rounded=0;orthogonalLoop=1;jettySize=auto;html=1;exitX=0.5;exitY=0;exitDx=0;exitDy=0;entryX=0.5;entryY=1;entryDx=0;entryDy=0;fontSize=18;" edge="1" parent="1" source="J5gAfPCd5y724lsthkOf-37" target="J5gAfPCd5y724lsthkOf-33">
          <mxGeometry relative="1" as="geometry" />
        </mxCell>
        <mxCell id="J5gAfPCd5y724lsthkOf-37" value="&lt;font style=&quot;font-size: 24px;&quot;&gt;+&lt;/font&gt;" style="ellipse;whiteSpace=wrap;html=1;aspect=fixed;" vertex="1" parent="1">
          <mxGeometry x="120" y="600" width="40" height="40" as="geometry" />
        </mxCell>
        <mxCell id="J5gAfPCd5y724lsthkOf-38" style="edgeStyle=orthogonalEdgeStyle;rounded=0;orthogonalLoop=1;jettySize=auto;html=1;exitX=0.5;exitY=0;exitDx=0;exitDy=0;entryX=0.5;entryY=1;entryDx=0;entryDy=0;fontSize=18;" edge="1" parent="1" source="J5gAfPCd5y724lsthkOf-39" target="J5gAfPCd5y724lsthkOf-41">
          <mxGeometry relative="1" as="geometry" />
        </mxCell>
        <mxCell id="J5gAfPCd5y724lsthkOf-39" value="&lt;font style=&quot;font-size: 24px;&quot;&gt;+&lt;/font&gt;" style="ellipse;whiteSpace=wrap;html=1;aspect=fixed;" vertex="1" parent="1">
          <mxGeometry x="652.5" y="600" width="40" height="40" as="geometry" />
        </mxCell>
        <mxCell id="J5gAfPCd5y724lsthkOf-40" style="edgeStyle=orthogonalEdgeStyle;rounded=0;orthogonalLoop=1;jettySize=auto;html=1;exitX=1;exitY=0.5;exitDx=0;exitDy=0;entryX=1;entryY=0.5;entryDx=0;entryDy=0;entryPerimeter=0;fontSize=18;" edge="1" parent="1" source="J5gAfPCd5y724lsthkOf-41" target="J5gAfPCd5y724lsthkOf-59">
          <mxGeometry relative="1" as="geometry" />
        </mxCell>
        <mxCell id="J5gAfPCd5y724lsthkOf-41" value="&lt;font style=&quot;font-size: 24px;&quot;&gt;+&lt;/font&gt;" style="ellipse;whiteSpace=wrap;html=1;aspect=fixed;" vertex="1" parent="1">
          <mxGeometry x="652.5" y="480" width="40" height="40" as="geometry" />
        </mxCell>
        <mxCell id="J5gAfPCd5y724lsthkOf-42" style="edgeStyle=orthogonalEdgeStyle;rounded=0;orthogonalLoop=1;jettySize=auto;html=1;exitX=1;exitY=0.5;exitDx=0;exitDy=0;entryX=0;entryY=0.5;entryDx=0;entryDy=0;fontSize=18;" edge="1" parent="1" source="J5gAfPCd5y724lsthkOf-43" target="J5gAfPCd5y724lsthkOf-39">
          <mxGeometry relative="1" as="geometry" />
        </mxCell>
        <mxCell id="J5gAfPCd5y724lsthkOf-43" value="&lt;font style=&quot;font-size: 24px;&quot;&gt;x&lt;/font&gt;" style="ellipse;whiteSpace=wrap;html=1;aspect=fixed;" vertex="1" parent="1">
          <mxGeometry x="520" y="600" width="40" height="40" as="geometry" />
        </mxCell>
        <mxCell id="J5gAfPCd5y724lsthkOf-44" style="edgeStyle=orthogonalEdgeStyle;rounded=0;orthogonalLoop=1;jettySize=auto;html=1;exitX=1;exitY=0.5;exitDx=0;exitDy=0;entryX=0.5;entryY=1;entryDx=0;entryDy=0;fontSize=18;" edge="1" parent="1" source="J5gAfPCd5y724lsthkOf-45" target="J5gAfPCd5y724lsthkOf-39">
          <mxGeometry relative="1" as="geometry" />
        </mxCell>
        <mxCell id="J5gAfPCd5y724lsthkOf-45" value="&lt;font style=&quot;font-size: 24px;&quot;&gt;x&lt;/font&gt;" style="ellipse;whiteSpace=wrap;html=1;aspect=fixed;" vertex="1" parent="1">
          <mxGeometry x="520" y="720" width="40" height="40" as="geometry" />
        </mxCell>
        <mxCell id="J5gAfPCd5y724lsthkOf-46" style="edgeStyle=orthogonalEdgeStyle;rounded=0;orthogonalLoop=1;jettySize=auto;html=1;exitX=0;exitY=0.5;exitDx=0;exitDy=0;entryX=0.5;entryY=1;entryDx=0;entryDy=0;fontSize=18;" edge="1" parent="1" source="J5gAfPCd5y724lsthkOf-47" target="J5gAfPCd5y724lsthkOf-37">
          <mxGeometry relative="1" as="geometry" />
        </mxCell>
        <mxCell id="J5gAfPCd5y724lsthkOf-47" value="&lt;font style=&quot;font-size: 24px;&quot;&gt;x&lt;/font&gt;" style="ellipse;whiteSpace=wrap;html=1;aspect=fixed;" vertex="1" parent="1">
          <mxGeometry x="277.5" y="720" width="40" height="40" as="geometry" />
        </mxCell>
        <mxCell id="J5gAfPCd5y724lsthkOf-48" style="edgeStyle=orthogonalEdgeStyle;rounded=0;orthogonalLoop=1;jettySize=auto;html=1;exitX=0;exitY=0.5;exitDx=0;exitDy=0;entryX=1;entryY=0.5;entryDx=0;entryDy=0;fontSize=18;" edge="1" parent="1" source="J5gAfPCd5y724lsthkOf-75" target="J5gAfPCd5y724lsthkOf-37">
          <mxGeometry relative="1" as="geometry" />
        </mxCell>
        <mxCell id="J5gAfPCd5y724lsthkOf-49" style="edgeStyle=orthogonalEdgeStyle;rounded=0;orthogonalLoop=1;jettySize=auto;html=1;exitX=1;exitY=0.5;exitDx=0;exitDy=0;exitPerimeter=0;entryX=0.5;entryY=0;entryDx=0;entryDy=0;fontSize=18;" edge="1" parent="1" source="J5gAfPCd5y724lsthkOf-50" target="J5gAfPCd5y724lsthkOf-75">
          <mxGeometry relative="1" as="geometry" />
        </mxCell>
        <mxCell id="J5gAfPCd5y724lsthkOf-50" value="&lt;font style=&quot;font-size: 18px;&quot;&gt;A1&lt;/font&gt;" style="shape=or;whiteSpace=wrap;html=1;fontSize=12;direction=south;" vertex="1" parent="1">
          <mxGeometry x="277.5" y="540" width="40" height="30" as="geometry" />
        </mxCell>
        <mxCell id="J5gAfPCd5y724lsthkOf-51" style="edgeStyle=orthogonalEdgeStyle;rounded=0;orthogonalLoop=1;jettySize=auto;html=1;exitX=1;exitY=0.5;exitDx=0;exitDy=0;exitPerimeter=0;entryX=0.5;entryY=0;entryDx=0;entryDy=0;fontSize=18;" edge="1" parent="1" source="J5gAfPCd5y724lsthkOf-52" target="J5gAfPCd5y724lsthkOf-47">
          <mxGeometry relative="1" as="geometry" />
        </mxCell>
        <mxCell id="J5gAfPCd5y724lsthkOf-52" value="&lt;font style=&quot;font-size: 18px;&quot;&gt;A2&lt;/font&gt;" style="shape=or;whiteSpace=wrap;html=1;fontSize=12;direction=south;" vertex="1" parent="1">
          <mxGeometry x="277.5" y="662" width="40" height="30" as="geometry" />
        </mxCell>
        <mxCell id="J5gAfPCd5y724lsthkOf-53" style="edgeStyle=orthogonalEdgeStyle;rounded=0;orthogonalLoop=1;jettySize=auto;html=1;exitX=1;exitY=0.5;exitDx=0;exitDy=0;exitPerimeter=0;entryX=0.5;entryY=0;entryDx=0;entryDy=0;fontSize=18;" edge="1" parent="1" source="J5gAfPCd5y724lsthkOf-54" target="J5gAfPCd5y724lsthkOf-45">
          <mxGeometry relative="1" as="geometry" />
        </mxCell>
        <mxCell id="J5gAfPCd5y724lsthkOf-54" value="&lt;font style=&quot;font-size: 18px;&quot;&gt;B2&lt;/font&gt;" style="shape=or;whiteSpace=wrap;html=1;fontSize=12;direction=south;" vertex="1" parent="1">
          <mxGeometry x="520" y="662" width="40" height="30" as="geometry" />
        </mxCell>
        <mxCell id="J5gAfPCd5y724lsthkOf-55" style="edgeStyle=orthogonalEdgeStyle;rounded=0;orthogonalLoop=1;jettySize=auto;html=1;exitX=1;exitY=0.5;exitDx=0;exitDy=0;exitPerimeter=0;entryX=0.5;entryY=0;entryDx=0;entryDy=0;fontSize=18;" edge="1" parent="1" source="J5gAfPCd5y724lsthkOf-56" target="J5gAfPCd5y724lsthkOf-43">
          <mxGeometry relative="1" as="geometry" />
        </mxCell>
        <mxCell id="J5gAfPCd5y724lsthkOf-56" value="&lt;font style=&quot;font-size: 18px;&quot;&gt;B1&lt;/font&gt;" style="shape=or;whiteSpace=wrap;html=1;fontSize=12;direction=south;" vertex="1" parent="1">
          <mxGeometry x="520" y="540" width="40" height="30" as="geometry" />
        </mxCell>
        <mxCell id="J5gAfPCd5y724lsthkOf-57" style="edgeStyle=orthogonalEdgeStyle;rounded=0;orthogonalLoop=1;jettySize=auto;html=1;exitX=1;exitY=0.5;exitDx=0;exitDy=0;exitPerimeter=0;entryX=0.5;entryY=0;entryDx=0;entryDy=0;fontSize=18;" edge="1" parent="1" source="J5gAfPCd5y724lsthkOf-58" target="J5gAfPCd5y724lsthkOf-35">
          <mxGeometry relative="1" as="geometry" />
        </mxCell>
        <mxCell id="J5gAfPCd5y724lsthkOf-58" value="&lt;font style=&quot;font-size: 18px;&quot;&gt;B0&lt;/font&gt;" style="shape=or;whiteSpace=wrap;html=1;fontSize=12;direction=south;" vertex="1" parent="1">
          <mxGeometry x="520" y="410" width="40" height="30" as="geometry" />
        </mxCell>
        <mxCell id="J5gAfPCd5y724lsthkOf-59" value="" style="shape=or;whiteSpace=wrap;html=1;fontSize=12;direction=west;" vertex="1" parent="1">
          <mxGeometry x="732.5" y="480" width="30" height="40" as="geometry" />
        </mxCell>
        <mxCell id="J5gAfPCd5y724lsthkOf-60" style="edgeStyle=orthogonalEdgeStyle;rounded=0;orthogonalLoop=1;jettySize=auto;html=1;exitX=1;exitY=0.5;exitDx=0;exitDy=0;exitPerimeter=0;entryX=0;entryY=0.5;entryDx=0;entryDy=0;fontSize=18;" edge="1" parent="1" source="J5gAfPCd5y724lsthkOf-61" target="J5gAfPCd5y724lsthkOf-33">
          <mxGeometry relative="1" as="geometry" />
        </mxCell>
        <mxCell id="J5gAfPCd5y724lsthkOf-61" value="" style="shape=or;whiteSpace=wrap;html=1;fontSize=12;direction=east;" vertex="1" parent="1">
          <mxGeometry x="40" y="480" width="30" height="40" as="geometry" />
        </mxCell>
        <mxCell id="J5gAfPCd5y724lsthkOf-62" value="p1[2n+1]" style="text;html=1;strokeColor=none;fillColor=none;align=center;verticalAlign=middle;whiteSpace=wrap;rounded=0;fontSize=18;" vertex="1" parent="1">
          <mxGeometry x="162" y="449" width="40" height="30" as="geometry" />
        </mxCell>
        <mxCell id="J5gAfPCd5y724lsthkOf-63" value="p3[2n+1]" style="text;html=1;strokeColor=none;fillColor=none;align=center;verticalAlign=middle;whiteSpace=wrap;rounded=0;fontSize=18;" vertex="1" parent="1">
          <mxGeometry x="152" y="570" width="60" height="30" as="geometry" />
        </mxCell>
        <mxCell id="J5gAfPCd5y724lsthkOf-64" value="m4[2n+1]" style="text;html=1;strokeColor=none;fillColor=none;align=center;verticalAlign=middle;whiteSpace=wrap;rounded=0;fontSize=18;" vertex="1" parent="1">
          <mxGeometry x="217.5" y="690" width="60" height="30" as="geometry" />
        </mxCell>
        <mxCell id="J5gAfPCd5y724lsthkOf-65" value="m3[2n+1]" style="text;html=1;strokeColor=none;fillColor=none;align=center;verticalAlign=middle;whiteSpace=wrap;rounded=0;fontSize=18;" vertex="1" parent="1">
          <mxGeometry x="464" y="570" width="60" height="30" as="geometry" />
        </mxCell>
        <mxCell id="J5gAfPCd5y724lsthkOf-66" value="m5[2n+1]" style="text;html=1;strokeColor=none;fillColor=none;align=center;verticalAlign=middle;whiteSpace=wrap;rounded=0;fontSize=18;" vertex="1" parent="1">
          <mxGeometry x="459" y="697" width="60" height="30" as="geometry" />
        </mxCell>
        <mxCell id="J5gAfPCd5y724lsthkOf-67" value="p4[2n+1]" style="text;html=1;strokeColor=none;fillColor=none;align=center;verticalAlign=middle;whiteSpace=wrap;rounded=0;fontSize=18;" vertex="1" parent="1">
          <mxGeometry x="594" y="577" width="60" height="30" as="geometry" />
        </mxCell>
        <mxCell id="J5gAfPCd5y724lsthkOf-68" value="p2[2n+1]" style="text;html=1;strokeColor=none;fillColor=none;align=center;verticalAlign=middle;whiteSpace=wrap;rounded=0;fontSize=18;" vertex="1" parent="1">
          <mxGeometry x="591" y="452" width="60" height="30" as="geometry" />
        </mxCell>
        <mxCell id="J5gAfPCd5y724lsthkOf-69" value="m1[2n+1]" style="text;html=1;strokeColor=none;fillColor=none;align=center;verticalAlign=middle;whiteSpace=wrap;rounded=0;fontSize=18;" vertex="1" parent="1">
          <mxGeometry x="466" y="454" width="50" height="30" as="geometry" />
        </mxCell>
        <mxCell id="J5gAfPCd5y724lsthkOf-75" value="&lt;font style=&quot;font-size: 24px;&quot;&gt;x&lt;/font&gt;" style="ellipse;whiteSpace=wrap;html=1;aspect=fixed;" vertex="1" parent="1">
          <mxGeometry x="277.5" y="600" width="40" height="40" as="geometry" />
        </mxCell>
        <mxCell id="J5gAfPCd5y724lsthkOf-76" value="m2[2n+1]" style="text;html=1;strokeColor=none;fillColor=none;align=center;verticalAlign=middle;whiteSpace=wrap;rounded=0;fontSize=18;" vertex="1" parent="1">
          <mxGeometry x="310" y="570" width="60" height="30" as="geometry" />
        </mxCell>
        <mxCell id="J5gAfPCd5y724lsthkOf-80" value="d2[2n-1]" style="text;html=1;strokeColor=none;fillColor=none;align=center;verticalAlign=middle;whiteSpace=wrap;rounded=0;fontSize=18;" vertex="1" parent="1">
          <mxGeometry x="370" y="710" width="70" height="30" as="geometry" />
        </mxCell>
        <mxCell id="J5gAfPCd5y724lsthkOf-81" value="Xn[2n+1]" style="text;html=1;strokeColor=none;fillColor=none;align=center;verticalAlign=middle;whiteSpace=wrap;rounded=0;fontSize=18;" vertex="1" parent="1">
          <mxGeometry x="10" y="440" width="90" height="30" as="geometry" />
        </mxCell>
        <mxCell id="J5gAfPCd5y724lsthkOf-86" value="Yn[2n+1]" style="text;html=1;strokeColor=none;fillColor=none;align=center;verticalAlign=middle;whiteSpace=wrap;rounded=0;fontSize=18;" vertex="1" parent="1">
          <mxGeometry x="720" y="439" width="90" height="30" as="geometry" />
        </mxCell>
        <mxCell id="J5gAfPCd5y724lsthkOf-87" value="Yn[2n]" style="text;html=1;strokeColor=none;fillColor=none;align=center;verticalAlign=middle;whiteSpace=wrap;rounded=0;fontSize=18;" vertex="1" parent="1">
          <mxGeometry x="720" y="40" width="90" height="30" as="geometry" />
        </mxCell>
        <mxCell id="J5gAfPCd5y724lsthkOf-95" value="d1[2n]" style="text;html=1;strokeColor=none;fillColor=none;align=center;verticalAlign=middle;whiteSpace=wrap;rounded=0;fontSize=18;" vertex="1" parent="1">
          <mxGeometry x="390" y="589" width="70" height="30" as="geometry" />
        </mxCell>
        <mxCell id="J5gAfPCd5y724lsthkOf-101" value="Critical path&amp;nbsp;&amp;nbsp;" style="text;html=1;strokeColor=none;fillColor=none;align=left;verticalAlign=middle;whiteSpace=wrap;rounded=0;fontSize=18;" vertex="1" parent="1">
          <mxGeometry x="156" y="810" width="570" height="30" as="geometry" />
        </mxCell>
      </root>
    </mxGraphModel>
  </diagram>
</mxfile>
